<svg width="24" height="24" viewBox="0 0 24 24" fill="none" xmlns="http://www.w3.org/2000/svg">
<path d="M11.9564 0C15.3164 0 18.1964 1.13455 20.5091 3.44727C22.8218 5.76 24 8.59636 24 11.9564C24 15.3164 22.8655 18.1091 20.5527 20.3782C18.1091 22.7782 15.2727 24 11.9564 24C8.72727 24 5.89091 22.8218 3.53455 20.4655C1.17818 18.1091 0 15.2727 0 12C0 8.72727 1.17818 5.89091 3.53455 3.49091C5.84727 1.13455 8.64 0 11.9564 0ZM12 2.18182C9.29455 2.18182 6.98182 3.09818 5.10545 5.01818C3.14182 7.02545 2.18182 9.33818 2.18182 12C2.18182 14.6618 3.14182 16.9745 5.10545 18.8945C7.02545 20.8145 9.33818 21.8182 12.0436 21.8182C14.7055 21.8182 17.0182 20.8582 19.0255 18.8945C20.9018 17.0618 21.8618 14.7927 21.8618 12.0436C21.8618 9.33818 20.9018 6.98182 18.9818 5.10545C17.0182 3.09818 14.7055 2.18182 12 2.18182ZM15.2291 9.03273V13.92H13.8764V19.7236H10.1673V13.92H8.81455V9.03273C8.81455 8.81455 8.90182 8.64 9.03273 8.46545C9.16364 8.33455 9.38182 8.24727 9.6 8.24727H14.5309C14.7491 8.24727 14.9236 8.33455 15.0545 8.46545C15.1418 8.59636 15.2291 8.81455 15.2291 9.03273ZM10.2982 5.93455C10.2982 4.8 10.8655 4.23273 11.9564 4.23273C13.0473 4.23273 13.6145 4.8 13.6145 5.93455C13.6145 7.06909 13.0473 7.59273 11.9564 7.59273C10.8655 7.59273 10.2982 7.02545 10.2982 5.93455Z" fill="#A8A8A8"/>
</svg>
