<svg width="24" height="24" viewBox="0 0 24 24" fill="none" xmlns="http://www.w3.org/2000/svg">
<path d="M11.9564 0C15.3164 0 18.1527 1.17818 20.5091 3.49091C21.6436 4.62545 22.4727 5.89091 23.0836 7.37455C23.6509 8.81455 23.9564 10.3418 23.9564 12C23.9564 13.6582 23.6509 15.1855 23.0836 16.6255C22.5164 18.0655 21.6436 19.3309 20.5091 20.4218C19.3309 21.5564 18.0218 22.4727 16.5382 23.0836C15.0545 23.6945 13.5273 24 11.9564 24C10.3855 24 8.85818 23.6945 7.41818 23.0836C5.97818 22.4727 4.66909 21.6 3.53455 20.4655C2.4 19.3309 1.52727 18.0218 0.916364 16.5818C0.305455 15.0982 0 13.5709 0 12C0 10.4291 0.305455 8.90182 0.916364 7.41818C1.52727 5.93455 2.4 4.62545 3.57818 3.49091C5.84727 1.17818 8.64 0 11.9564 0ZM12 2.18182C9.25091 2.18182 6.98182 3.09818 5.10545 5.01818C4.14545 5.97818 3.44727 7.06909 2.92364 8.24727C2.4 9.42545 2.18182 10.6909 2.18182 12C2.18182 13.2655 2.44364 14.5309 2.92364 15.7091C3.44727 16.8873 4.14545 17.9782 5.10545 18.8945C6.06545 19.8109 7.11273 20.5527 8.29091 21.0327C9.46909 21.5127 10.7345 21.7745 12 21.7745C13.2655 21.7745 14.5309 21.5127 15.7527 21.0327C16.9745 20.5527 18.0655 19.8109 19.0255 18.8509C20.9018 17.0182 21.8182 14.7491 21.8182 12C21.8182 10.6909 21.5564 9.42545 21.0764 8.24727C20.5964 7.06909 19.8982 6.02182 18.9382 5.06182C17.0618 3.14182 14.7055 2.18182 12 2.18182ZM11.8691 9.99273L10.2545 10.8218C10.08 10.4727 9.86182 10.2109 9.64364 10.08C9.38182 9.94909 9.16364 9.86182 8.94545 9.86182C7.85455 9.86182 7.33091 10.56 7.33091 12C7.33091 12.6545 7.46182 13.1345 7.72364 13.5273C7.98546 13.92 8.37818 14.0945 8.90182 14.0945C9.6 14.0945 10.08 13.7455 10.3855 13.0473L11.8691 13.7891C11.5636 14.3564 11.1273 14.8364 10.56 15.1855C10.0364 15.5345 9.42545 15.7091 8.72727 15.7091C7.63636 15.7091 6.80727 15.36 6.15273 14.7055C5.49818 14.0509 5.14909 13.1345 5.14909 11.9564C5.14909 10.8218 5.49818 9.90545 6.15273 9.25091C6.80727 8.59636 7.63636 8.24727 8.68364 8.24727C10.1673 8.24727 11.2145 8.85818 11.8691 9.99273ZM18.7636 9.99273L17.1927 10.8218C17.0182 10.4727 16.8 10.2109 16.5818 10.08C16.32 9.94909 16.1018 9.86182 15.8836 9.86182C14.7927 9.86182 14.2691 10.56 14.2691 12C14.2691 12.6545 14.4 13.1345 14.6618 13.5273C14.9236 13.92 15.3164 14.0945 15.84 14.0945C16.5382 14.0945 17.0182 13.7455 17.3236 13.0473L18.8073 13.7891C18.4582 14.3564 18.0218 14.8364 17.4982 15.1855C16.9309 15.5345 16.32 15.7091 15.6655 15.7091C14.5745 15.7091 13.7018 15.36 13.0473 14.7055C12.3927 14.0509 12.0873 13.1345 12.0873 11.9564C12.0873 10.8218 12.4364 9.90545 13.0909 9.25091C13.7455 8.59636 14.5745 8.24727 15.6218 8.24727C17.1055 8.24727 18.1527 8.85818 18.7636 9.99273Z" fill="#A8A8A8"/>
</svg>
