<svg width="48" height="48" viewBox="0 0 48 48" fill="none" xmlns="http://www.w3.org/2000/svg">
<path d="M0 24.1444C0.0027924 36.0237 8.58787 46.1383 20.2481 48V31.1231H14.1595V24.1444H20.2553V18.8319C19.9828 16.3146 20.8373 13.8058 22.5872 11.9859C24.337 10.166 26.8007 9.22357 29.3102 9.41431C31.1114 9.44358 32.9081 9.60499 34.686 9.89726V15.8352H31.6525C30.6082 15.6976 29.5582 16.0446 28.7985 16.7786C28.0387 17.5125 27.6513 18.554 27.7454 19.6095V24.1444H34.3956L33.3324 31.1255H27.7454V48C40.3557 45.9948 49.1985 34.4067 47.8676 21.6308C46.5366 8.85497 35.4979 -0.636159 22.7484 0.0333354C9.99892 0.70283 0.00202667 11.2986 0 24.1444Z" fill="url(#paint0_linear_1237_55064)"/>
<defs>
<linearGradient id="paint0_linear_1237_55064" x1="24" y1="0" x2="24" y2="48" gradientUnits="userSpaceOnUse">
<stop stop-color="#19AFFF"/>
<stop offset="1" stop-color="#0062E0"/>
</linearGradient>
</defs>
</svg>
