<svg width="240" height="240" viewBox="0 0 240 240" fill="none" xmlns="http://www.w3.org/2000/svg">
<rect x="0.5" y="0.5" width="239" height="239" rx="3.5" stroke="#CCCCCC" stroke-dasharray="4 4"/>
<path d="M51.2467 182.901H52.6507V181.471H51.8967C51.8967 180.99 52.0137 180.236 52.6377 180.236V179.612C52.4037 179.612 52.1697 179.677 51.9487 179.794C51.5977 180.015 51.2597 180.483 51.2467 181.471V182.901ZM49.1667 182.901H50.5707V181.471H49.8167C49.8167 180.99 49.9337 180.236 50.5577 180.236V179.612C50.3237 179.612 50.0897 179.677 49.8687 179.794C49.5177 180.015 49.1797 180.483 49.1667 181.471V182.901ZM56.0611 185.02L56.4901 182.524H60.2211V181.432H55.6581L54.8781 185.943L55.6451 186.164C56.2041 185.969 56.6981 185.852 57.2051 185.852C58.5701 185.852 59.3761 186.58 59.3761 187.828C59.3761 189.232 58.4271 190.051 57.1141 190.051C56.3341 190.051 55.5801 189.7 55.0081 189.219L54.3711 190.09C54.9561 190.649 55.9181 191.117 57.0621 191.117C58.9991 191.117 60.5201 189.791 60.5201 187.763C60.5201 186.099 59.4411 184.851 57.4261 184.851C56.9581 184.851 56.5031 184.903 56.0611 185.02ZM64.4553 185.02L67.3283 181.419H65.8333L63.1813 184.994C62.3493 186.086 61.9983 187.048 61.9983 187.893C61.9983 189.869 63.2593 191.169 65.1963 191.169C67.1463 191.169 68.4983 189.791 68.4983 188.023C68.4983 186.19 67.1983 185.15 65.6383 185.15C65.0013 185.15 64.4683 185.332 64.0003 185.644C64.0913 185.54 64.2343 185.332 64.4553 185.02ZM65.1703 190.168C63.8703 190.168 63.1553 189.336 63.1553 188.088C63.1553 187.009 63.9743 186.073 65.2483 186.073C66.4313 186.073 67.3023 186.853 67.3023 188.114C67.3023 189.297 66.4313 190.168 65.1703 190.168ZM76.4634 186.255C76.4634 182.862 74.9294 181.315 72.9664 181.315C70.9904 181.315 69.4694 182.862 69.4694 186.255C69.4694 189.635 70.9904 191.182 72.9664 191.182C74.9294 191.182 76.4634 189.635 76.4634 186.255ZM75.2674 186.255C75.2674 189.219 74.1754 190.22 72.9664 190.22C71.7574 190.22 70.6784 189.219 70.6784 186.255C70.6784 183.278 71.7574 182.29 72.9664 182.29C74.1754 182.29 75.2674 183.278 75.2674 186.255ZM77.1875 183.941L79.3325 187.321L77.0055 191H78.2535L79.2025 189.349C79.4495 188.92 79.6835 188.491 79.9305 188.088H79.9955C80.2555 188.491 80.5025 188.92 80.7495 189.349L81.7895 191H83.0895L80.7625 187.438L82.9075 183.941H81.6725L80.8015 185.501C80.5935 185.904 80.3855 186.268 80.1645 186.671H80.1125C79.8655 186.268 79.6315 185.904 79.4105 185.501L78.4615 183.941H77.1875ZM85.7682 185.02L86.1972 182.524H89.9282V181.432H85.3652L84.5852 185.943L85.3522 186.164C85.9112 185.969 86.4052 185.852 86.9122 185.852C88.2772 185.852 89.0832 186.58 89.0832 187.828C89.0832 189.232 88.1342 190.051 86.8212 190.051C86.0412 190.051 85.2872 189.7 84.7152 189.219L84.0782 190.09C84.6632 190.649 85.6252 191.117 86.7692 191.117C88.7062 191.117 90.2272 189.791 90.2272 187.763C90.2272 186.099 89.1482 184.851 87.1332 184.851C86.6652 184.851 86.2102 184.903 85.7682 185.02ZM94.1623 185.02L97.0353 181.419H95.5403L92.8883 184.994C92.0563 186.086 91.7053 187.048 91.7053 187.893C91.7053 189.869 92.9663 191.169 94.9033 191.169C96.8533 191.169 98.2053 189.791 98.2053 188.023C98.2053 186.19 96.9053 185.15 95.3453 185.15C94.7083 185.15 94.1753 185.332 93.7073 185.644C93.7983 185.54 93.9413 185.332 94.1623 185.02ZM94.8773 190.168C93.5773 190.168 92.8623 189.336 92.8623 188.088C92.8623 187.009 93.6813 186.073 94.9553 186.073C96.1383 186.073 97.0093 186.853 97.0093 188.114C97.0093 189.297 96.1383 190.168 94.8773 190.168ZM106.17 186.255C106.17 182.862 104.636 181.315 102.673 181.315C100.697 181.315 99.1764 182.862 99.1764 186.255C99.1764 189.635 100.697 191.182 102.673 191.182C104.636 191.182 106.17 189.635 106.17 186.255ZM104.974 186.255C104.974 189.219 103.882 190.22 102.673 190.22C101.464 190.22 100.385 189.219 100.385 186.255C100.385 183.278 101.464 182.29 102.673 182.29C103.882 182.29 104.974 183.278 104.974 186.255ZM108.689 183.941H107.714V193.977H108.897V191.585L108.871 190.35C109.508 190.87 110.184 191.169 110.821 191.169C112.433 191.169 113.889 189.791 113.889 187.36C113.889 185.189 112.901 183.759 111.081 183.759C110.249 183.759 109.469 184.227 108.832 184.747H108.793L108.689 183.941ZM110.626 190.181C110.158 190.181 109.534 189.999 108.897 189.44V185.735C109.586 185.098 110.184 184.76 110.795 184.76C112.134 184.76 112.654 185.813 112.654 187.373C112.654 189.128 111.809 190.181 110.626 190.181ZM114.715 183.941L116.86 187.321L114.533 191H115.781L116.73 189.349C116.977 188.92 117.211 188.491 117.458 188.088H117.523C117.783 188.491 118.03 188.92 118.277 189.349L119.317 191H120.617L118.29 187.438L120.435 183.941H119.2L118.329 185.501C118.121 185.904 117.913 186.268 117.692 186.671H117.64C117.393 186.268 117.159 185.904 116.938 185.501L115.989 183.941H114.715ZM123.127 179.586H121.723V181.016H122.464C122.477 181.679 122.295 181.978 122.1 182.121C121.996 182.212 121.879 182.251 121.736 182.238V182.875C122.776 182.875 123.114 181.926 123.127 181.016V179.586ZM125.207 179.586H123.803V181.016H124.544C124.557 181.679 124.375 181.978 124.18 182.121C124.076 182.212 123.959 182.251 123.816 182.238V182.875C124.856 182.875 125.194 181.926 125.207 181.016V179.586ZM136.235 191.988V180.301H135.169V191.988H136.235ZM130.515 181.159C128.708 181.159 127.395 182.277 127.395 183.902C127.395 185.527 128.708 186.645 130.515 186.645C132.335 186.645 133.635 185.527 133.635 183.902C133.635 182.277 132.335 181.159 130.515 181.159ZM130.515 182.069C131.724 182.069 132.595 182.81 132.595 183.902C132.595 184.981 131.724 185.735 130.515 185.735C129.306 185.735 128.435 184.981 128.435 183.902C128.435 182.81 129.306 182.069 130.515 182.069ZM126.81 188.53L126.94 189.427C129.059 189.427 131.854 189.401 134.493 188.92L134.402 188.127C131.828 188.504 128.955 188.53 126.81 188.53ZM151.101 191.975V180.301H150.035V191.975H151.101ZM142.014 186.021L142.508 186.853C143.912 186.398 144.978 185.514 145.485 184.266C146.018 185.423 147.058 186.307 148.462 186.723L148.956 185.904C147.24 185.384 146.044 184.175 146.005 182.68H148.696V181.822H146.005V180.392H144.939V181.822H142.287V182.68H144.939C144.9 184.201 143.743 185.501 142.014 186.021ZM146.005 188.582V186.463H144.939V188.634C143.743 188.673 142.651 188.673 141.663 188.673L141.806 189.57C143.886 189.57 146.746 189.544 149.359 189.063L149.268 188.27C148.228 188.439 147.097 188.517 146.005 188.582ZM163.164 186.879L163.619 185.995C161.578 185.644 159.355 183.915 159.355 181.978V181.081H158.237V181.978C158.237 183.915 156.027 185.644 153.986 185.995L154.428 186.879C156.222 186.502 158.029 185.293 158.796 183.629C159.563 185.293 161.383 186.489 163.164 186.879ZM164.139 190.441V189.57H159.329V186.736H158.263V189.57H153.557V190.441H164.139ZM176.613 184.721L169.385 185.033L169.541 185.917L176.574 185.527C176.509 186.424 176.379 187.36 176.132 188.504L177.172 188.608C177.692 186.216 177.679 184.617 177.679 182.914V181.484H169.684V182.355H176.639V183.811C176.639 184.11 176.626 184.422 176.613 184.721ZM178.979 190.337V189.466H168.436V190.337H178.979ZM189.95 191.962V180.301H188.884V191.962H189.95ZM186.531 181.562H181.071V182.42H185.452C185.231 185.189 183.671 187.425 180.538 188.92L181.11 189.791C184.997 187.88 186.531 184.929 186.531 181.562ZM25.5001 213.169C26.8001 213.169 27.8401 212.701 28.4511 212.064V208.06H25.3311V209.061H27.3461V211.557C26.9691 211.908 26.3061 212.116 25.6171 212.116C23.5761 212.116 22.4451 210.608 22.4451 208.203C22.4451 205.811 23.6931 204.342 25.6041 204.342C26.5921 204.342 27.1901 204.745 27.6711 205.252L28.3211 204.472C27.7621 203.887 26.9041 203.289 25.5781 203.289C23.0431 203.289 21.2101 205.161 21.2101 208.242C21.2101 211.323 22.9911 213.169 25.5001 213.169ZM31.9279 203.471H30.7189V213H31.9279V203.471ZM40.0265 203.471H34.5275V213H35.7365V208.723H39.3765V207.709H35.7365V204.485H40.0265V203.471ZM52.9666 207.852H54.8906V206.968H52.9666V202.314H51.9006V213.962H52.9666V207.852ZM49.3916 210.023V204.42H50.6396V203.562H44.1526V204.42H45.4006V210.166C45.1276 210.179 44.8546 210.179 44.6076 210.179H43.8536L43.9836 211.076C46.0246 211.076 48.8196 211.024 51.2506 210.647L51.1726 209.854C50.6006 209.945 50.0026 209.984 49.3916 210.023ZM46.4406 210.153V204.42H48.3516V210.088C47.7146 210.127 47.0646 210.14 46.4406 210.153ZM64.4576 208.281H65.5236V202.301H64.4576V208.281ZM62.2476 205.317C62.2476 203.77 60.9606 202.717 59.2316 202.717C57.5026 202.717 56.2286 203.77 56.2286 205.317C56.2286 206.838 57.5026 207.891 59.2316 207.891C60.9606 207.891 62.2476 206.838 62.2476 205.317ZM57.2556 205.317C57.2556 204.316 58.1006 203.588 59.2316 203.588C60.3756 203.588 61.2076 204.316 61.2076 205.317C61.2076 206.305 60.3756 207.033 59.2316 207.033C58.1006 207.033 57.2556 206.305 57.2556 205.317ZM65.9136 213.806V212.961H59.0496V211.674H65.5236V208.853H57.9706V209.698H64.4706V210.881H57.9966V213.806H65.9136ZM73.1796 207.345C75.6756 207.345 77.2746 206.487 77.2746 205.031C77.2746 203.575 75.6756 202.704 73.1796 202.704C70.6836 202.704 69.0846 203.575 69.0846 205.031C69.0846 206.487 70.6836 207.345 73.1796 207.345ZM73.1796 203.562C75.0126 203.562 76.1826 204.095 76.1826 205.031C76.1826 205.967 75.0126 206.487 73.1796 206.487C71.3466 206.487 70.1766 205.967 70.1766 205.031C70.1766 204.095 71.3466 203.562 73.1796 203.562ZM78.4446 209.295V208.437H67.9016V209.295H78.4446ZM77.2876 212.831H70.3326V210.322H69.2666V213.702H77.2876V212.831ZM92.6868 213.962V202.301H91.6728V206.916H90.0998V202.561H89.0988V213.39H90.0998V207.787H91.6728V213.962H92.6868ZM85.4068 203.276C83.8988 203.276 82.9238 204.849 82.9238 207.332C82.9238 209.828 83.8988 211.401 85.4068 211.401C86.9278 211.401 87.9028 209.828 87.9028 207.332C87.9028 204.849 86.9278 203.276 85.4068 203.276ZM85.4068 210.413C84.4708 210.413 83.8988 209.269 83.8988 207.332C83.8988 205.447 84.4708 204.264 85.4068 204.264C86.3428 204.264 86.9148 205.447 86.9148 207.332C86.9148 209.269 86.3428 210.413 85.4068 210.413ZM104.295 213.949V202.301H103.229V213.949H104.295ZM96.5338 210.036V203.432H95.4678V210.946H96.4298C98.3018 210.946 100.109 210.816 102.15 210.4L102.033 209.49C100.096 209.893 98.3148 210.036 96.5338 210.036ZM116.605 213.949V202.301H115.591V213.949H116.605ZM114.291 202.561H113.277V206.695H111.548V203.653H107.115V210.829H111.548V207.579H113.277V213.377H114.291V202.561ZM108.116 204.498H110.56V209.984H108.116V204.498ZM128.2 213.988V202.301H127.134V213.988H128.2ZM122.051 203.198C120.322 203.198 119.087 204.784 119.087 207.267C119.087 209.75 120.322 211.336 122.051 211.336C123.78 211.336 125.015 209.75 125.015 207.267C125.015 204.784 123.78 203.198 122.051 203.198ZM122.051 204.16C123.182 204.16 123.988 205.382 123.988 207.267C123.988 209.165 123.182 210.387 122.051 210.387C120.907 210.387 120.101 209.165 120.101 207.267C120.101 205.382 120.907 204.16 122.051 204.16ZM131.969 209.451H139.977V208.593H133.048V206.747H139.6V205.902H133.048V204.173H139.86V203.315H131.969V209.451ZM141.186 212.454V211.583H130.604V212.454H141.186ZM152.079 213.988V202.288H151.013V213.988H152.079ZM146.957 210.478V208.203H149.466V207.332H144.565V204.277H149.414V203.393H143.512V208.203H145.891V210.517C144.747 210.556 143.655 210.556 142.654 210.556L142.784 211.453C145.007 211.453 147.776 211.388 150.337 211.011L150.246 210.231C149.206 210.374 148.101 210.426 146.957 210.478ZM164.077 213.962V202.314H163.011V213.962H164.077ZM158.695 205.863V204.381H161.438V203.497H154.925V204.381H157.629V205.863C157.629 207.878 156.212 210.062 154.535 210.868L155.159 211.726C156.459 211.076 157.642 209.568 158.162 207.878C158.721 209.477 159.865 210.816 161.217 211.44L161.815 210.582C160.099 209.854 158.695 207.839 158.695 205.863ZM180.178 205.798V204.914H178.449V202.301H177.383V208.112H178.449V205.798H180.178ZM175.641 205.655C175.641 204.056 174.367 202.964 172.638 202.964C170.909 202.964 169.622 204.056 169.622 205.655C169.622 207.254 170.909 208.346 172.638 208.346C174.367 208.346 175.641 207.254 175.641 205.655ZM170.662 205.655C170.662 204.589 171.507 203.835 172.638 203.835C173.743 203.835 174.601 204.589 174.601 205.655C174.601 206.721 173.743 207.475 172.638 207.475C171.507 207.475 170.662 206.721 170.662 205.655ZM179.606 209.451H177.201V208.398H176.161V209.451H173.743V210.244H179.606V209.451ZM171.663 212.779V209.373H170.623V213.663H171.182C171.975 213.663 173.067 213.598 174.172 213.234L174.003 212.389C173.171 212.649 172.339 212.74 171.663 212.779ZM176.681 210.66C175.433 210.66 174.523 211.31 174.523 212.298C174.523 213.338 175.42 213.949 176.681 213.949C177.942 213.949 178.839 213.338 178.839 212.298C178.839 211.31 177.929 210.66 176.681 210.66ZM176.681 213.195C175.953 213.195 175.472 212.831 175.472 212.298C175.472 211.765 175.953 211.414 176.681 211.414C177.409 211.414 177.89 211.765 177.89 212.298C177.89 212.831 177.409 213.195 176.681 213.195ZM190.915 206.799L191.305 205.941C189.225 205.694 187.184 204.368 187.184 202.951V202.431H186.092V202.951C186.092 204.433 184.051 205.694 181.958 205.941L182.348 206.799C184.181 206.526 185.897 205.603 186.638 204.303C187.379 205.603 189.108 206.526 190.915 206.799ZM191.903 208.476V207.618H181.347V208.476H191.903ZM190.525 209.282H189.472V210.647H183.739V209.282H182.686V213.806H190.525V209.282ZM183.739 211.466H189.472V212.948H183.739V211.466ZM202.874 213.949V202.301H201.808V213.949H202.874ZM195.113 210.036V203.432H194.047V210.946H195.009C196.881 210.946 198.688 210.816 200.729 210.4L200.612 209.49C198.675 209.893 196.894 210.036 195.113 210.036ZM214.248 207.787H216.172V206.903H214.248V202.301H213.182V213.988H214.248V207.787ZM206.838 210.166V204.303H211.193V203.419H205.772V211.076H206.695C208.879 211.076 210.439 211.011 212.207 210.66L212.09 209.776C210.413 210.088 208.918 210.166 206.838 210.166ZM218.277 211.96H217.094V213.182H218.277V211.96Z" fill="#616161"/>
<path d="M57 82C57 80.8954 57.8954 80 59 80H180C181.105 80 182 80.8954 182 82V110C182 111.105 181.105 112 180 112H59C57.8954 112 57 111.105 57 110V82Z" fill="white"/>
<path d="M90.4139 89.422H88.9579V102.106H90.4139V89.422ZM83.6799 90.36C81.8179 90.36 80.4319 92.096 80.4319 94.812C80.4319 97.556 81.8179 99.278 83.6799 99.278C85.5699 99.278 86.9419 97.556 86.9419 94.812C86.9419 92.096 85.5699 90.36 83.6799 90.36ZM83.6799 91.662C84.7999 91.662 85.5559 92.838 85.5559 94.812C85.5559 96.842 84.7999 97.99 83.6799 97.99C82.5599 97.99 81.8179 96.842 81.8179 94.812C81.8179 92.838 82.5599 91.662 83.6799 91.662ZM103.293 89.422H101.837V102.106H103.293V89.422ZM99.4988 90.626H93.5628V98.984H99.4988V90.626ZM94.9768 91.774H98.0848V97.822H94.9768V91.774ZM116.172 89.436H114.716V102.078H116.172V89.436ZM110.432 93.09V91.886H113.246V90.696H106.162V91.886H108.976V93.09C108.976 95.232 107.674 97.64 105.714 98.522L106.54 99.67C108.024 98.97 109.158 97.444 109.718 95.694C110.32 97.332 111.44 98.69 112.91 99.348L113.708 98.214C111.734 97.36 110.432 95.204 110.432 93.09ZM132.251 89.436H130.809V92.348H128.471C128.205 90.934 126.875 89.996 125.251 89.996C123.361 89.996 121.947 91.214 121.947 92.95C121.947 94.7 123.361 95.918 125.251 95.918C126.931 95.918 128.205 94.938 128.471 93.524H130.809V96.212H132.251V89.436ZM125.251 94.728C124.131 94.728 123.333 94.014 123.333 92.95C123.333 91.872 124.131 91.186 125.251 91.186C126.371 91.186 127.155 91.872 127.155 92.95C127.155 94.014 126.329 94.728 125.251 94.728ZM130.823 96.814V98.242H125.461V96.814H124.033V101.924H132.251V96.814H130.823ZM130.823 99.362V100.762H125.461V99.362H130.823ZM146.11 99.404H141.084V97.248H145.032V96.086H137.458V94.322H144.752V90.318H136.016V91.48H143.324V93.174H136.044V97.248H139.642V99.404H134.658V100.594H146.11V99.404ZM157.701 96.562V95.4H150.379V91.718H157.603V90.542H148.937V96.562H157.701ZM159.003 99.264H147.537V100.454H159.003V99.264Z" fill="#1D1D1D"/>
<path d="M59 81H180V79H59V81ZM181 82V110H183V82H181ZM180 111H59V113H180V111ZM58 110V82H56V110H58ZM59 111C58.4477 111 58 110.552 58 110H56C56 111.657 57.3431 113 59 113V111ZM181 110C181 110.552 180.552 111 180 111V113C181.657 113 183 111.657 183 110H181ZM180 81C180.552 81 181 81.4477 181 82H183C183 80.3431 181.657 79 180 79V81ZM59 79C57.3431 79 56 80.3431 56 82H58C58 81.4477 58.4477 81 59 81V79Z" fill="#E8E8E8"/>
</svg>
