<svg width="48" height="48" viewBox="0 0 48 48" fill="none" xmlns="http://www.w3.org/2000/svg">
<circle cx="24" cy="24" r="24" fill="#FAE300"/>
<path d="M23.9988 11C15.7137 11 9 16.3348 9 22.9158C9 27.1995 11.8459 30.9531 16.1163 33.0536C15.8054 34.2311 14.9801 37.3186 14.8154 37.9784C14.6125 38.7983 15.1145 38.7874 15.4433 38.5664C15.7013 38.3938 19.5544 35.7624 21.2167 34.6262C22.1385 34.7635 23.0692 34.8324 24.0012 34.8324C32.2863 34.8324 39 29.496 39 22.9158C39 16.3356 32.2839 11 24.0012 11" fill="#391B1B"/>
<path d="M17.9621 19.4067H13.5752C13.3773 19.4067 13.1875 19.4857 13.0476 19.6263C12.9077 19.7669 12.8291 19.9575 12.8291 20.1564C12.8291 20.3552 12.9077 20.5458 13.0476 20.6864C13.1875 20.827 13.3773 20.906 13.5752 20.906H15.0012V26.1861C15.002 26.3799 15.079 26.5655 15.2154 26.7025C15.3518 26.8396 15.5365 26.9169 15.7294 26.9177H15.8887C16.0814 26.9169 16.266 26.8395 16.4022 26.7024C16.5383 26.5654 16.6149 26.3797 16.6153 26.1861V20.906H17.9621C18.16 20.906 18.3498 20.827 18.4897 20.6864C18.6296 20.5458 18.7082 20.3552 18.7082 20.1564C18.7082 19.9575 18.6296 19.7669 18.4897 19.6263C18.3498 19.4857 18.16 19.4067 17.9621 19.4067V19.4067Z" fill="#FAE300"/>
<path d="M28.5049 25.5074H26.4649V20.1148C26.4682 20.0059 26.4498 19.8974 26.4106 19.7958C26.3715 19.6942 26.3124 19.6015 26.2369 19.5233C26.1614 19.4451 26.071 19.3828 25.9712 19.3404C25.8713 19.2979 25.7639 19.276 25.6555 19.276C25.547 19.276 25.4397 19.2979 25.3398 19.3404C25.2399 19.3828 25.1496 19.4451 25.0741 19.5233C24.9986 19.6015 24.9395 19.6942 24.9003 19.7958C24.8612 19.8974 24.8427 20.0059 24.8461 20.1148V25.9275C24.8469 25.9713 24.8513 26.0149 24.8593 26.0579C24.8506 26.1006 24.8461 26.144 24.8461 26.1875C24.846 26.277 24.8634 26.3656 24.8975 26.4482C24.9315 26.5309 24.9814 26.606 25.0443 26.6692C25.1073 26.7325 25.182 26.7826 25.2643 26.8168C25.3466 26.851 25.4347 26.8685 25.5238 26.8684H28.5049C28.6805 26.8625 28.847 26.7881 28.9691 26.6612C29.0913 26.5342 29.1596 26.3645 29.1596 26.1879C29.1596 26.0113 29.0913 25.8416 28.9691 25.7147C28.847 25.5877 28.6805 25.5134 28.5049 25.5074V25.5074Z" fill="#FAE300"/>
<path d="M35.0242 25.7549L32.7511 22.7549L34.8051 20.6903C34.8714 20.6237 34.924 20.5446 34.9599 20.4575C34.9958 20.3704 35.0143 20.277 35.0143 20.1828C35.0143 20.0885 34.9958 19.9952 34.9599 19.9081C34.924 19.821 34.8714 19.7419 34.8051 19.6752C34.7387 19.6086 34.66 19.5557 34.5733 19.5196C34.4866 19.4836 34.3938 19.465 34.2999 19.465C34.2061 19.465 34.1132 19.4836 34.0266 19.5196C33.9399 19.5557 33.8611 19.6086 33.7948 19.6752L31.252 22.2302V20.1148C31.2553 20.0059 31.2369 19.8974 31.1977 19.7958C31.1586 19.6942 31.0995 19.6015 31.024 19.5233C30.9485 19.4451 30.8581 19.3828 30.7583 19.3404C30.6584 19.2979 30.551 19.276 30.4426 19.276C30.3341 19.276 30.2268 19.2979 30.1269 19.3404C30.027 19.3828 29.9367 19.4451 29.8612 19.5233C29.7857 19.6015 29.7266 19.6942 29.6875 19.7958C29.6483 19.8974 29.6298 20.0059 29.6332 20.1148V26.1063C29.6397 26.3176 29.7279 26.5181 29.8789 26.6653C30.03 26.8125 30.2322 26.8948 30.4426 26.8948C30.653 26.8948 30.8552 26.8125 31.0063 26.6653C31.1573 26.5181 31.2455 26.3176 31.252 26.1063V24.2573L31.7144 23.7934L33.8647 26.6287C33.9801 26.7832 34.1517 26.8853 34.342 26.9126C34.5323 26.94 34.7255 26.8902 34.8793 26.7743C35.0331 26.6585 35.1347 26.486 35.1619 26.2948C35.1891 26.1036 35.1396 25.9094 35.0242 25.7549Z" fill="#FAE300"/>
<path d="M24.2403 25.9493L22.0534 19.9368L22.0464 19.9305C21.9066 19.5643 21.5024 19.2972 21.0222 19.2972C20.4883 19.2972 20.0469 19.6252 19.959 20.0539C19.9434 20.0861 19.9297 20.1192 19.9179 20.1531L17.7714 25.9493C17.7315 26.0412 17.7109 26.1403 17.7109 26.2405C17.7109 26.3407 17.7315 26.4398 17.7713 26.5317C17.8112 26.6235 17.8695 26.7061 17.9425 26.7743C18.0156 26.8425 18.1019 26.8948 18.196 26.928C18.2901 26.9612 18.39 26.9745 18.4895 26.9671C18.5889 26.9597 18.6858 26.9318 18.774 26.8851C18.8622 26.8384 18.9399 26.7739 19.0022 26.6956C19.0645 26.6174 19.1101 26.5271 19.1361 26.4303L19.5075 25.3637H22.5003L22.8718 26.4303C22.9356 26.6127 23.0688 26.7621 23.2423 26.8457C23.4157 26.9293 23.6151 26.9403 23.7966 26.8762C23.978 26.8121 24.1268 26.6782 24.21 26.5039C24.2932 26.3297 24.3041 26.1293 24.2403 25.947V25.9493ZM19.9824 24.0042L20.988 21.1205C20.9996 21.1205 21.009 21.1205 21.0206 21.1205L22.0247 24.0003L19.9824 24.0042Z" fill="#FAE300"/>
</svg>
