<svg width="24" height="24" viewBox="0 0 24 24" fill="none" xmlns="http://www.w3.org/2000/svg">
<path d="M11.9564 0C15.3164 0 18.1964 1.13455 20.5091 3.44727C22.8218 5.76 24 8.59636 24 11.9564C24 15.3164 22.8655 18.1091 20.5527 20.3782C18.1091 22.7782 15.2727 24 11.9564 24C8.68364 24 5.89091 22.8218 3.53455 20.4655C1.17818 18.0655 0 15.2727 0 12C0 8.72727 1.17818 5.89091 3.53455 3.49091C5.84727 1.13455 8.64 0 11.9564 0ZM2.70545 8.77091C2.35636 9.73091 2.18182 10.8218 2.18182 12C2.18182 14.6618 3.14182 16.9745 5.10545 18.8945C7.06909 20.8145 9.38182 21.7745 12.0436 21.7745C14.7491 21.7745 17.0618 20.8145 19.0255 18.8509C19.7236 18.1964 20.2909 17.4982 20.6836 16.7564L16.1455 14.7491C15.9709 15.4909 15.6218 16.1018 15.0109 16.5818C14.4 17.0618 13.7018 17.3236 12.8727 17.4109V19.2436H11.4764V17.4109C10.1673 17.4109 8.94545 16.9309 7.85455 15.9709L9.51273 14.3127C10.2982 15.0545 11.1709 15.4036 12.1745 15.4036C12.5673 15.4036 12.96 15.3164 13.2218 15.1418C13.5273 14.9673 13.6582 14.6618 13.6582 14.2255C13.6582 13.92 13.5709 13.7018 13.3527 13.4836L12.2182 13.0036L10.8218 12.3491L8.90182 11.52L2.70545 8.77091ZM12 2.13818C9.29455 2.13818 6.98182 3.09818 5.10545 5.01818C4.62545 5.49818 4.18909 6.02182 3.79636 6.63273L8.37818 8.68364C8.59636 8.07273 8.94545 7.54909 9.51273 7.15636C10.08 6.76364 10.7345 6.58909 11.4764 6.54545V4.71273H12.8727V6.54545C13.9636 6.58909 14.9673 6.98182 15.8836 7.68L14.3127 9.29455C13.6582 8.81454 12.96 8.59636 12.2618 8.59636C11.8691 8.59636 11.5636 8.68364 11.2582 8.81455C10.9527 8.94545 10.8218 9.20727 10.8218 9.55636C10.8218 9.64364 10.8655 9.77455 10.9091 9.86182L12.4364 10.56L13.4836 11.04L15.4036 11.9127L21.5564 14.6618C21.7745 13.8327 21.8618 12.96 21.8618 12.0873C21.8618 9.33818 20.9018 7.02545 18.9818 5.14909C17.0618 3.09818 14.7491 2.13818 12 2.13818Z" fill="#A8A8A8"/>
</svg>
