<svg width="24" height="24" viewBox="0 0 24 24" fill="none" xmlns="http://www.w3.org/2000/svg">
<path d="M11.9564 0C15.3164 0 18.1527 1.17818 20.5091 3.49091C22.8218 5.80364 24 8.64 24 12C24 15.36 22.8655 18.1527 20.5527 20.4218C18.1527 22.7782 15.2727 24 11.9564 24C8.72727 24 5.89091 22.8218 3.53455 20.4655C1.17818 18.1091 0 15.2727 0 12C0 8.72727 1.17818 5.89091 3.53455 3.49091C5.84727 1.17818 8.68364 0 11.9564 0ZM12 2.18182C9.29455 2.18182 6.98182 3.14182 5.10545 5.06182C3.14182 7.02545 2.18182 9.33818 2.18182 12C2.18182 14.6618 3.14182 16.9745 5.10545 18.8945C7.02545 20.8145 9.33818 21.8182 12.0436 21.8182C14.7055 21.8182 17.0182 20.8582 19.0255 18.8945C20.8582 17.0182 21.8182 14.7491 21.8182 12C21.8182 9.25091 20.8582 6.93818 18.9382 5.06182C17.0618 3.14182 14.7491 2.18182 12 2.18182ZM16.5382 9.16364V11.2145H7.81091V9.16364H16.5382ZM16.5382 13.0036V15.0545H7.81091V13.0036H16.5382Z" fill="#A8A8A8"/>
</svg>
