<svg width="24" height="24" viewBox="0 0 24 24" fill="none" xmlns="http://www.w3.org/2000/svg">
<path d="M11.9564 0C15.3164 0 18.1527 1.17818 20.5091 3.49091C22.8218 5.80364 24 8.64 24 12C24 15.36 22.8655 18.1527 20.5527 20.4218C18.1527 22.7782 15.2727 24 11.9564 24C8.72727 24 5.89091 22.8218 3.53455 20.4655C1.17818 18.1091 0 15.2727 0 12C0 8.72727 1.17818 5.89091 3.53455 3.49091C5.84727 1.17818 8.68364 0 11.9564 0ZM12 2.18182C9.29455 2.18182 6.98182 3.14182 5.10545 5.06182C3.14182 7.02545 2.18182 9.33818 2.18182 12C2.18182 14.6618 3.14182 16.9745 5.10545 18.8945C7.02545 20.8145 9.33818 21.8182 12.0436 21.8182C14.7055 21.8182 17.0182 20.8582 19.0255 18.8945C20.8582 17.0182 21.8182 14.7491 21.8182 12C21.8182 9.25091 20.8582 6.93818 18.9382 5.06182C17.0618 3.14182 14.7491 2.18182 12 2.18182ZM6.67636 10.2982C6.89455 8.81455 7.50545 7.68 8.46545 6.89455C9.42545 6.10909 10.6036 5.67273 11.9564 5.67273C13.8327 5.67273 15.36 6.28364 16.4509 7.50546C17.5855 8.72727 18.1091 10.2545 18.1091 12.1745C18.1091 14.0073 17.5418 15.5345 16.3636 16.7564C15.2291 17.9782 13.7018 18.5891 11.8691 18.5891C10.5164 18.5891 9.33818 18.1964 8.37818 17.3673C7.37455 16.5382 6.80727 15.4036 6.58909 13.92H9.6C9.68727 15.36 10.56 16.1018 12.2182 16.1018C13.0473 16.1018 13.7455 15.7527 14.2691 15.0109C14.7927 14.2691 15.0545 13.3091 15.0545 12.0873C15.0545 10.8218 14.8364 9.86182 14.3564 9.20727C13.8764 8.55273 13.2218 8.20364 12.3055 8.20364C10.6909 8.20364 9.81818 8.90182 9.6 10.3418H10.4727L8.07273 12.6545L5.71636 10.2982H6.67636Z" fill="#A8A8A8"/>
</svg>
