<svg width="32" height="32" viewBox="0 0 32 32" fill="none" xmlns="http://www.w3.org/2000/svg">
<mask id="mask0_535_47527" style="mask-type:alpha" maskUnits="userSpaceOnUse" x="0" y="0" width="32" height="32">
<circle cx="16" cy="16" r="16" fill="#B0BEC5"/>
</mask>
<g mask="url(#mask0_535_47527)">
<path fill-rule="evenodd" clip-rule="evenodd" d="M33.6008 -3.20117H-3.19922V33.5988H33.6008V-3.20117ZM11.61 26.6C12.7393 26.6493 13.0893 26.6646 15.9948 26.6646C18.8921 26.6646 19.2629 26.6646 20.3941 26.5995C21.2791 26.5816 22.1546 26.414 22.9835 26.1039C24.4145 25.5487 25.5464 24.4192 26.1035 22.9907C26.4152 22.1621 26.5834 21.2865 26.601 20.4015C26.6508 19.2814 26.6674 18.9029 26.6674 16.0168C26.6674 13.1308 26.6674 12.7605 26.601 11.6274C26.5875 10.7311 26.4188 9.84393 26.1023 9.00508C25.5466 7.57609 24.4147 6.44629 22.9835 5.8919C22.1534 5.58 21.2761 5.41199 20.3894 5.39511L20.3698 5.39427C19.2659 5.34644 18.9152 5.33124 15.9948 5.33124C13.1057 5.33124 12.7338 5.33124 11.6025 5.39511C10.7181 5.41185 9.84309 5.57987 9.01553 5.8919C7.58385 6.44566 6.45178 7.57568 5.89667 9.00508C5.58588 9.83188 5.41805 10.7054 5.40036 11.5884L5.40031 11.5893C5.34941 12.7182 5.33402 13.0595 5.33402 15.9766C5.33402 18.8639 5.33402 19.2353 5.40036 20.3684C5.41767 21.2526 5.5855 22.1273 5.89667 22.9553C6.45238 24.3828 7.58262 25.5118 9.01198 26.0672C9.83811 26.3904 10.7134 26.5704 11.6002 26.5995L11.61 26.6ZM11.6422 7.26793C12.7594 7.2177 13.0719 7.20365 15.9545 7.20365C18.8376 7.20365 19.1373 7.20365 20.2828 7.2687C20.9585 7.27641 21.6277 7.40087 22.2609 7.63656C23.1908 7.99766 23.9259 8.73253 24.2865 9.66154C24.5197 10.2938 24.6442 10.9608 24.6548 11.6345C24.7058 12.7641 24.7188 13.0681 24.7188 15.9577C24.7188 18.8473 24.7188 19.1489 24.6679 20.2797H24.6548C24.6472 20.9614 24.5226 21.6367 24.2865 22.2763C23.9251 23.204 23.1901 23.9374 22.2609 24.2978C21.6276 24.533 20.9584 24.6574 20.2828 24.6656L20.2769 24.6659C19.1599 24.7177 18.8551 24.7318 15.9545 24.7318C13.0737 24.7318 12.7717 24.7318 11.625 24.6656C10.9497 24.6583 10.2807 24.5338 9.64807 24.2978C8.71359 23.9405 7.97395 23.2054 7.61187 22.2739C7.37863 21.6409 7.25408 20.9731 7.24348 20.2986C7.19136 19.1596 7.1807 18.8154 7.1807 15.9766C7.1807 13.1035 7.1807 12.8031 7.24348 11.657C7.2506 10.9756 7.37521 10.3006 7.61187 9.66154C7.97342 8.72947 8.71318 7.99378 9.64807 7.63656C10.2812 7.40205 10.9498 7.27763 11.625 7.2687L11.6422 7.26793ZM10.9331 18.0672C11.7819 20.1103 13.7797 21.4415 15.9948 21.4401C19.0166 21.4342 21.464 18.9881 21.4673 15.9707C21.4668 13.7588 20.1319 11.7651 18.0852 10.9193C16.0384 10.0735 13.683 10.5423 12.1174 12.107C10.5518 13.6717 10.0843 16.0241 10.9331 18.0672ZM12.4412 15.9683C12.4412 14.0086 14.0322 12.4199 15.9948 12.4199C17.9555 12.4244 19.5438 14.0105 19.5483 15.9683C19.5483 17.9281 17.9574 19.5168 15.9948 19.5168C14.0322 19.5168 12.4412 17.9281 12.4412 15.9683ZM20.4083 10.2991C20.407 11.0024 20.9762 11.5739 21.6805 11.5765C22.0203 11.5775 22.3465 11.4433 22.587 11.2036C22.8275 10.9639 22.9625 10.6384 22.9622 10.2991C22.9608 9.5958 22.3895 9.02638 21.6852 9.02638C20.9809 9.02638 20.4096 9.59581 20.4083 10.2991Z" fill="#616161"/>
</g>
</svg>
