<svg width="40" height="26" viewBox="0 0 40 26" fill="none" xmlns="http://www.w3.org/2000/svg">
<path d="M7 13.0778C7.00151 19.5121 11.6518 24.9907 17.9677 25.9991V16.8578H14.6697V13.0778H17.9716V10.2003C17.824 8.83678 18.2869 7.47788 19.2347 6.49212C20.1825 5.50637 21.5171 4.99593 22.8763 5.09924C23.852 5.11509 24.8252 5.20252 25.7882 5.36083V8.5771H24.1451C23.5794 8.50255 23.0107 8.69053 22.5992 9.08807C22.1876 9.48562 21.9778 10.0497 22.0288 10.6214V13.0778H25.631L25.0551 16.8591H22.0288V25.9991C28.8594 24.913 33.6492 18.6363 32.9283 11.7163C32.2073 4.79627 26.228 -0.344574 19.322 0.018056C12.4161 0.380686 7.0011 6.11985 7 13.0778Z" fill="#1D1D1D"/>
</svg>
