<svg width="40" height="26" viewBox="0 0 40 26" fill="none" xmlns="http://www.w3.org/2000/svg">
<g clip-path="url(#clip0_1839_19009)">
<path fill-rule="evenodd" clip-rule="evenodd" d="M20.0006 26.0012C27.1806 26.0012 33.0012 20.1806 33.0012 13.0006C33.0012 5.82057 27.1806 0 20.0006 0C12.8206 0 7 5.82057 7 13.0006C7 20.1806 12.8206 26.0012 20.0006 26.0012ZM19.9942 18.1989H20.0098C20.2093 18.1989 24.9114 18.1959 26.0961 17.8968C26.7665 17.7243 27.2906 17.2263 27.4732 16.5882C27.6954 15.4098 27.8045 14.2145 27.799 13.0172C27.8144 11.815 27.7081 10.6142 27.4818 9.43139C27.3006 8.79387 26.7778 8.29575 26.1085 8.1228C24.9012 7.80734 20.0542 7.79843 20.0051 7.79843H19.9887C19.7892 7.79843 15.0879 7.79843 13.9017 8.09533C13.232 8.27789 12.7105 8.77933 12.5253 9.41878C12.3034 10.5987 12.1946 11.7955 12.2003 12.9942C12.1914 14.191 12.2974 15.386 12.5167 16.5645C12.697 17.2033 13.2208 17.7025 13.8915 17.8746C15.1113 18.19 19.9459 18.1989 19.9942 18.1989ZM18.4471 15.2247L18.451 10.7712L22.5093 12.9979L18.4471 15.2247Z" fill="#1D1D1D"/>
</g>
<defs>
<clipPath id="clip0_1839_19009">
<rect width="40" height="26" fill="white"/>
</clipPath>
</defs>
</svg>
