<svg width="40" height="26" viewBox="0 0 40 26" fill="none" xmlns="http://www.w3.org/2000/svg">
<path fill-rule="evenodd" clip-rule="evenodd" d="M20 26C27.1797 26 33 20.1797 33 13C33 5.8203 27.1797 0 20 0C12.8203 0 7 5.8203 7 13C7 20.1797 12.8203 26 20 26ZM28.6341 8.03352C28.3757 8.7942 27.8338 9.43983 27.1096 9.84985C27.7967 9.77251 28.4677 9.59818 29.1003 9.33265C28.6348 9.99227 28.0487 10.568 27.3697 11.0327C27.3767 11.1735 27.3802 11.315 27.3802 11.4573C27.3984 13.9402 26.365 16.3264 24.5111 18.0822C22.6572 19.838 20.1374 20.8169 17.5156 20.7998C15.631 20.8016 13.7857 20.2895 12.2003 19.3247C12.4751 19.3552 12.7516 19.3702 13.0284 19.3699C14.5897 19.3723 16.1064 18.8772 17.3346 17.9644C15.8517 17.9371 14.5507 17.0212 14.0956 15.6844C14.6153 15.7787 15.1508 15.7593 15.6614 15.6278C14.0434 15.318 12.88 13.9715 12.8797 12.4083V12.367C13.3609 12.6207 13.8991 12.7619 14.4495 12.7786C12.9274 11.8137 12.4579 9.89531 13.3766 8.39465C15.137 10.4458 17.7342 11.6928 20.5218 11.8253C20.1716 10.3789 20.8872 8.8895 22.2688 8.18934C23.6505 7.48918 25.356 7.75161 26.4325 8.82998C27.209 8.68529 27.9536 8.41592 28.6341 8.03352Z" fill="#1D1D1D"/>
</svg>
