<svg width="40" height="26" viewBox="0 0 40 26" fill="none" xmlns="http://www.w3.org/2000/svg">
<g clip-path="url(#clip0_1839_18999)">
<mask id="mask0_1839_18999" style="mask-type:alpha" maskUnits="userSpaceOnUse" x="7" y="-1" width="27" height="27">
<circle cx="20.0006" cy="12.9947" r="13.0006" fill="#CFD8DC"/>
</mask>
<g mask="url(#mask0_1839_18999)">
<path fill-rule="evenodd" clip-rule="evenodd" d="M34.3008 -2.60547H4.39941V27.2959H34.3008V-2.60547ZM16.4334 21.6117C17.3509 21.6518 17.6353 21.6642 19.9961 21.6642C22.3503 21.6642 22.6516 21.6642 23.5707 21.6113C24.2898 21.5968 25.0012 21.4606 25.6747 21.2086C26.8374 20.7575 27.7572 19.8398 28.2099 18.6791C28.4631 18.0058 28.5998 17.2943 28.6141 16.5752C28.6545 15.6651 28.668 15.3576 28.668 13.0125C28.668 10.6675 28.668 10.3666 28.6141 9.44592C28.6031 8.71766 28.466 7.99679 28.2089 7.31519C27.7573 6.15408 26.8377 5.23608 25.6747 4.78561C25.0002 4.53218 24.2874 4.39567 23.5669 4.38196L23.551 4.38127C22.6541 4.34241 22.3691 4.33006 19.9961 4.33006C17.6486 4.33006 17.3464 4.33006 16.4273 4.38196C15.7086 4.39555 14.9976 4.53208 14.3252 4.78561C13.1619 5.23557 12.2421 6.15375 11.791 7.31519C11.5385 7.987 11.4021 8.69677 11.3877 9.4142L11.3877 9.41501C11.3464 10.3322 11.3338 10.6095 11.3338 12.9798C11.3338 15.3258 11.3338 15.6276 11.3877 16.5483C11.4018 17.2667 11.5382 17.9775 11.791 18.6502C12.2426 19.8101 13.1609 20.7275 14.3223 21.1789C14.9936 21.4414 15.7048 21.5877 16.4253 21.6113L16.4334 21.6117ZM16.4595 5.90369C17.3672 5.86287 17.6211 5.85146 19.9634 5.85146C22.306 5.85146 22.5495 5.85146 23.4803 5.90431C24.0293 5.91058 24.5731 6.01171 25.0876 6.20321C25.8432 6.49662 26.4405 7.09373 26.7334 7.84859C26.9229 8.3623 27.0241 8.9043 27.0327 9.45168C27.0741 10.3695 27.0847 10.6165 27.0847 12.9645C27.0847 15.3124 27.0847 15.5575 27.0433 16.4763H27.0327C27.0266 17.0301 26.9253 17.5789 26.7334 18.0986C26.4398 18.8523 25.8426 19.4483 25.0876 19.7411C24.573 19.9322 24.0293 20.0333 23.4803 20.04L23.4755 20.0402C22.5679 20.0823 22.3203 20.0938 19.9634 20.0938C17.6226 20.0938 17.3772 20.0938 16.4455 20.04C15.8968 20.034 15.3532 19.9329 14.8392 19.7411C14.0799 19.4508 13.4789 18.8535 13.1847 18.0966C12.9952 17.5823 12.894 17.0396 12.8854 16.4916C12.843 15.5661 12.8343 15.2864 12.8343 12.9798C12.8343 10.6454 12.8343 10.4012 12.8854 9.46994C12.8911 8.91634 12.9924 8.36786 13.1847 7.84859C13.4785 7.09125 14.0795 6.49347 14.8392 6.20321C15.3536 6.01267 15.8969 5.91157 16.4455 5.90431L16.4595 5.90369ZM15.8833 14.6785C16.573 16.3386 18.1963 17.4202 19.9961 17.4191C22.4514 17.4143 24.4401 15.4268 24.4427 12.975C24.4423 11.1778 23.3577 9.55778 21.6946 8.87055C20.0316 8.18331 18.1177 8.56421 16.8456 9.8356C15.5735 11.107 15.1937 13.0184 15.8833 14.6785ZM17.1087 12.9731C17.1087 11.3807 18.4014 10.0898 19.9961 10.0898C21.5892 10.0935 22.8798 11.3823 22.8835 12.9731C22.8835 14.5655 21.5908 15.8564 19.9961 15.8564C18.4014 15.8564 17.1087 14.5655 17.1087 12.9731ZM23.5823 8.36662C23.5812 8.93807 24.0437 9.40247 24.616 9.40459C24.8921 9.40536 25.1571 9.29631 25.3525 9.10154C25.5479 8.90677 25.6576 8.64232 25.6574 8.36662C25.6563 7.79517 25.1921 7.3325 24.6198 7.3325C24.0476 7.3325 23.5833 7.79518 23.5823 8.36662Z" fill="#1D1D1D"/>
</g>
</g>
<defs>
<clipPath id="clip0_1839_18999">
<rect width="40" height="26" fill="white"/>
</clipPath>
</defs>
</svg>
