<svg width="32" height="32" viewBox="0 0 32 32" fill="none" xmlns="http://www.w3.org/2000/svg">
<path fill-rule="evenodd" clip-rule="evenodd" d="M16 32C24.8366 32 32 24.8366 32 16C32 7.16344 24.8366 0 16 0C7.16344 0 0 7.16344 0 16C0 24.8366 7.16344 32 16 32ZM26.6259 9.88775C26.3079 10.824 25.6409 11.6186 24.7495 12.1232C25.5952 12.028 26.4211 11.8135 27.1996 11.4867C26.6267 12.2985 25.9054 13.0071 25.0697 13.579C25.0783 13.7523 25.0826 13.9265 25.0826 14.1016C25.1051 17.1575 23.8332 20.0944 21.5514 22.2554C19.2697 24.4163 16.1685 25.6211 12.9415 25.6001C10.6221 25.6023 8.35096 24.972 6.39964 23.7846C6.73793 23.8221 7.07826 23.8406 7.41886 23.8402C9.34043 23.8431 11.2072 23.2339 12.7188 22.1103C10.8937 22.0767 9.29243 20.9495 8.73241 19.3042C9.37198 19.4203 10.0311 19.3964 10.6595 19.2346C8.66814 18.8533 7.23629 17.196 7.2359 15.2721V15.2212C7.82806 15.5335 8.49049 15.7072 9.16793 15.7279C7.29452 14.5402 6.71668 12.1792 7.84743 10.3322C10.0141 12.8567 13.2106 14.3914 16.6415 14.5546C16.2105 12.7744 17.0913 10.9413 18.7917 10.0795C20.4922 9.21779 22.5914 9.54078 23.9163 10.868C24.8719 10.6899 25.7883 10.3584 26.6259 9.88775Z" fill="#616161"/>
</svg>
