<svg width="24" height="24" viewBox="0 0 24 24" fill="none" xmlns="http://www.w3.org/2000/svg">
<path fill-rule="evenodd" clip-rule="evenodd" d="M6.00008 5C5.4478 5 5.00008 5.44772 5.00008 6V7.98693L5 8V11H17C17.2047 11 17.3887 11.1248 17.4645 11.3149L19.8239 17.2368C19.9261 17.4933 19.801 17.7842 19.5444 17.8864C19.2879 17.9886 18.9971 17.8635 18.8949 17.6069L16.661 12H5H3.48538C2.7757 12 2.29186 12.7186 2.55884 13.3762L4.58891 18.3762C4.74203 18.7533 5.10844 19 5.51546 19H6H6.00008H17.5148H20H20.0001C20.5524 19 21.0001 18.5523 21.0001 18V8C21.0001 7.44772 20.5524 7 20.0001 7H20H12.1112L11.4862 5.59386C11.3257 5.23273 10.9676 5 10.5724 5H6.00008Z" fill="#1D1D1D"/>
</svg>
