<svg width="32" height="32" viewBox="0 0 32 32" fill="none" xmlns="http://www.w3.org/2000/svg">
<path fill-rule="evenodd" clip-rule="evenodd" d="M16 32C24.8366 32 32 24.8366 32 16C32 7.16344 24.8366 0 16 0C7.16344 0 0 7.16344 0 16C0 24.8366 7.16344 32 16 32ZM15.9923 22.4004H16.0115C16.2571 22.4004 22.044 22.3967 23.502 22.0286C24.3271 21.8163 24.9721 21.2033 25.1969 20.4181C25.4704 18.9677 25.6046 17.4967 25.5979 16.0232C25.6167 14.5436 25.486 13.0658 25.2075 11.6101C24.9844 10.8255 24.3411 10.2124 23.5173 9.99956C22.0315 9.61132 16.0662 9.60036 16.0058 9.60036H15.9856C15.7401 9.60036 9.95413 9.60036 8.49422 9.96576C7.67009 10.1904 7.02827 10.8076 6.80026 11.5945C6.52717 13.0467 6.39329 14.5196 6.40027 15.9949C6.38941 17.4678 6.51976 18.9385 6.7897 20.3888C7.01162 21.1751 7.65627 21.7894 8.48175 22.0012C9.98291 22.3894 15.9329 22.4004 15.9923 22.4004ZM14.0883 18.74L14.0931 13.2589L19.0877 15.9994L14.0883 18.74Z" fill="#616161"/>
</svg>
