<svg width="48" height="48" viewBox="0 0 48 48" fill="none" xmlns="http://www.w3.org/2000/svg">
<path fill-rule="evenodd" clip-rule="evenodd" d="M24 48C37.2548 48 48 37.2548 48 24C48 10.7452 37.2548 0 24 0C10.7452 0 0 10.7452 0 24C0 37.2548 10.7452 48 24 48ZM39.9387 14.8316C39.4617 16.236 38.4613 17.4279 37.1242 18.1848C38.3927 18.0421 39.6315 17.7202 40.7993 17.23C39.9399 18.4478 38.858 19.5106 37.6045 20.3685C37.6174 20.6284 37.6239 20.8897 37.6239 21.1524C37.6575 25.7363 35.7496 30.1416 32.327 33.3831C28.9044 36.6245 24.2526 38.4316 19.4122 38.4001C15.933 38.4035 12.5263 37.458 9.59935 35.6769C10.1068 35.7331 10.6173 35.7609 11.1282 35.7602C14.0105 35.7647 16.8107 34.8508 19.0781 33.1655C16.3404 33.1151 13.9385 31.4243 13.0985 28.9563C14.0579 29.1304 15.0465 29.0947 15.9891 28.8518C13.0021 28.2799 10.8543 25.794 10.8537 22.9081V22.8319C11.742 23.3003 12.7356 23.5608 13.7518 23.5918C10.9417 21.8103 10.0749 18.2688 11.771 15.4983C15.021 19.285 19.8158 21.5872 24.9622 21.8318C24.3156 19.1615 25.6368 16.4119 28.1875 15.1193C30.7382 13.8267 33.8869 14.3112 35.8743 16.302C37.3077 16.0349 38.6823 15.5376 39.9387 14.8316Z" fill="#1EA1F2"/>
</svg>
