<svg width="128" height="128" viewBox="0 0 128 128" fill="none" xmlns="http://www.w3.org/2000/svg">
<rect width="128" height="128" fill="#1D1D1D"/>
<path d="M81.2754 80H34.3674L30 92.0008H76.908L81.2754 80Z" fill="white"/>
<path d="M92.0125 48.4952C88.2828 48.4952 85.2617 45.4741 85.2617 41.7444C85.2682 38.0211 88.2893 35 92.0125 35C95.7423 35 98.7634 38.0211 98.7634 41.7508C98.7634 45.4741 95.7423 48.4952 92.0125 48.4952Z" fill="white"/>
<path d="M72.7713 35H50.7473L46.3799 47.0008H68.4038L72.7713 35Z" fill="white"/>
<path d="M67.3103 50.0059H45.2864L40.9189 62.0066H62.9429L67.3103 50.0059Z" fill="white"/>
<path d="M86.7393 64.9941H39.8313L35.4639 76.9949H82.3719L86.7393 64.9941Z" fill="white"/>
</svg>
