<svg width="112" height="112" viewBox="0 0 112 112" fill="none" xmlns="http://www.w3.org/2000/svg">
<path d="M56 0C25.088 0 0 25.088 0 56C0 86.912 25.088 112 56 112C86.912 112 112 86.912 112 56C112 25.088 86.912 0 56 0ZM56 16.8C65.296 16.8 72.8 24.304 72.8 33.6C72.8 42.896 65.296 50.4 56 50.4C46.704 50.4 39.2 42.896 39.2 33.6C39.2 24.304 46.704 16.8 56 16.8ZM56 96.32C42 96.32 29.624 89.152 22.4 78.288C22.568 67.144 44.8 61.04 56 61.04C67.144 61.04 89.432 67.144 89.6 78.288C82.376 89.152 70 96.32 56 96.32Z" fill="#E8E8E8"/>
</svg>
