<svg width="26" height="26" viewBox="0 0 26 26" fill="none" xmlns="http://www.w3.org/2000/svg">
<path d="M12.9947 20.9963C10.8095 20.9963 10.5518 20.9847 9.69908 20.9475C9.03408 20.9256 8.37769 20.7906 7.75816 20.5483C6.68626 20.1318 5.83868 19.2851 5.42194 18.2146C5.18859 17.5937 5.06273 16.9377 5.04974 16.2747C5 15.4249 5 15.1464 5 12.9812C5 10.7929 5.01155 10.5375 5.04974 9.69036C5.06301 9.02822 5.18887 8.37315 5.42194 7.75312C5.83822 6.68118 6.68719 5.83377 7.76082 5.41849C8.38143 5.1845 9.03761 5.05849 9.70086 5.04595C10.5492 4.99805 10.8281 4.99805 12.9947 4.99805C15.1976 4.99805 15.4508 5.00958 16.2902 5.04595C16.9552 5.0586 17.6131 5.18459 18.2356 5.41849C19.3089 5.83424 20.1577 6.68149 20.5745 7.75312C20.8118 8.38218 20.9383 9.04749 20.9485 9.71963C20.9982 10.5694 20.9982 10.847 20.9982 13.0113C20.9982 15.1757 20.9858 15.4595 20.9485 16.2995C20.9352 16.9632 20.8091 17.6198 20.5754 18.2412C20.1576 19.3124 19.3087 20.1594 18.2356 20.5758C17.614 20.8084 16.9574 20.934 16.2938 20.9475C15.4455 20.9963 15.1674 20.9963 12.9947 20.9963ZM12.9645 6.40219C10.7917 6.40219 10.5661 6.41284 9.71774 6.45098C9.2114 6.45768 8.70995 6.55098 8.23517 6.72684C7.53409 6.99473 6.97932 7.54643 6.70819 8.24541C6.53072 8.72466 6.43727 9.23086 6.43193 9.7418C6.38485 10.6013 6.38485 10.8266 6.38485 12.9812C6.38485 15.11 6.39285 15.3681 6.43193 16.2223C6.43988 16.7281 6.53328 17.2289 6.70819 17.7037C6.97972 18.4022 7.53439 18.9535 8.23517 19.2213C8.70962 19.3984 9.21128 19.4917 9.71774 19.4972C10.5776 19.5469 10.8041 19.5469 12.9645 19.5469C15.1434 19.5469 15.3691 19.5362 16.2103 19.4972C16.717 19.491 17.2188 19.3977 17.6937 19.2213C18.3906 18.9511 18.9417 18.4011 19.2127 17.7054C19.3899 17.2258 19.4833 16.7193 19.489 16.2081H19.4988C19.537 15.3602 19.537 15.134 19.537 12.967C19.537 10.8 19.5272 10.572 19.489 9.72495C19.481 9.21975 19.3876 8.71953 19.2127 8.24541C18.9424 7.54872 18.3911 6.99764 17.6937 6.72684C17.2189 6.55009 16.717 6.45676 16.2103 6.45098C15.3513 6.40219 15.1266 6.40219 12.9645 6.40219ZM12.9947 17.0783C11.3335 17.0794 9.83537 16.0811 9.19885 14.5489C8.56234 13.0168 8.91286 11.2527 10.0869 10.0793C11.261 8.90587 13.0274 8.55433 14.5623 9.1886C16.0972 9.82287 17.0982 11.318 17.0986 12.9767C17.0961 15.2396 15.2608 17.0739 12.9947 17.0783ZM12.9947 10.3139C11.5229 10.3139 10.3298 11.5053 10.3298 12.975C10.3298 14.4446 11.5229 15.636 12.9947 15.636C14.4664 15.636 15.6595 14.4446 15.6595 12.975C15.6561 11.5067 14.465 10.3173 12.9947 10.3139ZM17.2585 9.68149C16.7303 9.67953 16.3035 9.25092 16.3045 8.72352C16.3054 8.19612 16.7339 7.76909 17.262 7.76909C17.7902 7.76909 18.2186 8.19611 18.2196 8.72351C18.2199 8.97796 18.1186 9.22203 17.9383 9.40179C17.7579 9.58155 17.5133 9.68219 17.2585 9.68149Z" fill="#1D1D1D"/>
</svg>
