<svg width="62" height="14" viewBox="0 0 62 14" fill="none" xmlns="http://www.w3.org/2000/svg">
<path d="M28.9402 4.53876C29.4751 4.9065 29.8975 5.43326 30.2074 6.11903C30.5173 6.80481 30.6713 7.61781 30.6713 8.55404C30.6713 9.48034 30.5173 10.2894 30.2074 10.9811C29.8975 11.6728 29.4751 12.2016 28.9402 12.5693C28.4052 12.9371 27.7993 13.1199 27.1222 13.1199C26.4945 13.1199 25.9537 12.9649 25.5036 12.6568C25.0516 12.3487 24.724 11.9273 24.5167 11.3946V13.0066H22V1.19336H24.5167V5.71154C24.722 5.17882 25.0516 4.75941 25.5036 4.4513C25.9557 4.1432 26.4945 3.98815 27.1222 3.98815C27.7993 3.98815 28.4052 4.17103 28.9402 4.53876ZM25.0102 6.96582C24.6726 7.35542 24.5029 7.88417 24.5029 8.55404C24.5029 9.21398 24.6726 9.74074 25.0102 10.1343C25.3497 10.5279 25.7839 10.7247 26.3129 10.7247C26.8518 10.7247 27.286 10.5339 27.6157 10.1502C27.9453 9.76658 28.1092 9.23386 28.1092 8.55404C28.1092 7.87224 27.9453 7.33952 27.6157 6.95787C27.286 6.57423 26.8518 6.38341 26.3129 6.38341C25.7839 6.38142 25.3497 6.57622 25.0102 6.96582Z" fill="#1D1D1D"/>
<path d="M35.6896 4.48198C36.1851 4.16195 36.722 4.00293 37.3023 4.00293V6.92494H36.5818C35.9146 6.92494 35.3975 7.07999 35.0284 7.38809C34.6592 7.69619 34.4757 8.21897 34.4757 8.95246V13.0075H31.959V4.09834H34.4757V5.77403C34.7876 5.23137 35.1942 4.80002 35.6896 4.48198Z" fill="#1D1D1D"/>
<path d="M51.5774 5.01669C52.1558 5.69253 52.4459 6.63274 52.4459 7.83534V13.0075H49.9431V8.15338C49.9431 7.58885 49.8029 7.14956 49.5226 6.83549C49.2423 6.52142 48.8633 6.36439 48.3817 6.36439C47.8823 6.36439 47.4856 6.53136 47.1974 6.8673C46.9072 7.20323 46.7631 7.67433 46.7631 8.28059V13.0055H44.2445V8.15338C44.2445 7.58885 44.1063 7.14956 43.8319 6.83549C43.5576 6.52142 43.1786 6.36439 42.6989 6.36439C42.1976 6.36439 41.8008 6.52938 41.5067 6.85934C41.2126 7.18931 41.0645 7.6624 41.0645 8.28059V13.0055H38.5479V4.09834H41.0645V5.61501C41.2797 5.11409 41.6113 4.72051 42.0574 4.43427C42.5035 4.14605 43.0266 4.00293 43.6247 4.00293C44.2524 4.00293 44.807 4.15996 45.2886 4.47403C45.7703 4.7881 46.1315 5.23733 46.3782 5.82372C46.6625 5.27112 47.0533 4.82785 47.5487 4.49788C48.0442 4.16791 48.5909 4.00293 49.191 4.00293C50.2036 4.00293 50.9991 4.34085 51.5774 5.01669Z" fill="#1D1D1D"/>
<path d="M61.1682 5.02272C61.7229 5.70452 61.9992 6.64076 61.9992 7.83342V13.0056H59.4825V8.15146C59.4825 7.55513 59.3384 7.08999 59.0483 6.75406C58.7581 6.41813 58.3732 6.25116 57.8935 6.25116C57.3823 6.25116 56.9777 6.42608 56.6796 6.77792C56.3796 7.12975 56.2315 7.62868 56.2315 8.27868V13.0036H53.7148V4.09642H56.2315V5.7244C56.4664 5.19168 56.8178 4.77226 57.2836 4.46217C57.7495 4.15407 58.2962 3.99902 58.9259 3.99902C59.8655 4.00101 60.6136 4.34092 61.1682 5.02272Z" fill="#1D1D1D"/>
<path d="M12.6406 11.0518H1.11956L0.046875 13.9993H11.5679L12.6406 11.0518Z" fill="#1D1D1D"/>
<path d="M14.2948 3.31456C13.3787 3.31456 12.6367 2.57254 12.6367 1.65649C12.6383 0.742018 13.3803 0 14.2948 0C15.2108 0 15.9529 0.742018 15.9529 1.65807C15.9529 2.57254 15.2108 3.31456 14.2948 3.31456Z" fill="#1D1D1D"/>
<path d="M10.5523 0H5.14299L4.07031 2.9475H9.47961L10.5523 0Z" fill="#1D1D1D"/>
<path d="M9.21049 3.68555H3.8012L2.72852 6.63305H8.13781L9.21049 3.68555Z" fill="#1D1D1D"/>
<path d="M13.9824 7.36719H2.46135L1.38867 10.3147H12.9097L13.9824 7.36719Z" fill="#1D1D1D"/>
</svg>
