<svg width="26" height="26" viewBox="0 0 26 26" fill="none" xmlns="http://www.w3.org/2000/svg">
<path d="M20.0331 8.90173C20.7488 8.49653 21.2843 7.85849 21.5397 7.10674C20.8671 7.48464 20.1313 7.75085 19.364 7.89385C18.3001 6.82814 16.6146 6.56879 15.2492 7.26073C13.8838 7.95266 13.1765 9.42457 13.5227 10.854C10.7678 10.723 8.20109 9.49068 6.46134 7.46362C5.5534 8.94666 6.01738 10.8425 7.52166 11.7961C6.97769 11.7795 6.44579 11.6401 5.97031 11.3893C5.97031 11.4029 5.97031 11.4165 5.97031 11.4302C5.97062 12.975 7.12034 14.3057 8.7193 14.6118C8.21475 14.7418 7.6855 14.761 7.17195 14.6678C7.62162 15.9889 8.90737 16.894 10.3729 16.921C9.1591 17.8231 7.66017 18.3123 6.11722 18.31C5.84373 18.3103 5.57046 18.2954 5.29883 18.2653C6.86566 19.2188 8.68926 19.7249 10.5517 19.7231C13.1428 19.74 15.6329 18.7726 17.4651 17.0374C19.2972 15.3023 20.3185 12.9441 20.3005 10.4903C20.3005 10.3497 20.2971 10.2098 20.2902 10.0707C20.9612 9.61142 21.5403 9.04248 22.0004 8.39061C21.3752 8.65302 20.7121 8.82531 20.0331 8.90173Z" fill="#1D1D1D"/>
</svg>
