<svg width="26" height="26" viewBox="0 0 26 26" fill="none" xmlns="http://www.w3.org/2000/svg">
<path d="M13.0086 18.9794H12.9907C12.9351 18.9794 7.37613 18.9692 5.97361 18.6065C5.20238 18.4086 4.60008 17.8347 4.39275 17.1001C4.14055 15.7451 4.01876 14.3709 4.02891 12.9948C4.02239 11.6165 4.14747 10.2404 4.40261 8.88365C4.61564 8.14839 5.21529 7.57181 5.98526 7.3619C7.34925 7.02051 12.755 7.02051 12.9844 7.02051H13.0032C13.0597 7.02051 18.633 7.03075 20.0212 7.39348C20.7908 7.59234 21.3919 8.1651 21.6003 8.89816C21.8605 10.2582 21.9827 11.639 21.965 13.0213C21.9713 14.398 21.8459 15.7724 21.5904 17.1274C21.3804 17.8611 20.7777 18.4337 20.0069 18.6321C18.6447 18.976 13.238 18.9794 13.0086 18.9794ZM11.2163 10.4387L11.2118 15.5595L15.8827 12.9991L11.2163 10.4387Z" fill="#1D1D1D"/>
</svg>
