<svg width="378" height="180" viewBox="0 0 378 180" fill="none" xmlns="http://www.w3.org/2000/svg">
<path d="M27.7406 10.6947V3.93486H18.5443V0H9.14581V3.93486H0V10.6947H27.7406ZM35.3705 26.9891V36.0695H45.0216V1.05939H35.3705V8.42463H29.1554V15.4367H35.3705V19.977H29.1554V26.9891H35.3705ZM0.656881 21.1372C0.656881 26.081 4.1434 29.8645 8.18575 29.8645H19.6054C23.6477 29.8645 27.1343 26.081 27.1343 21.1372C27.1343 16.2439 23.6477 12.4099 19.6054 12.4099H8.18575C4.1434 12.4099 0.656881 16.2439 0.656881 21.1372ZM10.9143 23.3064C9.44899 23.3064 8.58999 22.2471 8.58999 21.1372C8.58999 19.9265 9.44899 18.9176 10.9143 18.9176H17.0284C18.4937 18.9176 19.3022 19.9265 19.3022 21.1372C19.3022 22.2471 18.4937 23.3064 17.0284 23.3064H10.9143ZM45.7796 47.7732V40.2061H13.0366V32.8409H3.33494V47.7732H45.7796Z" fill="white"/>
<path d="M84.485 47.7732V26.8377H87.9716V47.7732H96.0562V1.05939H87.9716V18.6149H84.485V1.05939H76.5519V47.7732H84.485ZM50.5293 46.1084C55.6833 43.7374 59.8772 39.8026 62.2016 34.203C64.5765 39.8026 68.8209 43.7374 73.9749 46.1084V36.6749C68.5683 32.8913 66.2945 26.4846 66.2945 14.3774V10.4929H73.4191V2.72413H51.0346V10.4929H58.1592V14.3774C58.1592 26.4846 55.8854 32.8913 50.5293 36.6749V46.1084Z" fill="white"/>
<path d="M145.929 47.7732V1.05939H136.177V47.7732H145.929ZM116.672 30.823C124.504 30.823 130.921 26.8377 130.921 18.5644V13.6207C130.921 5.34737 124.504 1.10983 116.672 1.10983C108.891 1.10983 102.524 5.34737 102.524 13.6207V18.5644C102.524 26.8377 108.891 30.823 116.672 30.823ZM116.672 23.3569C113.893 23.3569 111.67 21.6922 111.67 18.968V13.1162C111.67 10.3921 113.893 8.62642 116.672 8.62642C119.552 8.62642 121.826 10.3921 121.826 13.1162V18.968C121.826 21.6922 119.552 23.3569 116.672 23.3569ZM134.56 44.6455V36.4226L100.705 38.491V46.7138L134.56 44.6455Z" fill="white"/>
<path d="M202.461 17.8077C207.11 17.8077 210.95 14.0747 210.95 9.43356C210.95 4.74201 207.11 0.908044 202.461 0.908044H176.287C171.588 0.908044 167.798 4.74201 167.798 9.43356C167.798 14.0747 171.588 17.8077 176.287 17.8077H202.461ZM178.965 11.1992C177.904 11.1992 177.095 10.4929 177.095 9.43356C177.095 8.42463 177.904 7.66792 178.965 7.66792H199.935C200.996 7.66792 201.855 8.42463 201.855 9.43356C201.855 10.4929 200.996 11.1992 199.935 11.1992H178.965ZM212.567 27.544V20.4814H166.232V27.544H212.567ZM201.147 46.4111V47.7732H210.445V30.6212H168.303V47.7732L201.147 46.4111ZM177.601 36.8262H201.147V39.9035L177.601 40.7106V36.8262Z" fill="white"/>
<path d="M231.162 27.0395C238.489 27.0395 244.502 23.3064 244.502 15.9412V12.2081C244.502 4.89335 238.489 1.05939 231.162 1.05939C223.835 1.05939 217.822 4.89335 217.822 12.2081V15.9412C217.822 23.3064 223.835 27.0395 231.162 27.0395ZM260.671 28.5025V17.8077H266.229V9.78669H260.671V1.05939H251.07V28.5025H260.671ZM231.263 20.3301C228.635 20.3301 226.715 18.9176 226.715 16.4961V11.6028C226.715 9.18133 228.635 7.76882 231.263 7.76882C233.84 7.76882 235.811 9.18133 235.811 11.6028V16.4961C235.811 18.9176 233.84 20.3301 231.263 20.3301ZM260.671 48.2776V29.9654H219.54V37.5325H250.717V48.2776H260.671Z" fill="white"/>
<path d="M312.666 47.7732V1.05939H302.863V47.7732H312.666ZM267.745 46.1084C274.213 42.8798 280.125 38.0874 283.409 31.0753C286.643 38.0874 292.605 42.8798 299.073 46.1084V35.3632C293.616 31.832 288.209 26.3333 288.209 12.0568V2.11877H278.609V12.0568C278.609 26.3333 273.152 31.832 267.745 35.3632V46.1084Z" fill="white"/>
<path d="M361.73 28.1493V18.06H367.288V10.0894H361.73V1.05939H352.129V28.1493H361.73ZM318.375 27.544C324.995 27.2413 330.502 24.9712 333.383 20.0274C336.364 24.6181 341.821 26.7368 348.339 27.0395V19.0689C342.579 18.5644 337.93 16.143 337.728 9.88759V9.63535H347.834V1.91698H318.881V9.63535H328.936V9.88759C328.683 16.1934 324.186 19.0689 318.375 19.5734V27.544ZM320.498 38.6423C320.498 44.0401 324.843 48.0254 330.3 48.0254H352.937C358.496 48.0254 362.841 44.0401 362.841 38.6423C362.841 33.194 358.496 29.2592 352.937 29.2592H330.3C324.843 29.2592 320.498 33.194 320.498 38.6423ZM332.827 40.862C331.21 40.862 330.098 40.1053 330.098 38.6423C330.098 37.1793 331.21 36.3722 332.827 36.3722H350.411C352.18 36.3722 353.291 37.1793 353.291 38.6423C353.291 40.1053 352.18 40.862 350.411 40.862H332.827Z" fill="white"/>
<path d="M373.857 49.4884L378 37.2298H369.056L367.641 49.4884H373.857Z" fill="white"/>
<path d="M64.3479 76.1523V69.796H54.5452V65.8612H44.5404V69.796H34.7883V76.1523H64.3479ZM78.1929 93.9601V83.6689H83.7512V75.6479H78.1929V66.9206H68.5924V93.9601H78.1929ZM35.4451 85.3841C35.4451 89.7225 38.6285 93.1025 42.5192 93.1025H56.5664C60.4572 93.1025 63.691 89.7225 63.691 85.3841C63.691 81.0457 60.4572 77.6153 56.5664 77.6153H42.5192C38.6285 77.6153 35.4451 81.0457 35.4451 85.3841ZM45.5005 87.0489C44.2878 87.0489 43.6309 86.1913 43.6309 85.3841C43.6309 84.5265 44.2878 83.6689 45.5005 83.6689H53.7368C54.9495 83.6689 55.6063 84.5265 55.6063 85.3841C55.6063 86.1913 54.9495 87.0489 53.7368 87.0489H45.5005ZM68.5924 112.272V113.634H78.1929V95.1708H68.5924V97.8445H47.1679V95.1708H37.5674V113.634L68.5924 112.272ZM47.1679 103.848H68.5924V106.118L47.1679 106.925V103.848Z" fill="white"/>
<path d="M130.289 113.634V66.9206H120.486V113.634H130.289ZM117.707 109.397V101.224L95.6256 102.99V93.0016H113.917V68.5349H86.025V76.5055H104.418V85.2328H86.025V112.02L117.707 109.397Z" fill="white"/>
<path d="M171.167 84.4256V95.3221H180.767V66.9206H171.167V77.4639H162.122V84.4256H171.167ZM135.897 94.8177C142.416 94.515 147.822 92.144 150.804 87.6038C153.684 92.144 159.141 94.515 165.71 94.8177V86.8471C159.747 86.3426 155.2 83.3158 155.2 76.6568V75.4965H165.204V67.7782H136.403V75.4965H146.408V76.6568C146.408 83.3158 141.809 86.3426 135.897 86.8471V94.8177ZM170.813 104.15V114.139H180.767V96.7851H138.272V104.15H170.813Z" fill="white"/>
<path d="M231.347 113.634V66.9206H221.545V113.634H231.347ZM201.03 112.777C208.862 112.777 215.178 107.732 215.178 100.417V79.9863C215.178 72.621 208.862 67.6268 201.03 67.6268C193.248 67.6268 187.033 72.621 187.033 79.9863V100.417C187.033 107.732 193.248 112.777 201.03 112.777ZM201.181 105.008C198.301 105.008 196.331 103.141 196.331 100.871V79.4818C196.331 77.3631 198.301 75.2947 201.181 75.2947C204.011 75.2947 206.032 77.3631 206.032 79.4818V100.871C206.032 103.141 204.011 105.008 201.181 105.008Z" fill="white"/>
<path d="M280.26 113.634V92.9511H285.868V84.3247H280.26V66.9206H270.659V113.634H280.26ZM268.133 109.397V101.224L247.163 102.99V93.1529H264.141V68.5349H237.562V76.5055H254.641V85.3841H237.562V112.02L268.133 109.397Z" fill="white"/>
<path d="M329.223 102.385L331.395 67.7277H288.749V75.7488H321.441L319.774 102.385H329.223ZM333.265 112.777V104.554H311.234V85.6868H301.785V104.554H286.93V112.777H333.265Z" fill="white"/>
<path d="M61.4186 160.275V149.934H64.8041V160.275H72.8887V132.782H64.8041V142.114H61.4186V132.782H53.4855V160.275H61.4186ZM27.4124 159.216C32.2632 158.056 36.7603 155.231 39.4383 150.741C42.0659 155.029 46.5124 157.551 51.3127 158.711V150.64C47.2198 148.975 43.4807 146.049 43.4807 137.473V133.084H35.2444V137.473C35.2444 146.15 31.5052 149.48 27.4124 151.144V159.216ZM29.5346 170.566C29.5346 175.813 33.8801 179.748 39.3373 179.748H63.4903C69.0485 179.748 73.394 175.813 73.394 170.566C73.394 165.219 69.0485 161.436 63.4903 161.436H39.3373C33.8801 161.436 29.5346 165.219 29.5346 170.566ZM42.0659 172.736C40.4489 172.736 39.1857 172.08 39.1857 170.566C39.1857 168.952 40.4489 168.397 42.0659 168.397H60.7617C62.5302 168.397 63.7935 168.952 63.7935 170.566C63.7935 172.08 62.5302 172.736 60.7617 172.736H42.0659Z" fill="white"/>
<path d="M121.144 159.922V149.833H126.854V141.812H121.144V132.782H111.544V159.922H121.144ZM78.2954 159.367C92.7468 159.266 106.087 154.726 106.087 138.634V133.589H78.548V140.954H97.1428C97.1428 147.613 90.8267 151.901 78.2954 152.002V159.367ZM121.144 180V161.385H80.165V168.952H111.19V180H121.144Z" fill="white"/>
<path d="M156.767 145.545V137.726H147.42V132.227H137.819V137.726H128.471V145.545H156.767ZM171.775 179.496V158.812H177.383V150.186H171.775V132.782H162.174V179.496H171.775ZM142.569 178.638C150.249 178.638 156.161 174.098 156.161 166.783V159.418C156.161 152.103 150.249 147.613 142.569 147.613C134.989 147.613 129.077 152.103 129.077 159.418V166.783C129.077 174.098 134.989 178.638 142.569 178.638ZM142.67 171.424C140.093 171.424 137.92 169.759 137.92 167.237V159.165C137.92 156.643 140.093 154.928 142.67 154.928C145.196 154.928 147.42 156.643 147.42 159.165V167.237C147.42 169.759 145.196 171.424 142.67 171.424Z" fill="white"/>
<path d="M223.82 179.496V132.782H214.017V179.496H223.82ZM178.899 177.831C185.367 174.602 191.279 169.81 194.563 162.798C197.797 169.81 203.76 174.602 210.227 177.831V167.086C204.77 163.554 199.364 158.056 199.364 143.779V133.841H189.763V143.779C189.763 158.056 184.306 163.554 178.899 167.086V177.831Z" fill="white"/>
<path d="M271.722 179.496V158.762H278.442V150.135H271.722V132.782H262.121V179.496H271.722ZM259.948 175.712V167.287L239.939 168.801V134.144H230.338V177.881L259.948 175.712Z" fill="white"/>
<path d="M311.589 160.023C319.068 160.023 324.323 154.121 324.323 146.705C324.323 139.289 319.068 133.337 311.589 133.337H293.651C286.224 133.337 280.969 139.289 280.969 146.705C280.969 154.121 286.224 160.023 293.651 160.023H311.589ZM296.279 152.305C293.045 152.305 290.771 149.934 290.771 146.705C290.771 143.527 293.045 141.206 296.279 141.206H309.063C312.297 141.206 314.571 143.527 314.571 146.705C314.571 149.934 312.297 152.305 309.063 152.305H296.279ZM325.839 178.638V170.415H316.895V161.839H307.951V170.415H297.542V161.839H288.598V170.415H279.503V178.638H325.839Z" fill="white"/>
<path d="M347.314 145.747C347.314 149.934 338.774 151.75 338.774 159.821V166.581H347.061L347.212 160.124C347.415 153.263 356.51 153.112 356.51 145.747V142.77C356.51 135.304 350.699 132.429 343.17 132.429C335.54 132.429 329.78 135.304 329.78 142.77V147.462H338.926V144.183C338.926 141.761 340.492 140.399 343.17 140.399C345.747 140.399 347.314 141.559 347.314 143.981V145.747ZM347.212 179.193V170.768H338.724V179.193H347.212Z" fill="white"/>
</svg>
