<svg width="389" height="95" viewBox="0 0 389 95" fill="none" xmlns="http://www.w3.org/2000/svg">
<path d="M20.3225 8.472C22.5545 8.472 24.3545 6.888 24.3545 4.68C24.3545 2.472 22.5545 0.888 20.3225 0.888L9.09055 0.888C6.83455 0.888 5.05855 2.472 5.05855 4.68C5.05855 6.888 6.83455 8.472 9.09055 8.472L20.3225 8.472ZM9.42655 6.456C8.29855 6.456 7.45855 5.76 7.45855 4.656C7.45855 3.576 8.29855 2.904 9.42655 2.904L19.9865 2.904C21.0905 2.904 21.9545 3.576 21.9545 4.656C21.9545 5.76 21.0905 6.456 19.9865 6.456L9.42655 6.456ZM25.6025 12.648L25.6025 10.632L3.81055 10.632L3.81055 12.648L25.6025 12.648ZM21.7145 21.864V22.584L24.1145 22.584L24.1145 14.808L5.29855 14.808L5.29855 22.584L21.7145 21.864ZM7.69855 16.824L21.7145 16.824L21.7145 19.848L7.69855 20.472L7.69855 16.824Z" fill="white"/>
<path d="M34.5545 12.624C37.9145 12.624 40.6745 10.92 40.6745 7.56L40.6745 5.736C40.6745 2.4 37.9145 0.672001 34.5545 0.672001C31.1945 0.672001 28.4345 2.4 28.4345 5.736L28.4345 7.56C28.4345 10.92 31.1945 12.624 34.5545 12.624ZM47.9226 13.416L47.9226 7.488L50.9945 7.488L50.9945 5.472L47.9226 5.472L47.9226 0.696001L45.5225 0.696001L45.5225 13.416L47.9226 13.416ZM34.5785 10.608C32.4425 10.608 30.8345 9.552 30.8345 7.464L30.8345 5.856C30.8345 3.768 32.4425 2.688 34.5785 2.688C36.6665 2.688 38.2745 3.768 38.2745 5.856L38.2745 7.464C38.2745 9.552 36.6665 10.608 34.5785 10.608ZM47.9226 22.824L47.9226 14.52L29.3465 14.52L29.3465 16.536L45.5225 16.536L45.5225 22.824L47.9226 22.824Z" fill="white"/>
<path d="M72.6185 22.584L72.6185 0.696001L70.2186 0.696001L70.2186 22.584L72.6185 22.584ZM52.0025 21.504C55.0266 19.992 58.5065 16.584 59.5385 12.84C60.5465 16.584 64.0266 19.992 67.0506 21.504L67.0506 18.912C64.4585 17.376 60.7385 13.68 60.7385 7.992L60.7385 1.32L58.3386 1.32L58.3386 7.992C58.3386 13.68 54.5945 17.376 52.0025 18.912V21.504Z" fill="white"/>
<path d="M95.9225 13.512L95.9225 7.536L98.9946 7.536V5.52L95.9225 5.52L95.9225 0.696001L93.5226 0.696001L93.5226 13.512L95.9225 13.512ZM76.1945 12.72C79.3146 12.168 82.3625 10.536 83.2025 7.536C84.0185 10.392 87.0665 11.952 90.2105 12.48L90.2105 10.272C87.3065 9.816 84.4025 7.776 84.4025 3.936V3.36L89.9706 3.36V1.344L76.4345 1.344V3.36L82.0025 3.36V3.936C82.0025 7.92 79.0985 10.032 76.1945 10.512L76.1945 12.72ZM77.2025 18.48C77.2025 20.976 79.2666 22.704 81.8826 22.704L91.8665 22.704C94.5065 22.704 96.5705 20.976 96.5705 18.48C96.5705 15.984 94.5065 14.28 91.8665 14.28L81.8826 14.28C79.2666 14.28 77.2025 15.984 77.2025 18.48ZM82.0266 20.688C80.6586 20.688 79.6026 19.824 79.6026 18.48C79.6026 17.16 80.6586 16.296 82.0266 16.296L91.7225 16.296C93.1145 16.296 94.1705 17.16 94.1705 18.48C94.1705 19.824 93.1145 20.688 91.7225 20.688L82.0266 20.688Z" fill="white"/>
<path d="M116.323 9.384C118.555 9.384 120.355 7.632 120.355 5.136C120.355 2.64 118.555 0.888 116.323 0.888L105.091 0.888C102.835 0.888 101.059 2.64 101.059 5.136C101.059 7.632 102.835 9.384 105.091 9.384L116.323 9.384ZM105.427 7.368C104.299 7.368 103.459 6.528 103.459 5.112C103.459 3.72 104.299 2.904 105.427 2.904L115.987 2.904C117.091 2.904 117.955 3.72 117.955 5.112C117.955 6.528 117.091 7.368 115.987 7.368L105.427 7.368ZM121.603 13.92L121.603 11.904L99.8105 11.904L99.8105 13.92L121.603 13.92ZM120.475 22.584L120.475 20.568L103.699 20.568V15.576L101.299 15.576L101.299 22.584L120.475 22.584Z" fill="white"/>
<path d="M144.734 4.656V2.64L139.19 2.64V0.120001L136.79 0.120001V2.64L131.246 2.64V4.656L144.734 4.656ZM149.582 12.408V17.16L151.982 17.16L151.982 0.696001L149.582 0.696001V4.896L145.646 4.896V6.912L149.582 6.912L149.582 10.392L145.646 10.392V12.408L149.582 12.408ZM131.774 10.104C131.774 12.624 133.622 14.232 135.782 14.232L140.198 14.232C142.358 14.232 144.206 12.624 144.206 10.104C144.206 7.584 142.358 5.976 140.198 5.976L135.782 5.976C133.622 5.976 131.774 7.584 131.774 10.104ZM136.574 12.216C135.014 12.216 134.174 11.28 134.174 10.104C134.174 8.928 135.014 7.992 136.574 7.992L139.406 7.992C140.966 7.992 141.806 8.928 141.806 10.104C141.806 11.28 140.966 12.216 139.406 12.216L136.574 12.216ZM152.414 22.584V20.568L135.566 20.568V15.744L133.166 15.744V22.584L152.414 22.584Z" fill="white"/>
<path d="M170.654 22.584V11.856L173.822 11.856V22.584L176.222 22.584L176.222 0.696001L173.822 0.696001L173.822 9.84L170.654 9.84L170.654 0.696001L168.254 0.696001L168.254 22.584L170.654 22.584ZM155.246 21.504C157.55 20.088 159.998 17.16 160.718 13.728C161.438 17.16 163.886 20.088 166.19 21.504V18.744C164.03 16.968 161.918 13.536 161.918 8.328L161.918 3.864L165.902 3.864V1.848L155.486 1.848V3.864L159.518 3.864L159.518 8.328C159.518 13.536 157.406 16.968 155.246 18.744V21.504Z" fill="white"/>
<path d="M206.961 17.712V10.68L209.601 10.68L209.601 6.744L206.961 6.744V0.504001L202.401 0.504001L202.401 17.712L206.961 17.712ZM199.809 9.84L200.577 0.888L186.753 0.888V4.248L196.137 4.248L195.609 9.84L199.809 9.84ZM201.657 14.136V10.632L193.449 11.04L193.449 6.192L189.585 6.192L189.585 11.232L186.105 11.4V14.904L201.657 14.136ZM207.441 22.728V19.224L192.369 19.224V15.768L187.761 15.768V22.728L207.441 22.728Z" fill="white"/>
<path d="M221.937 4.896V1.872L218.097 1.872V0L214.185 0V1.872L210.321 1.872V4.896L221.937 4.896ZM226.617 14.136V9.048L228.129 9.048V14.136L231.969 14.136L231.969 0.504001L228.129 0.504001V5.352L226.617 5.352V0.504001L222.849 0.504001L222.849 14.136L226.617 14.136ZM210.609 9.456C210.609 11.568 212.145 13.248 213.993 13.248L218.313 13.248C220.185 13.248 221.697 11.568 221.697 9.456C221.697 7.344 220.185 5.664 218.313 5.664L213.993 5.664C212.145 5.664 210.609 7.344 210.609 9.456ZM214.857 10.32C214.281 10.32 213.945 9.888 213.945 9.456C213.945 8.976 214.281 8.568 214.857 8.568L217.425 8.568C218.001 8.568 218.337 8.976 218.337 9.456C218.337 9.888 218.001 10.32 217.425 10.32L214.857 10.32ZM211.329 18.744C211.329 21.12 213.153 22.848 215.697 22.848L227.793 22.848C230.385 22.848 232.209 21.12 232.209 18.744C232.209 16.392 230.385 14.688 227.793 14.688L215.697 14.688C213.153 14.688 211.329 16.392 211.329 18.744ZM217.137 19.68C216.417 19.68 215.913 19.368 215.913 18.744C215.913 18.144 216.417 17.808 217.137 17.808L226.353 17.808C227.169 17.808 227.649 18.144 227.649 18.744C227.649 19.368 227.169 19.68 226.353 19.68L217.137 19.68Z" fill="white"/>
<path d="M255.153 22.584L255.153 0.696001L252.753 0.696001L252.753 22.584L255.153 22.584ZM241.329 21.936C244.977 21.936 247.689 19.656 247.689 16.296L247.689 6.552C247.689 3.192 244.977 0.912001 241.329 0.912001C237.681 0.912001 234.969 3.192 234.969 6.552L234.969 16.296C234.969 19.656 237.681 21.936 241.329 21.936ZM241.329 19.92C239.001 19.92 237.369 18.552 237.369 16.416L237.369 6.432C237.369 4.344 239.001 2.928 241.329 2.928C243.657 2.928 245.289 4.344 245.289 6.432L245.289 16.416C245.289 18.552 243.657 19.92 241.329 19.92Z" fill="white"/>
<path d="M278.169 22.584L278.169 11.832L281.385 11.832V9.816L278.169 9.816V0.696001L275.769 0.696001L275.769 22.584L278.169 22.584ZM272.841 20.28V18.264L261.369 19.32L261.369 12.096L270.945 12.096V1.704L258.969 1.704V3.72L268.545 3.72V10.08L258.969 10.08L258.969 21.576L272.841 20.28Z" fill="white"/>
<path d="M302.625 8.616V6.6L286.089 6.6V0.744L283.689 0.744V8.616L302.625 8.616ZM303.993 13.416V11.4L282.201 11.4V13.416L303.993 13.416ZM302.865 22.584V20.568L286.089 20.568L286.089 15.288L283.689 15.288L283.689 22.584L302.865 22.584Z" fill="white"/>
<path d="M334.348 22.584L334.348 0.696001L331.948 0.696001L331.948 22.584L334.348 22.584ZM320.524 21.936C324.172 21.936 326.884 19.656 326.884 16.296V6.552C326.884 3.192 324.172 0.912001 320.524 0.912001C316.876 0.912001 314.164 3.192 314.164 6.552V16.296C314.164 19.656 316.876 21.936 320.524 21.936ZM320.524 19.92C318.196 19.92 316.564 18.552 316.564 16.416V6.432C316.564 4.344 318.196 2.928 320.524 2.928C322.852 2.928 324.484 4.344 324.484 6.432V16.416C324.484 18.552 322.852 19.92 320.524 19.92Z" fill="white"/>
<path d="M357.82 9.984V7.968L341.284 7.968V6.456L357.7 6.456V1.008L338.884 1.008V3.024L355.3 3.024V4.44L338.884 4.44V9.984L357.82 9.984ZM359.188 13.632V11.616L337.396 11.616V13.632L359.188 13.632ZM355.3 21.864V22.584L357.7 22.584L357.7 15.504L338.884 15.504L338.884 22.584L355.3 21.864ZM341.284 17.52L355.3 17.52V19.848L341.284 20.472V17.52Z" fill="white"/>
<path d="M376.132 13.56C379.66 13.56 382.156 10.848 382.156 7.368C382.156 3.864 379.66 1.152 376.132 1.152L368.452 1.152C364.924 1.152 362.428 3.864 362.428 7.368C362.428 10.848 364.924 13.56 368.452 13.56L376.132 13.56ZM368.716 11.544C366.484 11.544 364.828 9.816 364.828 7.368C364.828 4.92 366.484 3.168 368.716 3.168L375.868 3.168C378.124 3.168 379.756 4.92 379.756 7.368C379.756 9.816 378.124 11.544 375.868 11.544L368.716 11.544ZM383.188 21.936V19.896L361.396 19.896V21.936L383.188 21.936Z" fill="white"/>
<path d="M20.7569 49.776L20.7569 47.76L4.10089 47.76L4.10089 44.472L20.5169 44.472L20.5169 37.272L1.70089 37.272L1.70089 39.288L18.1169 39.288L18.1169 42.456L1.70089 42.456L1.70089 49.776L20.7569 49.776ZM22.0049 57.936L22.0049 55.92L12.3089 55.92L12.3089 51.072L9.90889 51.072L9.90889 55.92L0.212891 55.92L0.212891 57.936L22.0049 57.936Z" fill="white"/>
<path d="M52.3122 47.976L52.3122 36.768L47.7522 36.768V38.904L36.8802 38.904V36.768L32.2962 36.768L32.2962 47.976L52.3122 47.976ZM36.8802 42.216L47.7522 42.216L47.7522 44.52L36.8802 44.52L36.8802 42.216ZM44.6322 58.968L44.6322 53.472L53.3202 53.472L53.3202 49.776L31.3122 49.776L31.3122 53.472L39.9762 53.472L39.9762 58.968L44.6322 58.968Z" fill="white"/>
<path d="M76.0962 49.224L76.0962 44.352L78.8082 44.352V40.56L76.0962 40.56L76.0962 36.504L71.5362 36.504L71.5362 49.224L76.0962 49.224ZM70.2642 47.856L70.2642 44.184L60.4962 44.952L60.4962 40.488L68.5602 40.488L68.5602 36.888L55.9362 36.888L55.9362 48.888L70.2642 47.856ZM56.6562 54.288C56.6562 56.904 58.7202 58.848 61.3362 58.848L71.8962 58.848C74.5842 58.848 76.6242 56.904 76.6242 54.288C76.6242 51.624 74.5842 49.728 71.8962 49.728L61.3362 49.728C58.7202 49.728 56.6562 51.624 56.6562 54.288ZM62.6322 55.368C61.8642 55.368 61.2642 55.032 61.2642 54.288C61.2642 53.472 61.8642 53.16 62.6322 53.16L70.5762 53.16C71.4402 53.16 72.0402 53.472 72.0402 54.288C72.0402 55.032 71.4402 55.368 70.5762 55.368L62.6322 55.368Z" fill="white"/>
<path d="M93.5922 41.088V37.872L88.9362 37.872L88.9362 36L84.1842 36L84.1842 37.872L79.5522 37.872V41.088L93.5922 41.088ZM100.168 52.92V46.032L102.808 46.032L102.808 42.12L100.168 42.12L100.168 36.504L95.6082 36.504L95.6082 52.92L100.168 52.92ZM79.8642 46.056C79.8642 48.408 81.5202 50.208 83.4402 50.208L89.7042 50.208C91.6482 50.208 93.3042 48.408 93.3042 46.056C93.3042 43.728 91.6482 41.904 89.7042 41.904L83.4402 41.904C81.5202 41.904 79.8642 43.728 79.8642 46.056ZM84.8082 47.088C84.1362 47.088 83.7282 46.584 83.7282 46.056C83.7282 45.48 84.1362 45 84.8082 45L88.4082 45C89.1042 45 89.4882 45.48 89.4882 46.056C89.4882 46.584 89.1042 47.088 88.4082 47.088L84.8082 47.088ZM100.648 58.728V55.128L85.5042 55.128L85.5042 51.408L80.8962 51.408L80.8962 58.728L100.648 58.728Z" fill="white"/>
<path d="M111.18 50.112C116.316 50.064 119.82 47.88 121.5 45.288C123.18 47.88 126.684 50.064 131.82 50.112V46.32C127.668 46.296 124.164 43.632 123.876 40.872V40.632L131.58 40.632V36.936L111.42 36.936L111.42 40.632L119.148 40.632V40.872C118.788 43.632 115.38 46.296 111.18 46.32V50.112ZM132.516 58.32L132.516 54.408L123.804 54.408L123.804 49.152L119.196 49.152L119.196 54.408L110.508 54.408V58.32L132.516 58.32Z" fill="white"/>
<path d="M151.476 46.128V52.872L156.06 52.872L156.06 36.504L151.476 36.504L151.476 42.408L147.732 42.408C147.995 41.472 148.14 40.44 148.14 39.288V36.888L135.06 36.888V40.392L143.892 40.392C143.892 43.608 140.892 46.32 134.94 46.368V49.872C139.164 49.848 143.196 48.768 145.668 46.128L151.476 46.128ZM140.748 50.904L136.14 50.904L136.14 58.728L156.42 58.728L156.42 55.128L140.748 55.128V50.904Z" fill="white"/>
<path d="M175.116 43.944C177.348 43.944 179.148 42.48 179.148 40.416C179.148 38.352 177.348 36.888 175.116 36.888L163.884 36.888C161.628 36.888 159.852 38.352 159.852 40.416C159.852 42.48 161.628 43.944 163.884 43.944L175.116 43.944ZM164.22 41.928C163.092 41.928 162.252 41.352 162.252 40.392C162.252 39.456 163.092 38.904 164.22 38.904L174.78 38.904C175.884 38.904 176.748 39.456 176.748 40.392C176.748 41.352 175.884 41.928 174.78 41.928L164.22 41.928ZM180.396 47.76V45.744L158.604 45.744V47.76L180.396 47.76ZM179.268 58.584L179.268 56.568L162.492 56.568V54.984L178.908 54.984V49.584L160.092 49.584V51.6L176.508 51.6V53.064L160.092 53.064L160.092 58.584L179.268 58.584Z" fill="white"/>
<path d="M203.743 47.448L203.743 58.584L206.143 58.584L206.143 36.696L203.743 36.696L203.743 45.432L199.447 45.432V47.448L203.743 47.448ZM211.015 58.584L211.015 36.696L208.615 36.696L208.615 58.584L211.015 58.584ZM190.039 57.504C192.343 56.088 194.791 53.16 195.511 49.728C196.231 53.16 198.679 56.088 200.983 57.504V54.744C198.823 52.968 196.711 49.536 196.711 44.328L196.711 39.864L200.695 39.864V37.848L190.279 37.848V39.864L194.311 39.864L194.311 44.328C194.311 49.536 192.199 52.968 190.039 54.744V57.504Z" fill="white"/>
<path d="M234.607 58.584L234.607 36.696L232.207 36.696L232.207 58.584L234.607 58.584ZM213.991 57.504C217.015 55.992 220.495 52.584 221.527 48.84C222.535 52.584 226.015 55.992 229.039 57.504V54.912C226.447 53.376 222.727 49.68 222.727 43.992L222.727 37.32L220.327 37.32L220.327 43.992C220.327 49.68 216.583 53.376 213.991 54.912V57.504Z" fill="white"/>
<path d="M251.191 42L251.191 39.984L245.887 39.984V36.36H243.487V39.984L238.183 39.984L238.183 42L251.191 42ZM257.767 58.584L257.767 47.832L260.983 47.832V45.816L257.767 45.816V36.696H255.367L255.367 58.584H257.767ZM244.687 57.936C248.143 57.936 250.807 55.896 250.807 52.56V48.984C250.807 45.648 248.143 43.608 244.687 43.608C241.231 43.608 238.567 45.648 238.567 48.984V52.56C238.567 55.896 241.231 57.936 244.687 57.936ZM244.687 55.92C242.647 55.92 240.967 54.672 240.967 52.416V49.128C240.967 46.872 242.647 45.624 244.687 45.624C246.727 45.624 248.407 46.872 248.407 49.128V52.416C248.407 54.672 246.727 55.92 244.687 55.92Z" fill="white"/>
<path d="M280.207 45.936L274.063 45.936C274.495 44.016 274.711 41.832 274.711 39.432V37.704L262.447 37.704V39.72L272.311 39.72C272.335 49.032 268.831 54.072 262.327 55.68V57.816C267.775 56.736 271.663 53.544 273.511 47.952L280.207 47.952L280.207 58.584H282.607L282.607 36.696H280.207V45.936Z" fill="white"/>
<path d="M305.143 58.584L305.143 47.688L308.983 47.688V45.672L305.143 45.672V36.696L302.743 36.696L302.743 58.584L305.143 58.584ZM300.415 56.28V54.144L289.399 55.2L289.399 37.584L286.999 37.584L286.999 57.576L300.415 56.28Z" fill="white"/>
<path d="M334.85 39.024L334.394 44.856H336.794L337.418 37.008L318.506 37.008V39.024L334.85 39.024ZM338.786 48.264V46.248L327.89 46.248V41.808H325.49V46.248L316.994 46.248V48.264L338.786 48.264ZM318.122 54.528C318.122 56.712 319.586 58.632 322.034 58.632L333.746 58.632C336.194 58.632 337.658 56.712 337.658 54.528C337.658 52.392 336.194 50.448 333.746 50.448L322.034 50.448C319.586 50.448 318.122 52.392 318.122 54.528ZM322.49 56.616C321.338 56.616 320.522 55.728 320.522 54.504C320.522 53.328 321.338 52.464 322.49 52.464L333.242 52.464C334.418 52.464 335.258 53.328 335.258 54.504C335.258 55.728 334.418 56.616 333.242 56.616L322.49 56.616Z" fill="white"/>
<path d="M359.426 43.896V49.656H361.826V36.696H359.426V41.88L354.386 41.88V43.896L359.426 43.896ZM341.378 49.032C344.426 48.504 347.426 46.944 348.242 44.088C349.034 46.944 352.034 48.504 355.106 49.032V46.824C352.274 46.368 349.442 44.328 349.442 40.488V39.36L354.866 39.36V37.344L341.618 37.344V39.36L347.042 39.36V40.488C347.042 44.328 344.21 46.368 341.378 46.824V49.032ZM342.818 54.552C342.818 57 344.882 58.704 347.498 58.704L357.674 58.704C360.314 58.704 362.378 57 362.378 54.552C362.378 52.104 360.314 50.424 357.674 50.424L347.498 50.424C344.882 50.424 342.818 52.104 342.818 54.552ZM347.642 56.688C346.274 56.688 345.218 55.848 345.218 54.552C345.218 53.28 346.274 52.44 347.642 52.44L357.53 52.44C358.922 52.44 359.978 53.28 359.978 54.552C359.978 55.848 358.922 56.688 357.53 56.688L347.642 56.688Z" fill="white"/>
<path d="M379.634 40.656V38.64L373.634 38.64V36.12H371.234V38.64L365.234 38.64V40.656L379.634 40.656ZM385.106 52.92L385.106 45.072L388.178 45.072V43.056L385.106 43.056V36.696L382.706 36.696L382.706 52.92L385.106 52.92ZM365.762 46.104C365.762 48.624 367.61 50.232 369.77 50.232L375.098 50.232C377.258 50.232 379.106 48.624 379.106 46.104C379.106 43.584 377.258 41.976 375.098 41.976L369.77 41.976C367.61 41.976 365.762 43.584 365.762 46.104ZM370.562 48.216C369.002 48.216 368.162 47.28 368.162 46.104C368.162 44.928 369.002 43.992 370.562 43.992L374.306 43.992C375.866 43.992 376.706 44.928 376.706 46.104C376.706 47.28 375.866 48.216 374.306 48.216L370.562 48.216ZM385.586 58.584V56.568L369.314 56.568V51.648H366.914V58.584L385.586 58.584Z" fill="white"/>
<path d="M37.1686 80.472C39.4006 80.472 41.2006 78.792 41.2006 76.584C41.2006 74.376 39.4006 72.672 37.1686 72.672L25.4086 72.672C23.1526 72.672 21.3766 74.376 21.3766 76.584C21.3766 78.792 23.1526 80.472 25.4086 80.472L37.1686 80.472ZM26.1526 77.904C25.3126 77.904 24.6646 77.376 24.6646 76.584C24.6646 75.792 25.3126 75.264 26.1526 75.264L36.4486 75.264C37.2886 75.264 37.9366 75.792 37.9366 76.584C37.9366 77.376 37.2886 77.904 36.4486 77.904L26.1526 77.904ZM42.2326 84.864V82.2L20.3446 82.2L20.3446 84.864L42.2326 84.864ZM37.6726 93.96V94.656H40.9606L40.9606 86.688L21.6166 86.688L21.6166 94.656L37.6726 93.96ZM24.9046 89.16L37.6726 89.16V91.416L24.9046 91.944L24.9046 89.16Z" fill="white"/>
<path d="M51.1366 84.744C54.5446 84.744 57.3526 82.992 57.3526 79.56V77.784C57.3526 74.352 54.5446 72.576 51.1366 72.576C47.7286 72.576 44.9206 74.352 44.9206 77.784V79.56C44.9206 82.992 47.7286 84.744 51.1366 84.744ZM64.7926 85.488V79.968H67.6726L67.6726 77.064H64.7926V72.6L61.4326 72.6L61.4326 85.488L64.7926 85.488ZM51.1606 82.152C49.4326 82.152 48.1366 81.288 48.1366 79.656V77.688C48.1366 76.056 49.4326 75.168 51.1606 75.168C52.8646 75.168 54.1846 76.056 54.1846 77.688V79.656C54.1846 81.288 52.8646 82.152 51.1606 82.152ZM64.7926 94.896L64.7926 86.376L45.7846 86.376L45.7846 89.184L61.3606 89.184L61.3606 94.896L64.7926 94.896Z" fill="white"/>
<path d="M85.0919 82.056V80.64H86.3879C88.3799 80.64 89.7239 79.488 89.7239 77.784C89.7239 77.136 89.4599 76.584 89.1959 76.272H90.7559V73.848L85.1879 73.848V72.072H81.7799V73.848L76.2119 73.848V76.272H77.7479C77.5079 76.56 77.2439 77.112 77.2439 77.784C77.2439 79.488 78.5399 80.64 80.5319 80.64H81.8759V82.224L75.5399 82.488V84.936L91.6199 84.24V81.768L85.0919 82.056ZM95.9879 72.6L92.6279 72.6L92.6279 85.224L95.9879 85.224V80.232H98.8679L98.8679 77.28H95.9879V72.6ZM80.1479 77.256C80.1479 76.68 80.6759 76.152 81.4679 76.152H85.4999C86.3159 76.152 86.8439 76.68 86.8439 77.256C86.8439 77.928 86.3399 78.36 85.5239 78.36H81.4679C80.6759 78.36 80.1479 77.928 80.1479 77.256ZM95.9879 91.224L95.9879 86.016L77.4119 86.016L77.4119 88.152L92.6279 88.152V89.184L77.4119 89.184V94.656L96.4679 94.656V92.352L80.7719 92.352V91.224L95.9879 91.224Z" fill="white"/>
<path d="M112.116 80.448H120.276L120.276 77.88L104.196 77.88V75.312L120.156 75.312V72.792L100.812 72.792L100.812 80.448L108.828 80.448V82.704L99.5399 82.704V85.368L121.428 85.368V82.704L112.116 82.704V80.448ZM104.412 86.904C102.036 86.904 100.452 88.728 100.452 90.816C100.452 92.928 102.036 94.728 104.412 94.728L116.556 94.728C118.932 94.728 120.516 92.928 120.516 90.816C120.516 88.728 118.932 86.904 116.556 86.904L104.412 86.904ZM105.156 92.136C104.292 92.136 103.668 91.536 103.668 90.768C103.668 90.024 104.292 89.448 105.156 89.448L115.74 89.448C116.628 89.448 117.276 90.024 117.276 90.768C117.276 91.536 116.628 92.136 115.74 92.136L105.156 92.136Z" fill="white"/>
<path d="M151.879 94.656L151.879 72.6H148.471L148.471 94.656H151.879ZM131.167 94.008C139.279 92.52 144.631 86.736 144.631 75.96L144.631 73.488L131.287 73.488L131.287 76.44L141.367 76.44C141.391 84.792 137.527 89.376 131.167 90.888L131.167 94.008Z" fill="white"/>
<path d="M170.599 76.968L170.599 74.28L164.815 74.28V72.072L161.335 72.072V74.28H155.551L155.551 76.968L170.599 76.968ZM175.903 94.656L175.903 72.6H172.495L172.495 94.656H175.903ZM155.935 82.32C155.935 84.648 157.567 86.52 159.415 86.52L166.783 86.52C168.631 86.52 170.263 84.648 170.263 82.32C170.263 79.992 168.631 78.144 166.783 78.144L159.415 78.144C157.567 78.144 155.935 79.992 155.935 82.32ZM160.543 83.904C159.607 83.904 158.983 83.112 158.983 82.32C158.983 81.504 159.607 80.736 160.543 80.736L165.679 80.736C166.615 80.736 167.215 81.504 167.215 82.32C167.215 83.112 166.615 83.904 165.679 83.904L160.543 83.904ZM171.487 93.264L171.487 90.408L164.791 90.84V87.456L161.383 87.456V91.08L154.927 91.488V94.32L171.487 93.264Z" fill="white"/>
<path d="M199.471 81.096V78.936L183.343 78.936V77.904L199.351 77.904L199.351 72.792L180.007 72.792L180.007 74.952L196.015 74.952V75.912L180.007 75.912V81.096L199.471 81.096ZM200.623 84.792V82.296L178.735 82.296V84.792L200.623 84.792ZM199.711 94.656V92.424L183.343 92.424V91.32L199.351 91.32L199.351 86.016L180.007 86.016V88.2L196.015 88.2V89.256L180.007 89.256L180.007 94.656L199.711 94.656Z" fill="white"/>
<path d="M226.371 86.376V79.488L228.795 79.488V87.336H231.195L231.195 72.696H228.795L228.795 77.472L226.371 77.472L226.371 72.696H223.971L223.971 86.376H226.371ZM222.123 85.032L222.123 73.056L219.723 73.056L219.723 76.752H217.563L217.563 73.296H215.163L215.163 76.752H212.955L212.955 73.056L210.555 73.056L210.555 85.032L222.123 85.032ZM212.955 78.768H215.163V83.016H212.955V78.768ZM217.563 78.768H219.723V83.016H217.563V78.768ZM211.659 94.584C217.275 94.584 220.587 92.712 221.787 90.648C222.987 92.712 226.275 94.584 231.915 94.584V92.568C226.203 92.568 222.987 90.24 222.987 87.936V86.856H220.587V87.936C220.587 90.24 217.371 92.568 211.659 92.568V94.584Z" fill="white"/>
<path d="M253.323 88.896L254.403 73.272L235.347 73.272L235.347 75.288L251.859 75.288L250.923 88.896L253.323 88.896ZM255.771 93.936V91.92L244.707 91.92L244.707 82.128L242.307 82.128L242.307 91.92L233.979 91.92V93.936L255.771 93.936Z" fill="white"/>
<path d="M272.35 83.952C275.878 83.952 278.758 82.296 278.758 79.008V77.616C278.758 74.352 275.878 72.672 272.35 72.672C268.822 72.672 265.942 74.352 265.942 77.616V79.008C265.942 82.296 268.822 83.952 272.35 83.952ZM286.15 84.576L286.15 72.696L283.75 72.696L283.75 84.576L286.15 84.576ZM272.374 81.936C270.07 81.936 268.342 80.928 268.342 78.912V77.736C268.342 75.72 270.07 74.688 272.374 74.688C274.63 74.688 276.358 75.72 276.358 77.736V78.912C276.358 80.928 274.63 81.936 272.374 81.936ZM276.814 94.944C279.262 94.296 281.254 92.784 281.854 91.032C282.526 92.856 284.734 94.224 287.446 94.584V92.568C284.638 92.04 283.03 90.24 283.03 87.936V85.752H280.63V87.936C280.63 90.24 278.806 92.184 276.814 92.928C274.822 92.184 272.998 90.24 272.998 88.032V85.992H270.598V88.032C270.598 90.24 268.918 92.04 266.086 92.568V94.584C268.894 94.224 271.15 92.856 271.798 91.032C272.398 92.736 274.366 94.248 276.814 94.944Z" fill="white"/>
<path d="M290.278 80.04C295.366 79.944 299.062 78.24 300.07 76.368C301.03 78.24 304.75 79.944 309.862 80.04V78.024C305.446 77.904 301.27 76.416 301.27 73.776V72.624H298.87V73.776C298.87 76.416 294.718 77.904 290.278 78.024V80.04ZM310.966 84.048L310.966 82.032L289.174 82.032L289.174 84.048L310.966 84.048ZM307.078 93.96V94.584H309.478V85.512H307.078V87.84L293.062 87.84V85.512H290.662V94.584L307.078 93.96ZM293.062 89.856L307.078 89.856V91.944L293.062 92.472V89.856Z" fill="white"/>
<path d="M333.838 94.584L333.838 72.696H331.438L331.438 94.584H333.838ZM328.006 92.328V90.192L317.062 91.2L317.062 73.584H314.662L314.662 93.576L328.006 92.328Z" fill="white"/>
<path d="M356.518 94.584V83.688H360.358L360.358 81.672H356.518V72.696H354.118L354.118 94.584H356.518ZM351.286 92.328V90.312L340.774 91.32L340.774 75.72L350.206 75.72V73.704L338.374 73.704L338.374 93.576L351.286 92.328Z" fill="white"/>
<path d="M364.054 93.816V91.152H361.414V93.816H364.054Z" fill="white"/>
</svg>
