<svg width="392" height="114" viewBox="0 0 392 114" fill="none" xmlns="http://www.w3.org/2000/svg">
<path d="M126.869 17.6226V0.972282H121.081V4.61834H107.282V0.972282H101.464V17.6226H126.869ZM107.282 8.9936H121.081V12.9739H107.282V8.9936ZM128.148 28.2569V23.0613H100.215V28.2569H128.148Z" fill="#1D1D1D"/>
<path d="M151.939 28.7735V0.638061H147.187V10.2393H143.897V15.1615H147.187V28.7735H151.939ZM158.428 28.7735V0.638061H153.554V28.7735H158.428ZM145.847 26.2212V21.299L136.586 22.3321V16.3465H142.405L143.867 1.61034H131.377V6.41098H138.201L137.622 11.7585H131.377V27.8012L145.847 26.2212Z" fill="#1D1D1D"/>
<path d="M177.65 11.7281V21.3902H182.402V0.638061H177.65V7.01866H174.817V1.1242H161.84V17.0757H174.817V11.7281H177.65ZM184.016 0.638061V21.3902H188.89V0.638061H184.016ZM166.683 12.6397V5.56024H170.095V12.6397H166.683ZM168.998 19.1722H163.15V28.7735H189.347V24.2159H168.998V19.1722Z" fill="#1D1D1D"/>
<path d="M218.042 28.7735V16.2857H221.424V11.0901H218.042V0.638061H212.255V28.7735H218.042ZM208.995 21.2079L209.97 1.1242H192.515V5.95523H204.304L203.603 21.2079H208.995ZM211.28 27.3758V22.4536L201.197 23.1221V11.3028H195.714V23.4563L191.632 23.6994V28.6519L211.28 27.3758Z" fill="#1D1D1D"/>
<path d="M249.321 6.1983V2.36994H243.411V0H237.38V2.36994H231.501V6.1983H249.321ZM257.668 17.2884V10.847H261.019V6.04638H257.668V0.638061H251.88V17.2884H257.668ZM231.897 11.9104C231.897 14.5538 233.816 16.6807 236.192 16.6807H244.66C247.036 16.6807 248.956 14.5538 248.956 11.9104C248.956 9.20629 247.036 7.07943 244.66 7.07943H236.192C233.816 7.07943 231.897 9.20629 231.897 11.9104ZM237.898 12.9435C237.136 12.9435 236.74 12.427 236.74 11.9104C236.74 11.3028 237.136 10.8166 237.898 10.8166H243.046C243.807 10.8166 244.203 11.3028 244.203 11.9104C244.203 12.427 243.807 12.9435 243.046 12.9435H237.898ZM251.849 27.9531V28.7735H257.668V18.1695H233.176V28.7735L251.849 27.9531ZM238.994 22.2106H251.849V23.9728L238.994 24.459V22.2106Z" fill="#1D1D1D"/>
<path d="M276.493 11.6066C276.585 9.81397 276.585 7.89979 276.585 5.83369V1.61034H269.731V6.13753H272.198C272.198 13.5816 272.046 20.1748 268.421 22.879V28.2569C273.325 25.6743 275.275 21.8156 276.067 16.5288H279.052V28.7735H283.53V0.638061H279.052V11.6066H276.493ZM285.053 28.7735H289.623V0.638061H285.053V28.7735ZM262.146 1.61034V6.13753H264.826C264.826 14.5235 264.735 19.2329 261.841 21.3598V26.7377C268.847 23.2132 269.03 15.9211 269.03 5.83369V1.61034H262.146Z" fill="#1D1D1D"/>
<path d="M20.4706 71.3108V58.7015H22.5725V71.3108H27.4464V43.1754H22.5725V53.7489H20.4706V43.1754H15.688V71.3108H20.4706ZM0 70.3081C3.16807 68.4547 5.66597 66.1759 7.03677 62.8337C8.43803 66.1759 10.9664 68.4547 14.1345 70.3081V64.2921C10.6618 61.5272 9.56513 57.9723 9.56513 49.556V43.8134H4.56933V49.556C4.56933 57.9723 3.47269 61.5272 0 64.2921V70.3081Z" fill="#1D1D1D"/>
<path d="M57.1166 60.2814V55.8758H37.1943V53.8705H56.812V43.6615H31.4065V47.9152H51.0546V49.799H31.4065V60.2814H57.1166ZM58.0914 70.7942V65.9025H47.0641V61.3145H41.1544V65.9025H30.1576V70.7942H58.0914Z" fill="#1D1D1D"/>
<path d="M82.4916 54.3262C85.2941 54.3262 87.6092 51.8651 87.6092 48.7052C87.6092 45.5757 85.2941 43.0538 82.4916 43.0538H66.6817C63.8487 43.0538 61.5641 45.5757 61.5641 48.7052C61.5641 51.8651 63.8487 54.3262 66.6817 54.3262H82.4916ZM68.1744 49.8294C67.4737 49.8294 66.9863 49.3129 66.9863 48.6141C66.9863 47.9152 67.4737 47.3987 68.1744 47.3987H80.9685C81.6691 47.3987 82.1565 47.9152 82.1565 48.6141C82.1565 49.3129 81.6691 49.8294 80.9685 49.8294H68.1744ZM77.4958 65.1732V60.1599H88.5536V55.9366H60.6197V60.1599H71.9212V65.1732H77.4958ZM87.7311 71.3108V67.1482H67.5956V62.4083H61.8687V71.3108H87.7311Z" fill="#1D1D1D"/>
<path d="M122.056 53.2628C124.859 53.2628 127.174 51.0144 127.174 48.2191C127.174 45.3934 124.859 43.0842 122.056 43.0842H106.277C103.444 43.0842 101.159 45.3934 101.159 48.2191C101.159 51.0144 103.444 53.2628 106.277 53.2628H122.056ZM107.891 49.2825C107.251 49.2825 106.764 48.8571 106.764 48.2191C106.764 47.6114 107.251 47.1556 107.891 47.1556H120.533C121.173 47.1556 121.69 47.6114 121.69 48.2191C121.69 48.8571 121.173 49.2825 120.533 49.2825H107.891ZM128.148 59.1269V54.8731H100.215V59.1269H128.148ZM121.264 70.4904V71.3108H126.869V60.9803H101.464V71.3108L121.264 70.4904ZM107.069 64.7175H121.264V66.5709L107.069 67.057V64.7175Z" fill="#1D1D1D"/>
<path d="M139.359 58.823C143.776 58.823 147.401 56.5746 147.401 52.1386V49.8902C147.401 45.4845 143.776 43.1754 139.359 43.1754C134.942 43.1754 131.317 45.4845 131.317 49.8902V52.1386C131.317 56.5746 134.942 58.823 139.359 58.823ZM157.148 59.7042V53.2628H160.499V48.4318H157.148V43.1754H151.361V59.7042H157.148ZM139.419 54.782C137.835 54.782 136.678 53.9312 136.678 52.4728V49.5256C136.678 48.0672 137.835 47.2164 139.419 47.2164C140.973 47.2164 142.161 48.0672 142.161 49.5256V52.4728C142.161 53.9312 140.973 54.782 139.419 54.782ZM157.148 71.6146V60.5853H132.352V65.1429H151.147V71.6146H157.148Z" fill="#1D1D1D"/>
<path d="M197.627 71.3108V43.1754H191.717V71.3108H197.627ZM170.546 70.3081C174.445 68.3635 178.009 65.4771 179.989 61.2537C181.939 65.4771 185.533 68.3635 189.432 70.3081V63.8364C186.143 61.7095 182.883 58.3977 182.883 49.799V43.8134H177.095V49.799C177.095 58.3977 173.805 61.7095 170.546 63.8364V70.3081Z" fill="#1D1D1D"/>
<path d="M227.206 59.4915V53.4147H230.556V48.6141H227.206V43.1754H221.418V59.4915H227.206ZM201.069 59.1269C205.06 58.9446 208.38 57.5773 210.116 54.5997C211.914 57.3646 215.203 58.6407 219.133 58.823V54.0224C215.66 53.7185 212.858 52.2601 212.736 48.4925V48.3406H218.828V43.6919H201.374V48.3406H207.436V48.4925C207.283 52.2905 204.572 54.0224 201.069 54.3262V59.1269ZM202.348 65.8113C202.348 69.0624 204.968 71.4627 208.258 71.4627H221.905C225.256 71.4627 227.876 69.0624 227.876 65.8113C227.876 62.5298 225.256 60.1599 221.905 60.1599H208.258C204.968 60.1599 202.348 62.5298 202.348 65.8113ZM209.781 67.1482C208.806 67.1482 208.136 66.6924 208.136 65.8113C208.136 64.9302 208.806 64.444 209.781 64.444H220.382C221.448 64.444 222.118 64.9302 222.118 65.8113C222.118 66.6924 221.448 67.1482 220.382 67.1482H209.781Z" fill="#1D1D1D"/>
<path d="M253.037 52.564C255.84 52.564 258.155 50.4979 258.155 47.8545C258.155 45.1807 255.84 43.0842 253.037 43.0842H237.258C234.425 43.0842 232.14 45.1807 232.14 47.8545C232.14 50.4979 234.425 52.564 237.258 52.564H253.037ZM238.873 48.8571C238.233 48.8571 237.745 48.4318 237.745 47.8849C237.745 47.338 238.233 46.9126 238.873 46.9126H251.514C252.154 46.9126 252.672 47.338 252.672 47.8849C252.672 48.4318 252.154 48.8571 251.514 48.8571H238.873ZM259.13 57.9723V53.9009H231.196V57.9723H259.13ZM258.307 71.3108V67.9685H238.233V66.6924H257.85V59.5219H232.445V62.5906H252.093V63.7756H232.445V71.3108H258.307Z" fill="#1D1D1D"/>
<path d="M297.263 63.8971V55.2074H300.613V50.2548H297.263V43.1754H291.475V63.8971H297.263ZM287.484 58.7623V43.6615H271.492V58.7623H287.484ZM277.066 48.0975H282.001V54.3262H277.066V48.0975ZM297.872 71.3108V66.7532H278.65V61.1322H272.801V71.3108H297.872Z" fill="#1D1D1D"/>
<path d="M328.06 52.0778V48.4622H308.29V46.7607H327.908V43.2361H302.502V52.0778H328.06ZM329.187 57.6684V53.597H301.253V57.6684H329.187ZM328.365 71.3108V67.9685H308.168V66.662H327.908V59.3699H302.502V62.4691H322.211V63.6844H302.502V71.3108H328.365Z" fill="#1D1D1D"/>
<path d="M353.343 53.9312H348.47V51.0448C348.47 46.6087 344.905 43.6007 340.428 43.6007C335.98 43.6007 332.416 46.6087 332.416 51.0448V63.3502C332.416 67.7559 335.98 70.7942 340.428 70.7942C344.905 70.7942 348.47 67.7559 348.47 63.3502V58.8838H353.343V71.3108H359.131V43.1754H353.343V53.9312ZM343.23 63.6541C343.23 65.0213 342.073 66.1151 340.488 66.1151C338.874 66.1151 337.747 65.0213 337.747 63.6541V50.7105C337.747 49.404 338.874 48.2191 340.488 48.2191C342.073 48.2191 343.23 49.404 343.23 50.7105V63.6541Z" fill="#1D1D1D"/>
<path d="M388.558 57.6381V52.5032H392V47.7937H388.558V43.1754H382.77V57.6381H388.558ZM362.726 57.6077C371.438 57.5773 379.48 56.2708 379.48 46.6087V43.6615H362.878V48.0368H374.149C374.149 51.9563 370.372 53.202 362.726 53.2324V57.6077ZM389.167 71.3108V67.7862H370.159V66.3278H388.558V58.4888H364.158V61.9222H382.557V63.2894H364.158V71.3108H389.167Z" fill="#1D1D1D"/>
<path d="M79.9858 99.1727V86.1988H54.5804V99.1727H79.9858ZM60.2768 90.9083H74.3199V94.524H60.2768V90.9083ZM63.0184 114L64.7852 106.647H70.4512V114H76.1476V106.647H81.2653V101.695H53.3314V106.647H58.9365L57.1697 114H63.0184Z" fill="#1D1D1D"/>
<path d="M111.149 113.848V85.7127H105.239V113.848H111.149ZM84.0678 112.845C87.7842 111.66 91.5005 108.896 93.5111 104.581C95.552 108.926 99.2379 111.66 102.954 112.845V106.89C100.03 105.614 96.3136 102.302 96.2527 93.7036V91.7591H102.528V86.7154H84.4942V91.7591H90.7695V93.7036C90.7085 102.302 86.9921 105.614 84.0678 106.89V112.845Z" fill="#1D1D1D"/>
<path d="M135.823 97.5927V107.103H141.641V85.7127H135.823V87.5661H130.096V91.7591H135.823V93.3694H130.096V97.5927H135.823ZM114.591 103.578C118.46 102.91 121.628 100.844 123.334 98.0789C125.07 100.844 128.238 102.91 132.107 103.578V98.8385C128.39 97.8662 126.075 94.7974 126.075 90.331V85.895H120.622V90.331C120.622 95.0709 118.033 97.9877 114.591 98.8385V103.578ZM142.129 113.848V109.291H122.206V105.006H116.358V113.848H142.129Z" fill="#1D1D1D"/>
<path d="M166.559 95.1013C169.362 95.1013 171.677 93.0352 171.677 90.3918C171.677 87.718 169.362 85.6215 166.559 85.6215H150.78C147.947 85.6215 145.662 87.718 145.662 90.3918C145.662 93.0352 147.947 95.1013 150.78 95.1013H166.559ZM152.394 91.3944C151.755 91.3944 151.267 90.9691 151.267 90.4222C151.267 89.8753 151.755 89.4499 152.394 89.4499H165.036C165.676 89.4499 166.194 89.8753 166.194 90.4222C166.194 90.9691 165.676 91.3944 165.036 91.3944H152.394ZM172.652 100.51V96.4382H144.718V100.51H172.652ZM171.829 113.848V110.506H151.755V109.23H171.372V102.059H145.967V105.128H165.615V106.313H145.967V113.848H171.829Z" fill="#1D1D1D"/>
<path d="M211.668 113.848V85.7127H205.758V113.848H211.668ZM184.709 113.18C195.157 111.417 202.438 104.186 202.438 90.8172V86.685H184.861V91.6071H196.924C196.924 100.935 192.172 106.1 184.709 107.923V113.18Z" fill="#1D1D1D"/>
<path d="M240.546 113.848V101.36H244.598V96.1647H240.546V85.7127H234.758V113.848H240.546ZM233.296 111.569V106.617L221.385 107.559V91.3641H231.925V86.685H215.598V112.876L233.296 111.569Z" fill="#1D1D1D"/>
<path d="M272.653 101.968V85.7127H266.744V101.968H272.653ZM265.038 100.935V97.0762L251.543 97.6535V95.5874H262.723V86.1988H245.968V90.0576H257.148V92.0021H245.968V101.695L265.038 100.935ZM266.835 113.028V113.848H272.653V102.849H266.835V104.763H253.036V102.849H247.248V113.848L266.835 113.028ZM253.036 108.136H266.835V109.564L253.036 110.05V108.136Z" fill="#1D1D1D"/>
<path d="M303.024 113.848V85.7127H297.114V113.848H303.024ZM295.439 111.569V106.526L282.645 107.407V86.533H276.613V112.876L295.439 111.569Z" fill="#1D1D1D"/>
<path d="M331.933 113.848V101.36H335.984V96.1647H331.933V85.7127H326.145V113.848H331.933ZM324.683 111.569V106.617L312.772 107.559V91.3641H323.312V86.685H306.984V112.876L324.683 111.569Z" fill="#1D1D1D"/>
<path d="M342.046 112.906V107.771H336.928V112.906H342.046Z" fill="#1D1D1D"/>
</svg>
