<svg width="320" height="220" viewBox="0 0 320 220" fill="none" xmlns="http://www.w3.org/2000/svg">
<g clip-path="url(#clip0_1635_56449)">
<rect width="320" height="220" rx="20" fill="#3380F4"/>
<g opacity="0.3">
<path d="M66 110C66 134.853 45.8528 155 21 155C-3.85281 155 -24 134.853 -24 110C-24 85.1472 -3.85281 65 21 65C45.8528 65 66 85.1472 66 110Z" fill="#1F539F"/>
<path d="M8.53809 127.045V92.9549C8.53809 91.9023 9.6663 91.2346 10.5891 91.7412L41.6351 108.786C42.5928 109.312 42.5928 110.688 41.6351 111.214L10.5891 128.258C9.6663 128.765 8.53809 128.097 8.53809 127.045Z" fill="#1D1D1D"/>
</g>
<g opacity="0.3">
<path d="M349 110C349 134.853 328.853 155 304 155C279.147 155 259 134.853 259 110C259 85.1472 279.147 65 304 65C328.853 65 349 85.1472 349 110Z" fill="#5BBAEF"/>
<path d="M304.346 85.0771C304.84 98.8234 315.869 109.853 329.616 110.346C315.869 110.84 304.84 121.869 304.346 135.616C303.853 121.869 292.823 110.84 279.077 110.346C292.823 109.853 303.853 98.8234 304.346 85.0771Z" fill="#1D1D1D"/>
</g>
<g opacity="0.3">
<path d="M247 110C247 134.853 226.853 155 202 155C177.147 155 157 134.853 157 110C157 85.1472 177.147 65 202 65C226.853 65 247 85.1472 247 110Z" fill="#373DC6"/>
<path d="M220.333 115.686L220.359 115.714L202 134.227L183.641 115.714L183.667 115.686C181.535 113.18 180.421 109.954 180.548 106.654C180.675 103.355 182.034 100.226 184.353 97.8943C186.672 95.5627 189.779 94.2007 193.051 94.0813C196.324 93.962 199.52 96.4165 202 98.5731C204.479 96.4165 207.676 93.962 210.948 94.0813C214.221 94.2007 217.328 95.5627 219.646 97.8943C221.965 100.226 223.324 103.355 223.451 106.654C223.579 109.954 222.465 113.18 220.333 115.686Z" fill="#1D1D1D"/>
</g>
<path d="M89.3023 73.892V53.63H86.3983V73.892H89.3023ZM80.3483 59.086V57.964H84.5283V55.566H73.1763V57.964H77.4003V59.086C77.4003 62.54 75.7723 66.258 72.3623 67.776L74.0123 70.086C76.3883 69.008 78.0163 66.808 78.9183 64.146C79.8203 66.632 81.4043 68.546 83.7803 69.58L85.3643 67.292C81.9763 65.884 80.3483 62.386 80.3483 59.086ZM111.103 64.146V61.836H108.485C108.947 59.482 108.947 57.81 108.947 56.16V54.532H95.0206V56.842H106.087C106.087 58.25 106.021 59.812 105.603 61.836H92.7546V64.146H111.103ZM108.859 66.258H94.9106V73.65H108.859V66.258ZM106.021 71.384H97.7706V68.524H106.021V71.384ZM133.839 63.662H136.677V61.264H133.839V53.608H130.935V73.848H133.839V63.662ZM121.497 66.5V55.544H118.593V68.92H120.353C123.367 68.92 126.557 68.744 129.923 68.04L129.637 65.664C126.799 66.214 124.071 66.434 121.497 66.5ZM155.596 73.87V53.608H152.846V73.87H155.596ZM151.438 53.96H148.732V61.088H147.126C146.796 57.128 145.168 55.06 142.77 55.06C140.086 55.06 138.392 57.832 138.392 62.408C138.392 67.006 140.086 69.778 142.77 69.778C145.256 69.778 146.884 67.424 147.148 63.442H148.732V72.99H151.438V53.96ZM142.77 67.05C141.648 67.05 141.01 65.598 141.01 62.408C141.01 59.306 141.648 57.788 142.77 57.788C143.892 57.788 144.53 59.306 144.53 62.408C144.53 65.598 143.892 67.05 142.77 67.05ZM175.878 73.87V53.608H173.128V73.87H175.878ZM171.566 54.07H168.86V61.374H166.594C167.1 59.702 167.254 57.964 167.254 56.028H159.312V58.338H164.372C164.02 62.32 162.238 65.246 158.19 67.644L159.84 69.69C162.766 68.018 164.548 66.016 165.692 63.706H168.86V72.99H171.566V54.07ZM200.088 61.088H202.31V58.712H200.088V53.608H197.184V65.73H200.088V61.088ZM196.392 64.3L196.172 61.946C195.226 62.188 194.434 62.254 193.136 62.276V57.546H195.776V55.236H190.386V64.674H191.464C193.95 64.674 195.05 64.652 196.392 64.3ZM189.792 64.322L189.572 61.968C188.626 62.144 187.768 62.21 186.888 62.276V57.546H189.374V55.236H184.138V64.674H185.172C186.866 64.674 188.164 64.674 189.792 64.322ZM200.088 66.544H186.096V68.832H197.162V73.914H200.088V66.544ZM227.533 60.406V58.03H224.849V53.63H221.945V64.96H224.849V60.406H227.533ZM209.493 63.86H219.151V54.928H209.493V63.86ZM212.331 57.216H216.291V61.55H212.331V57.216ZM219.987 68.194H225.113V65.928H211.539V68.194H216.665C216.247 69.712 214.311 71.208 210.659 71.626L211.715 73.826C214.993 73.408 217.193 72.132 218.337 70.438C219.503 72.132 221.659 73.43 224.937 73.848L225.971 71.648C222.385 71.23 220.449 69.668 219.987 68.194ZM231.403 61.418H245.461V59.108H234.307V54.356H231.403V61.418ZM247.485 65.818V63.486H229.137V65.818H247.485ZM245.571 71.142H234.131V67.424H231.205V73.474H245.571V71.142ZM81.7323 106.87V86.608H78.9823V94.352H77.2883V86.938H74.5823V105.968H77.2883V96.684H78.9823V106.87H81.7323ZM72.9103 88.698H64.9243V101.832H72.9103V88.698ZM70.2263 99.566H67.6303V90.986H70.2263V99.566ZM98.4945 98.84H101.421V86.63H98.4945V98.84ZM95.9205 98.224L97.2405 95.958C94.0725 95.144 92.5545 93.076 92.4445 91.03H96.5145V88.742H92.4445V86.652H89.5405V88.742H85.4485V91.03H89.5405C89.4305 93.274 87.9565 95.518 84.7665 96.398L86.1305 98.664C88.5285 97.982 90.1565 96.53 91.0585 94.66C92.0045 96.332 93.6105 97.608 95.9205 98.224ZM94.5785 99.192C90.2885 99.192 87.6485 100.644 87.6485 103.042C87.6485 105.528 90.2885 106.914 94.5785 106.914C98.8465 106.914 101.487 105.528 101.487 103.042C101.487 100.644 98.8465 99.192 94.5785 99.192ZM94.5785 104.67C91.8725 104.67 90.5305 104.12 90.5305 103.042C90.5305 101.964 91.8725 101.414 94.5785 101.414C97.2625 101.414 98.6045 101.964 98.6045 103.042C98.6045 104.12 97.2625 104.67 94.5785 104.67ZM113.981 93.824C118.799 93.824 121.329 92.658 121.329 90.37C121.329 88.148 118.799 86.916 113.981 86.916C109.207 86.916 106.655 88.148 106.655 90.37C106.655 92.658 109.207 93.824 113.981 93.824ZM113.981 89.05C116.995 89.05 118.315 89.468 118.315 90.37C118.315 91.316 116.995 91.712 113.981 91.712C111.055 91.712 109.669 91.316 109.669 90.37C109.669 89.468 111.055 89.05 113.981 89.05ZM123.133 97.058V94.792H104.829V97.058H123.133ZM121.439 104.56H109.823V103.416H120.911V98.202H106.919V100.336H118.051V101.414H106.941V106.738H121.439V104.56ZM143.955 101.414H146.881V86.652H143.955V101.414ZM140.985 98.356L142.459 96.046C139.181 94.99 137.751 92.394 137.751 89.732V87.752H134.803V89.732C134.803 92.372 133.351 95.276 129.985 96.398L131.459 98.708C133.835 97.894 135.375 96.244 136.321 94.198C137.201 96.134 138.697 97.586 140.985 98.356ZM147.387 106.54V104.23H136.299V100.006H133.395V106.54H147.387ZM161.136 98.224L162.456 96.002C159.2 95.122 157.792 93.142 157.726 91.008H161.73V88.72H157.726V86.564H154.822V88.72H150.862V91.008H154.822C154.756 93.274 153.392 95.54 150.158 96.486L151.522 98.73C153.898 98.048 155.46 96.618 156.362 94.77C157.308 96.376 158.848 97.63 161.136 98.224ZM164.326 86.63V92.042H161.18V94.374H164.326V98.862H167.23V86.63H164.326ZM160.388 99.214C156.076 99.214 153.436 100.6 153.436 103.064C153.436 105.484 156.076 106.892 160.388 106.892C164.678 106.892 167.318 105.484 167.318 103.064C167.318 100.6 164.678 99.214 160.388 99.214ZM160.388 104.67C157.682 104.67 156.34 104.142 156.34 103.064C156.34 101.986 157.682 101.436 160.388 101.436C163.072 101.436 164.414 101.986 164.414 103.064C164.414 104.186 163.05 104.67 160.388 104.67ZM187.908 106.87V86.608H185.158V94.88H183.618V87.004H180.912V106.034H183.618V97.212H185.158V106.87H187.908ZM180.186 89.688H176.82V87.18H173.96V89.688H170.506V91.998H180.186V89.688ZM175.39 92.878C172.816 92.878 170.946 94.88 170.946 97.718C170.946 100.534 172.816 102.536 175.39 102.536C177.964 102.536 179.834 100.534 179.834 97.718C179.834 94.88 177.964 92.878 175.39 92.878ZM175.39 100.116C174.268 100.116 173.498 99.236 173.498 97.718C173.498 96.2 174.268 95.298 175.39 95.298C176.512 95.298 177.282 96.2 177.282 97.718C177.282 99.236 176.512 100.116 175.39 100.116ZM209.114 104.538V102.184H201.37V98.466H207.112V87.884H204.252V91.03H195.584V87.884H192.702V98.466H198.466V102.184H190.766V104.538H209.114ZM204.252 96.156H195.584V93.318H204.252V96.156ZM228.385 106.892V86.63H225.635V106.892H228.385ZM224.227 86.96H221.521V93.472H218.991V95.826H221.521V105.99H224.227V86.96ZM217.473 91.69V88.39H214.679V91.8C214.679 95.254 213.601 98.884 210.631 100.688L212.369 102.866C214.217 101.744 215.383 99.874 216.087 97.586C216.725 99.632 217.759 101.348 219.519 102.404L221.103 100.16C218.353 98.334 217.473 94.968 217.473 91.69ZM249.591 104.538V102.184H245.521V97.234C247.039 96.288 247.963 94.836 247.963 93.076C247.963 89.754 244.773 87.62 240.395 87.62C236.061 87.62 232.849 89.754 232.849 93.076C232.827 94.836 233.707 96.288 235.291 97.234V102.184H231.243V104.538H249.591ZM240.395 89.908C243.211 89.908 245.103 91.052 245.103 93.076C245.103 95.1 243.211 96.244 240.395 96.244C237.579 96.244 235.709 95.1 235.709 93.076C235.709 91.052 237.579 89.908 240.395 89.908ZM242.639 102.184H238.173V98.312C238.877 98.444 239.625 98.51 240.395 98.51C241.187 98.51 241.935 98.444 242.639 98.312V102.184ZM251.965 105.308H255.177V102.184H251.965V105.308Z" fill="white"/>
<path d="M118.152 161.784H116.584V167.416H114.936V162.056H113.384V175.544H114.936V168.76H116.584V176.216H118.152V161.784ZM106.296 163.368V172.472H111.864V163.368H106.296ZM107.832 171.16V164.68H110.328V171.16H107.832ZM132.439 170.584V161.784H130.791V170.584H132.439ZM128.727 169.96L129.479 168.68C127.239 168.04 125.927 166.472 125.927 164.76V164.744H129.031V163.432H125.927V161.784H124.279V163.432H121.143V164.744H124.279V164.76C124.279 166.568 122.967 168.344 120.727 169.016L121.511 170.28C123.255 169.752 124.487 168.616 125.127 167.144C125.815 168.488 127.047 169.496 128.727 169.96ZM127.607 170.856C124.567 170.856 122.711 171.848 122.711 173.544C122.711 175.24 124.567 176.232 127.607 176.232C130.647 176.232 132.503 175.24 132.503 173.544C132.503 171.848 130.647 170.856 127.607 170.856ZM127.607 174.952C125.543 174.952 124.359 174.456 124.359 173.544C124.359 172.632 125.543 172.136 127.607 172.136C129.671 172.136 130.855 172.632 130.855 173.544C130.855 174.456 129.671 174.952 127.607 174.952ZM150.736 172.36V161.8H149.088V172.36H150.736ZM146.736 170.088L147.584 168.776C145.36 168.008 144.096 166.072 144.096 164.024V162.584H142.416V164.024C142.416 166.152 141.152 168.168 138.88 169.032L139.728 170.36C141.456 169.72 142.624 168.408 143.28 166.792C143.904 168.328 145.072 169.464 146.736 170.088ZM151.152 174.616H142.96V171.368H141.296V175.96H151.152V174.616ZM161.39 169.976L162.158 168.712C159.95 168.072 158.638 166.504 158.638 164.856V164.728H161.678V163.416H158.654V161.704H156.99V163.416H153.95V164.728H156.99V164.856C156.99 166.648 155.742 168.376 153.518 169.064L154.318 170.344C156.046 169.816 157.23 168.712 157.87 167.24C158.526 168.52 159.726 169.512 161.39 169.976ZM163.87 165.768H161.262V167.128H163.87V170.52H165.518V161.768H163.87V165.768ZM160.702 170.84C157.678 170.84 155.838 171.8 155.838 173.528C155.838 175.24 157.678 176.232 160.702 176.232C163.726 176.232 165.582 175.24 165.582 173.528C165.582 171.832 163.726 170.84 160.702 170.84ZM160.702 174.952C158.638 174.952 157.486 174.44 157.486 173.528C157.486 172.616 158.638 172.12 160.702 172.12C162.766 172.12 163.934 172.616 163.934 173.528C163.934 174.44 162.766 174.952 160.702 174.952ZM181.709 168.968V167.592H179.485V161.784H177.821V176.248H179.485V168.968H181.709ZM173.277 164.008V161.992H171.629V164.008H168.189V165.352H176.653V164.008H173.277ZM172.477 166.376C170.381 166.376 168.893 167.768 168.893 169.752C168.893 171.736 170.381 173.128 172.477 173.128C174.525 173.128 176.061 171.736 176.061 169.752C176.061 167.768 174.525 166.376 172.477 166.376ZM172.477 171.768C171.309 171.768 170.461 170.968 170.461 169.752C170.461 168.536 171.309 167.736 172.477 167.736C173.645 167.736 174.493 168.536 174.493 169.752C174.493 170.968 173.645 171.768 172.477 171.768ZM194.908 161.784H193.26V176.232H194.908V161.784ZM190.652 163.304H183.804V164.648H188.956C188.684 167.976 186.876 170.504 183.084 172.344L183.964 173.656C188.924 171.256 190.652 167.608 190.652 163.304Z" fill="white"/>
<path d="M204.5 174L209.5 169L204.5 164" stroke="#FAFAFA"/>
</g>
<defs>
<clipPath id="clip0_1635_56449">
<rect width="320" height="220" rx="20" fill="white"/>
</clipPath>
</defs>
</svg>
