<svg width="960" height="300" viewBox="0 0 960 300" fill="none" xmlns="http://www.w3.org/2000/svg">
<g clip-path="url(#clip0_1666_56566)">
<rect width="960" height="300" rx="40" fill="#3380F4"/>
<g opacity="0.3">
<path d="M979 150C979 182.585 952.585 209 920 209C887.415 209 861 182.585 861 150C861 117.415 887.415 91 920 91C952.585 91 979 117.415 979 150Z" fill="#5BBAEF"/>
<path d="M920.454 117.323C921.101 135.346 935.562 149.807 953.585 150.454C935.562 151.101 921.101 165.562 920.454 183.585C919.807 165.562 905.346 151.101 887.323 150.454C905.346 149.807 919.807 135.346 920.454 117.323Z" fill="#1D1D1D"/>
</g>
<g opacity="0.3">
<path d="M761 150C761 182.585 734.585 209 702 209C669.415 209 643 182.585 643 150C643 117.415 669.415 91 702 91C734.585 91 761 117.415 761 150Z" fill="#1F539F"/>
<path d="M685.662 172.347V127.652C685.662 126.272 687.141 125.396 688.351 126.061L729.055 148.408C730.311 149.098 730.311 150.902 729.055 151.591L688.351 173.939C687.141 174.603 685.662 173.728 685.662 172.347Z" fill="#1D1D1D"/>
</g>
<g opacity="0.3">
<path d="M224 150C224 182.585 197.585 209 165 209C132.415 209 106 182.585 106 150C106 117.415 132.415 91 165 91C197.585 91 224 117.415 224 150Z" fill="#373DC6"/>
<path d="M189.037 157.455L189.071 157.492L165 181.763L140.929 157.492L140.964 157.455C138.168 154.169 136.708 149.939 136.875 145.613C137.042 141.287 138.824 137.185 141.864 134.128C144.904 131.071 148.977 129.285 153.268 129.129C157.558 128.972 161.749 132.19 165 135.018C168.251 132.19 172.442 128.972 176.733 129.129C181.023 129.285 185.097 131.071 188.137 134.128C191.177 137.185 192.959 141.287 193.126 145.613C193.293 149.939 191.832 154.169 189.037 157.455Z" fill="#1D1D1D"/>
</g>
<g opacity="0.3">
<path d="M86 150C86 182.585 59.5848 209 27 209C-5.5848 209 -32 182.585 -32 150C-32 117.415 -5.5848 91 27 91C59.5848 91 86 117.415 86 150Z" fill="#ADBFFF"/>
<path fill-rule="evenodd" clip-rule="evenodd" d="M49.569 130.985V118.309L11.5386 126.76L11.5386 135.211H11.5374V165.92C10.2945 165.202 8.85153 164.79 7.31251 164.79C2.64505 164.79 -1.13867 168.574 -1.13867 173.241C-1.13867 177.909 2.64505 181.693 7.31251 181.693C11.98 181.693 15.7637 177.909 15.7637 173.241C15.7637 173.204 15.7634 173.166 15.763 173.128V138.498L45.3428 131.925V161.695C44.0997 160.976 42.6563 160.564 41.1168 160.564C36.4494 160.564 32.6656 164.348 32.6656 169.015C32.6656 173.683 36.4494 177.466 41.1168 177.466C45.7843 177.466 49.568 173.683 49.568 169.015C49.568 169.015 49.568 169.015 49.568 169.015H49.5684V130.985L49.569 130.985Z" fill="#1D1D1D"/>
</g>
<path d="M377.667 117.752V88.28H373.443V117.752H377.667ZM364.643 96.216V94.584H370.723V91.096H354.211V94.584H360.355V96.216C360.355 101.24 357.987 106.648 353.027 108.856L355.427 112.216C358.883 110.648 361.251 107.448 362.563 103.576C363.875 107.192 366.179 109.976 369.635 111.48L371.939 108.152C367.011 106.104 364.643 101.016 364.643 96.216ZM409.377 103.576V100.216H405.569C406.241 96.792 406.241 94.36 406.241 91.96V89.592H385.985V92.952H402.081C402.081 95 401.985 97.272 401.377 100.216H382.689V103.576H409.377ZM406.113 106.648H385.825V117.4H406.113V106.648ZM401.985 114.104H389.985V109.944H401.985V114.104ZM442.448 102.872H446.576V99.384H442.448V88.248H438.224V117.688H442.448V102.872ZM424.496 107V91.064H420.272V110.52H422.832C427.216 110.52 431.856 110.264 436.752 109.24L436.336 105.784C432.208 106.584 428.24 106.904 424.496 107ZM474.094 117.72V88.248H470.094V117.72H474.094ZM468.046 88.76H464.11V99.128H461.774C461.294 93.368 458.926 90.36 455.438 90.36C451.534 90.36 449.07 94.392 449.07 101.048C449.07 107.736 451.534 111.768 455.438 111.768C459.054 111.768 461.422 108.344 461.806 102.552H464.11V116.44H468.046V88.76ZM455.438 107.8C453.806 107.8 452.878 105.688 452.878 101.048C452.878 96.536 453.806 94.328 455.438 94.328C457.07 94.328 457.998 96.536 457.998 101.048C457.998 105.688 457.07 107.8 455.438 107.8ZM503.595 117.72V88.248H499.595V117.72H503.595ZM497.323 88.92H493.387V99.544H490.091C490.827 97.112 491.051 94.584 491.051 91.768H479.499V95.128H486.859C486.347 100.92 483.755 105.176 477.867 108.664L480.267 111.64C484.523 109.208 487.115 106.296 488.779 102.936H493.387V116.44H497.323V88.92ZM538.811 99.128H542.043V95.672H538.811V88.248H534.587V105.88H538.811V99.128ZM533.435 103.8L533.115 100.376C531.739 100.728 530.587 100.824 528.699 100.856V93.976H532.539V90.616H524.699V104.344H526.267C529.883 104.344 531.483 104.312 533.435 103.8ZM523.835 103.832L523.515 100.408C522.139 100.664 520.891 100.76 519.611 100.856V93.976H523.227V90.616H515.611V104.344H517.115C519.579 104.344 521.467 104.344 523.835 103.832ZM538.811 107.064H518.459V110.392H534.555V117.784H538.811V107.064ZM578.73 98.136V94.68H574.826V88.28H570.602V104.76H574.826V98.136H578.73ZM552.49 103.16H566.538V90.168H552.49V103.16ZM556.618 93.496H562.378V99.8H556.618V93.496ZM567.754 109.464H575.21V106.168H555.466V109.464H562.922C562.314 111.672 559.498 113.848 554.186 114.456L555.722 117.656C560.49 117.048 563.69 115.192 565.354 112.728C567.05 115.192 570.186 117.08 574.954 117.688L576.458 114.488C571.242 113.88 568.426 111.608 567.754 109.464ZM584.36 99.608H604.808V96.248H588.584V89.336H584.36V99.608ZM607.752 106.008V102.616H581.064V106.008H607.752ZM604.968 113.752H588.328V108.344H584.072V117.144H604.968V113.752ZM366.656 165.72V136.248H362.656V147.512H360.192V136.728H356.256V164.408H360.192V150.904H362.656V165.72H366.656ZM353.824 139.288H342.208V158.392H353.824V139.288ZM349.92 155.096H346.144V142.616H349.92V155.096ZM391.038 154.04H395.294V136.28H391.038V154.04ZM387.294 153.144L389.214 149.848C384.606 148.664 382.398 145.656 382.238 142.68H388.158V139.352H382.238V136.312H378.014V139.352H372.062V142.68H378.014C377.854 145.944 375.71 149.208 371.07 150.488L373.054 153.784C376.542 152.792 378.91 150.68 380.222 147.96C381.598 150.392 383.934 152.248 387.294 153.144ZM385.342 154.552C379.102 154.552 375.262 156.664 375.262 160.152C375.262 163.768 379.102 165.784 385.342 165.784C391.55 165.784 395.39 163.768 395.39 160.152C395.39 156.664 391.55 154.552 385.342 154.552ZM385.342 162.52C381.406 162.52 379.454 161.72 379.454 160.152C379.454 158.584 381.406 157.784 385.342 157.784C389.246 157.784 391.198 158.584 391.198 160.152C391.198 161.72 389.246 162.52 385.342 162.52ZM413.563 146.744C420.571 146.744 424.251 145.048 424.251 141.72C424.251 138.488 420.571 136.696 413.563 136.696C406.619 136.696 402.907 138.488 402.907 141.72C402.907 145.048 406.619 146.744 413.563 146.744ZM413.563 139.8C417.947 139.8 419.867 140.408 419.867 141.72C419.867 143.096 417.947 143.672 413.563 143.672C409.307 143.672 407.291 143.096 407.291 141.72C407.291 140.408 409.307 139.8 413.563 139.8ZM426.875 151.448V148.152H400.251V151.448H426.875ZM424.411 162.36H407.515V160.696H423.643V153.112H403.291V156.216H419.483V157.784H403.323V165.528H424.411V162.36ZM457.163 157.784H461.419V136.312H457.163V157.784ZM452.843 153.336L454.987 149.976C450.219 148.44 448.139 144.664 448.139 140.792V137.912H443.851V140.792C443.851 144.632 441.739 148.856 436.843 150.488L438.987 153.848C442.443 152.664 444.683 150.264 446.059 147.288C447.339 150.104 449.515 152.216 452.843 153.336ZM462.155 165.24V161.88H446.027V155.736H441.803V165.24H462.155ZM482.152 153.144L484.072 149.912C479.336 148.632 477.288 145.752 477.192 142.648H483.016V139.32H477.192V136.184H472.968V139.32H467.208V142.648H472.968C472.872 145.944 470.888 149.24 466.184 150.616L468.168 153.88C471.624 152.888 473.896 150.808 475.208 148.12C476.584 150.456 478.824 152.28 482.152 153.144ZM486.792 136.28V144.152H482.216V147.544H486.792V154.072H491.016V136.28H486.792ZM481.064 154.584C474.792 154.584 470.952 156.6 470.952 160.184C470.952 163.704 474.792 165.752 481.064 165.752C487.304 165.752 491.144 163.704 491.144 160.184C491.144 156.6 487.304 154.584 481.064 154.584ZM481.064 162.52C477.128 162.52 475.176 161.752 475.176 160.184C475.176 158.616 477.128 157.816 481.064 157.816C484.968 157.816 486.92 158.616 486.92 160.184C486.92 161.816 484.936 162.52 481.064 162.52ZM521.094 165.72V136.248H517.094V148.28H514.854V136.824H510.918V164.504H514.854V151.672H517.094V165.72H521.094ZM509.862 140.728H504.966V137.08H500.806V140.728H495.782V144.088H509.862V140.728ZM502.885 145.368C499.141 145.368 496.422 148.28 496.422 152.408C496.422 156.504 499.141 159.416 502.885 159.416C506.63 159.416 509.35 156.504 509.35 152.408C509.35 148.28 506.63 145.368 502.885 145.368ZM502.885 155.896C501.254 155.896 500.134 154.616 500.134 152.408C500.134 150.2 501.254 148.888 502.885 148.888C504.518 148.888 505.638 150.2 505.638 152.408C505.638 154.616 504.518 155.896 502.885 155.896ZM551.939 162.328V158.904H540.675V153.496H549.027V138.104H544.867V142.68H532.259V138.104H528.067V153.496H536.451V158.904H525.251V162.328H551.939ZM544.867 150.136H532.259V146.008H544.867V150.136ZM579.969 165.752V136.28H575.969V165.752H579.969ZM573.921 136.76H569.985V146.232H566.305V149.656H569.985V164.44H573.921V136.76ZM564.097 143.64V138.84H560.033V143.8C560.033 148.824 558.465 154.104 554.145 156.728L556.673 159.896C559.361 158.264 561.057 155.544 562.081 152.216C563.009 155.192 564.513 157.688 567.073 159.224L569.377 155.96C565.377 153.304 564.097 148.408 564.097 143.64ZM610.814 162.328V158.904H604.894V151.704C607.102 150.328 608.446 148.216 608.446 145.656C608.446 140.824 603.806 137.72 597.438 137.72C591.134 137.72 586.462 140.824 586.462 145.656C586.43 148.216 587.71 150.328 590.014 151.704V158.904H584.126V162.328H610.814ZM597.438 141.048C601.534 141.048 604.286 142.712 604.286 145.656C604.286 148.6 601.534 150.264 597.438 150.264C593.342 150.264 590.622 148.6 590.622 145.656C590.622 142.712 593.342 141.048 597.438 141.048ZM600.702 158.904H594.206V153.272C595.23 153.464 596.318 153.56 597.438 153.56C598.59 153.56 599.678 153.464 600.702 153.272V158.904ZM614.268 163.448H618.94V158.904H614.268V163.448Z" fill="white"/>
<path d="M433.796 210.132H432.032V216.468H430.178V210.438H428.432V225.612H430.178V217.98H432.032V226.368H433.796V210.132ZM420.458 211.914V222.156H426.722V211.914H420.458ZM422.186 220.68V213.39H424.994V220.68H422.186ZM449.869 220.032V210.132H448.015V220.032H449.869ZM445.693 219.33L446.539 217.89C444.019 217.17 442.543 215.406 442.543 213.48V213.462H446.035V211.986H442.543V210.132H440.689V211.986H437.161V213.462H440.689V213.48C440.689 215.514 439.213 217.512 436.693 218.268L437.575 219.69C439.537 219.096 440.923 217.818 441.643 216.162C442.417 217.674 443.803 218.808 445.693 219.33ZM444.433 220.338C441.013 220.338 438.925 221.454 438.925 223.362C438.925 225.27 441.013 226.386 444.433 226.386C447.853 226.386 449.941 225.27 449.941 223.362C449.941 221.454 447.853 220.338 444.433 220.338ZM444.433 224.946C442.111 224.946 440.779 224.388 440.779 223.362C440.779 222.336 442.111 221.778 444.433 221.778C446.755 221.778 448.087 222.336 448.087 223.362C448.087 224.388 446.755 224.946 444.433 224.946ZM470.453 222.03V210.15H468.599V222.03H470.453ZM465.953 219.474L466.907 217.998C464.405 217.134 462.983 214.956 462.983 212.652V211.032H461.093V212.652C461.093 215.046 459.671 217.314 457.115 218.286L458.069 219.78C460.013 219.06 461.327 217.584 462.065 215.766C462.767 217.494 464.081 218.772 465.953 219.474ZM470.921 224.568H461.705V220.914H459.833V226.08H470.921V224.568ZM482.439 219.348L483.303 217.926C480.819 217.206 479.343 215.442 479.343 213.588V213.444H482.763V211.968H479.361V210.042H477.489V211.968H474.069V213.444H477.489V213.588C477.489 215.604 476.085 217.548 473.583 218.322L474.483 219.762C476.427 219.168 477.759 217.926 478.479 216.27C479.217 217.71 480.567 218.826 482.439 219.348ZM485.229 214.614H482.295V216.144H485.229V219.96H487.083V210.114H485.229V214.614ZM481.665 220.32C478.263 220.32 476.193 221.4 476.193 223.344C476.193 225.27 478.263 226.386 481.665 226.386C485.067 226.386 487.155 225.27 487.155 223.344C487.155 221.436 485.067 220.32 481.665 220.32ZM481.665 224.946C479.343 224.946 478.047 224.37 478.047 223.344C478.047 222.318 479.343 221.76 481.665 221.76C483.987 221.76 485.301 222.318 485.301 223.344C485.301 224.37 483.987 224.946 481.665 224.946ZM505.298 218.214V216.666H502.796V210.132H500.924V226.404H502.796V218.214H505.298ZM495.812 212.634V210.366H493.958V212.634H490.088V214.146H499.61V212.634H495.812ZM494.912 215.298C492.554 215.298 490.88 216.864 490.88 219.096C490.88 221.328 492.554 222.894 494.912 222.894C497.216 222.894 498.944 221.328 498.944 219.096C498.944 216.864 497.216 215.298 494.912 215.298ZM494.912 221.364C493.598 221.364 492.644 220.464 492.644 219.096C492.644 217.728 493.598 216.828 494.912 216.828C496.226 216.828 497.18 217.728 497.18 219.096C497.18 220.464 496.226 221.364 494.912 221.364ZM520.146 210.132H518.292V226.386H520.146V210.132ZM515.358 211.842H507.654V213.354H513.45C513.144 217.098 511.11 219.942 506.844 222.012L507.834 223.488C513.414 220.788 515.358 216.684 515.358 211.842Z" fill="white"/>
<path d="M530.5 223L535.5 218L530.5 213" stroke="#FAFAFA"/>
</g>
<defs>
<clipPath id="clip0_1666_56566">
<rect width="960" height="300" rx="40" fill="white"/>
</clipPath>
</defs>
</svg>
