<svg width="186" height="54" viewBox="0 0 186 54" fill="none" xmlns="http://www.w3.org/2000/svg">
<path d="M22.3023 20.892V0.629999H19.3983V20.892H22.3023ZM13.3483 6.086V4.964H17.5283V2.566H6.17631V4.964H10.4003V6.086C10.4003 9.54 8.77231 13.258 5.36231 14.776L7.01231 17.086C9.38831 16.008 11.0163 13.808 11.9183 11.146C12.8203 13.632 14.4043 15.546 16.7803 16.58L18.3643 14.292C14.9763 12.884 13.3483 9.386 13.3483 6.086ZM44.1026 11.146V8.836H41.4846C41.9466 6.482 41.9466 4.81 41.9466 3.16V1.532H28.0206V3.842H39.0866C39.0866 5.25 39.0206 6.812 38.6026 8.836H25.7546V11.146H44.1026ZM41.8586 13.258H27.9106V20.65H41.8586V13.258ZM39.0206 18.384H30.7706V15.524H39.0206V18.384ZM66.8393 10.662H69.6773V8.264H66.8393V0.607999H63.9353V20.848H66.8393V10.662ZM54.4973 13.5V2.544H51.5933V15.92H53.3533C56.3673 15.92 59.5573 15.744 62.9233 15.04L62.6373 12.664C59.7993 13.214 57.0713 13.434 54.4973 13.5ZM88.5955 20.87V0.607999H85.8455V20.87H88.5955ZM84.4375 0.959999H81.7315V8.088H80.1255C79.7955 4.128 78.1675 2.06 75.7695 2.06C73.0855 2.06 71.3915 4.832 71.3915 9.408C71.3915 14.006 73.0855 16.778 75.7695 16.778C78.2555 16.778 79.8835 14.424 80.1475 10.442H81.7315V19.99H84.4375V0.959999ZM75.7695 14.05C74.6475 14.05 74.0095 12.598 74.0095 9.408C74.0095 6.306 74.6475 4.788 75.7695 4.788C76.8915 4.788 77.5295 6.306 77.5295 9.408C77.5295 12.598 76.8915 14.05 75.7695 14.05ZM108.878 20.87V0.607999H106.128V20.87H108.878ZM104.566 1.07H101.86V8.374H99.5938C100.1 6.702 100.254 4.964 100.254 3.028H92.3118V5.338H97.3718C97.0198 9.32 95.2378 12.246 91.1898 14.644L92.8398 16.69C95.7658 15.018 97.5478 13.016 98.6918 10.706H101.86V19.99H104.566V1.07ZM133.088 8.088H135.31V5.712H133.088V0.607999H130.184V12.73H133.088V8.088ZM129.392 11.3L129.172 8.946C128.226 9.188 127.434 9.254 126.136 9.276V4.546H128.776V2.236H123.386V11.674H124.464C126.95 11.674 128.05 11.652 129.392 11.3ZM122.792 11.322L122.572 8.968C121.626 9.144 120.768 9.21 119.888 9.276V4.546H122.374V2.236H117.138V11.674H118.172C119.866 11.674 121.164 11.674 122.792 11.322ZM133.088 13.544H119.096V15.832H130.162V20.914H133.088V13.544ZM160.533 7.406V5.03H157.849V0.629999H154.945V11.96H157.849V7.406H160.533ZM142.493 10.86H152.151V1.928H142.493V10.86ZM145.331 4.216H149.291V8.55H145.331V4.216ZM152.987 15.194H158.113V12.928H144.539V15.194H149.665C149.247 16.712 147.311 18.208 143.659 18.626L144.715 20.826C147.993 20.408 150.193 19.132 151.337 17.438C152.503 19.132 154.659 20.43 157.937 20.848L158.971 18.648C155.385 18.23 153.449 16.668 152.987 15.194ZM164.403 8.418H178.461V6.108H167.307V1.356H164.403V8.418ZM180.485 12.818V10.486H162.137V12.818H180.485ZM178.571 18.142H167.131V14.424H164.205V20.474H178.571V18.142ZM17.7615 53.87V33.608H15.0115V41.352H13.3175V33.938H10.6115V52.968H13.3175V43.684H15.0115V53.87H17.7615ZM8.93955 35.698H0.953547V48.832H8.93955V35.698ZM6.25555 46.566H3.65955V37.986H6.25555V46.566ZM34.5238 45.84H37.4498V33.63H34.5238V45.84ZM31.9498 45.224L33.2698 42.958C30.1018 42.144 28.5838 40.076 28.4738 38.03H32.5438V35.742H28.4738V33.652H25.5698V35.742H21.4778V38.03H25.5698C25.4598 40.274 23.9858 42.518 20.7958 43.398L22.1598 45.664C24.5578 44.982 26.1858 43.53 27.0878 41.66C28.0338 43.332 29.6398 44.608 31.9498 45.224ZM30.6078 46.192C26.3178 46.192 23.6778 47.644 23.6778 50.042C23.6778 52.528 26.3178 53.914 30.6078 53.914C34.8758 53.914 37.5158 52.528 37.5158 50.042C37.5158 47.644 34.8758 46.192 30.6078 46.192ZM30.6078 51.67C27.9018 51.67 26.5598 51.12 26.5598 50.042C26.5598 48.964 27.9018 48.414 30.6078 48.414C33.2918 48.414 34.6338 48.964 34.6338 50.042C34.6338 51.12 33.2918 51.67 30.6078 51.67ZM50.0101 40.824C54.8281 40.824 57.3581 39.658 57.3581 37.37C57.3581 35.148 54.8281 33.916 50.0101 33.916C45.2361 33.916 42.6841 35.148 42.6841 37.37C42.6841 39.658 45.2361 40.824 50.0101 40.824ZM50.0101 36.05C53.0241 36.05 54.3441 36.468 54.3441 37.37C54.3441 38.316 53.0241 38.712 50.0101 38.712C47.0841 38.712 45.6981 38.316 45.6981 37.37C45.6981 36.468 47.0841 36.05 50.0101 36.05ZM59.1621 44.058V41.792H40.8581V44.058H59.1621ZM57.4681 51.56H45.8521V50.416H56.9401V45.202H42.9481V47.336H54.0801V48.414H42.9701V53.738H57.4681V51.56ZM79.9848 48.414H82.9108V33.652H79.9848V48.414ZM77.0148 45.356L78.4888 43.046C75.2108 41.99 73.7808 39.394 73.7808 36.732V34.752H70.8328V36.732C70.8328 39.372 69.3808 42.276 66.0148 43.398L67.4888 45.708C69.8648 44.894 71.4048 43.244 72.3508 41.198C73.2308 43.134 74.7268 44.586 77.0148 45.356ZM83.4168 53.54V51.23H72.3288V47.006H69.4248V53.54H83.4168ZM97.165 45.224L98.485 43.002C95.229 42.122 93.821 40.142 93.755 38.008H97.759V35.72H93.755V33.564H90.851V35.72H86.891V38.008H90.851C90.785 40.274 89.421 42.54 86.187 43.486L87.551 45.73C89.927 45.048 91.489 43.618 92.391 41.77C93.337 43.376 94.877 44.63 97.165 45.224ZM100.355 33.63V39.042H97.209V41.374H100.355V45.862H103.259V33.63H100.355ZM96.417 46.214C92.105 46.214 89.465 47.6 89.465 50.064C89.465 52.484 92.105 53.892 96.417 53.892C100.707 53.892 103.347 52.484 103.347 50.064C103.347 47.6 100.707 46.214 96.417 46.214ZM96.417 51.67C93.711 51.67 92.369 51.142 92.369 50.064C92.369 48.986 93.711 48.436 96.417 48.436C99.101 48.436 100.443 48.986 100.443 50.064C100.443 51.186 99.079 51.67 96.417 51.67ZM123.937 53.87V33.608H121.187V41.88H119.647V34.004H116.941V53.034H119.647V44.212H121.187V53.87H123.937ZM116.215 36.688H112.849V34.18H109.989V36.688H106.535V38.998H116.215V36.688ZM111.419 39.878C108.845 39.878 106.975 41.88 106.975 44.718C106.975 47.534 108.845 49.536 111.419 49.536C113.993 49.536 115.863 47.534 115.863 44.718C115.863 41.88 113.993 39.878 111.419 39.878ZM111.419 47.116C110.297 47.116 109.527 46.236 109.527 44.718C109.527 43.2 110.297 42.298 111.419 42.298C112.541 42.298 113.311 43.2 113.311 44.718C113.311 46.236 112.541 47.116 111.419 47.116ZM145.144 51.538V49.184H137.4V45.466H143.142V34.884H140.282V38.03H131.614V34.884H128.732V45.466H134.496V49.184H126.796V51.538H145.144ZM140.282 43.156H131.614V40.318H140.282V43.156ZM164.414 53.892V33.63H161.664V53.892H164.414ZM160.256 33.96H157.55V40.472H155.02V42.826H157.55V52.99H160.256V33.96ZM153.502 38.69V35.39H150.708V38.8C150.708 42.254 149.63 45.884 146.66 47.688L148.398 49.866C150.246 48.744 151.412 46.874 152.116 44.586C152.754 46.632 153.788 48.348 155.548 49.404L157.132 47.16C154.382 45.334 153.502 41.968 153.502 38.69ZM185.62 51.538V49.184H181.55V44.234C183.068 43.288 183.992 41.836 183.992 40.076C183.992 36.754 180.802 34.62 176.424 34.62C172.09 34.62 168.878 36.754 168.878 40.076C168.856 41.836 169.736 43.288 171.32 44.234V49.184H167.272V51.538H185.62ZM176.424 36.908C179.24 36.908 181.132 38.052 181.132 40.076C181.132 42.1 179.24 43.244 176.424 43.244C173.608 43.244 171.738 42.1 171.738 40.076C171.738 38.052 173.608 36.908 176.424 36.908ZM178.668 49.184H174.202V45.312C174.906 45.444 175.654 45.51 176.424 45.51C177.216 45.51 177.964 45.444 178.668 45.312V49.184Z" fill="white"/>
</svg>
