<svg width="110" height="21" viewBox="0 0 110 21" fill="none" xmlns="http://www.w3.org/2000/svg">
<path d="M13.152 2.784H11.584V8.416H9.936V3.056H8.384V16.544H9.936V9.76H11.584V17.216H13.152V2.784ZM1.296 4.368V13.472H6.864V4.368H1.296ZM2.832 12.16V5.68H5.328V12.16H2.832ZM27.4388 11.584V2.784H25.7908V11.584H27.4388ZM23.7268 10.96L24.4788 9.68C22.2388 9.04 20.9268 7.472 20.9268 5.76V5.744H24.0308V4.432H20.9268V2.784H19.2788V4.432H16.1428V5.744H19.2788V5.76C19.2788 7.568 17.9668 9.344 15.7268 10.016L16.5108 11.28C18.2548 10.752 19.4868 9.616 20.1268 8.144C20.8148 9.488 22.0468 10.496 23.7268 10.96ZM22.6068 11.856C19.5668 11.856 17.7108 12.848 17.7108 14.544C17.7108 16.24 19.5668 17.232 22.6068 17.232C25.6468 17.232 27.5028 16.24 27.5028 14.544C27.5028 12.848 25.6468 11.856 22.6068 11.856ZM22.6068 15.952C20.5428 15.952 19.3588 15.456 19.3588 14.544C19.3588 13.632 20.5428 13.136 22.6068 13.136C24.6708 13.136 25.8548 13.632 25.8548 14.544C25.8548 15.456 24.6708 15.952 22.6068 15.952ZM45.7356 13.36V2.8H44.0876V13.36H45.7356ZM41.7356 11.088L42.5836 9.776C40.3596 9.008 39.0956 7.072 39.0956 5.024V3.584H37.4156V5.024C37.4156 7.152 36.1516 9.168 33.8796 10.032L34.7276 11.36C36.4556 10.72 37.6236 9.408 38.2796 7.792C38.9036 9.328 40.0716 10.464 41.7356 11.088ZM46.1516 15.616H37.9596V12.368H36.2956V16.96H46.1516V15.616ZM56.3904 10.976L57.1584 9.712C54.9504 9.072 53.6384 7.504 53.6384 5.856V5.728H56.6784V4.416H53.6544V2.704H51.9904V4.416H48.9504V5.728H51.9904V5.856C51.9904 7.648 50.7424 9.376 48.5184 10.064L49.3184 11.344C51.0464 10.816 52.2304 9.712 52.8704 8.24C53.5264 9.52 54.7264 10.512 56.3904 10.976ZM58.8704 6.768H56.2624V8.128H58.8704V11.52H60.5184V2.768H58.8704V6.768ZM55.7024 11.84C52.6784 11.84 50.8384 12.8 50.8384 14.528C50.8384 16.24 52.6784 17.232 55.7024 17.232C58.7264 17.232 60.5824 16.24 60.5824 14.528C60.5824 12.832 58.7264 11.84 55.7024 11.84ZM55.7024 15.952C53.6384 15.952 52.4864 15.44 52.4864 14.528C52.4864 13.616 53.6384 13.12 55.7024 13.12C57.7664 13.12 58.9344 13.616 58.9344 14.528C58.9344 15.44 57.7664 15.952 55.7024 15.952ZM76.7091 9.968V8.592H74.4851V2.784H72.8211V17.248H74.4851V9.968H76.7091ZM68.2771 5.008V2.992H66.6291V5.008H63.1891V6.352H71.6531V5.008H68.2771ZM67.4771 7.376C65.3811 7.376 63.8931 8.768 63.8931 10.752C63.8931 12.736 65.3811 14.128 67.4771 14.128C69.5251 14.128 71.0611 12.736 71.0611 10.752C71.0611 8.768 69.5251 7.376 67.4771 7.376ZM67.4771 12.768C66.3091 12.768 65.4611 11.968 65.4611 10.752C65.4611 9.536 66.3091 8.736 67.4771 8.736C68.6451 8.736 69.4931 9.536 69.4931 10.752C69.4931 11.968 68.6451 12.768 67.4771 12.768ZM89.9079 2.784H88.2599V17.232H89.9079V2.784ZM85.6519 4.304H78.8039V5.648H83.9559C83.6839 8.976 81.8759 11.504 78.0839 13.344L78.9639 14.656C83.9239 12.256 85.6519 8.608 85.6519 4.304Z" fill="white"/>
<path d="M99.5 15L104.5 10L99.5 5" stroke="#FAFAFA"/>
</svg>
