<svg width="560" height="300" viewBox="0 0 560 300" fill="none" xmlns="http://www.w3.org/2000/svg">
<g clip-path="url(#clip0_1635_56337)">
<rect width="560" height="300" rx="40" fill="#3380F4"/>
<g opacity="0.3">
<path d="M579 150C579 182.585 552.585 209 520 209C487.415 209 461 182.585 461 150C461 117.415 487.415 91 520 91C552.585 91 579 117.415 579 150Z" fill="#5BBAEF"/>
<path d="M520.454 117.323C521.101 135.346 535.562 149.807 553.585 150.454C535.562 151.101 521.101 165.562 520.454 183.585C519.807 165.562 505.346 151.101 487.323 150.454C505.346 149.807 519.807 135.346 520.454 117.323Z" fill="#1D1D1D"/>
</g>
<g opacity="0.3">
<path d="M361 150C361 182.585 334.585 209 302 209C269.415 209 243 182.585 243 150C243 117.415 269.415 91 302 91C334.585 91 361 117.415 361 150Z" fill="#1F539F"/>
<path d="M285.662 172.347V127.652C285.662 126.272 287.141 125.396 288.351 126.061L329.056 148.408C330.312 149.098 330.312 150.902 329.056 151.591L288.351 173.939C287.141 174.603 285.662 173.728 285.662 172.347Z" fill="#1D1D1D"/>
</g>
<g opacity="0.3">
<path d="M224 150C224 182.585 197.585 209 165 209C132.415 209 106 182.585 106 150C106 117.415 132.415 91 165 91C197.585 91 224 117.415 224 150Z" fill="#373DC6"/>
<path d="M189.037 157.455L189.071 157.492L165 181.763L140.929 157.492L140.963 157.455C138.168 154.169 136.707 149.939 136.874 145.613C137.041 141.287 138.823 137.185 141.863 134.128C144.903 131.071 148.977 129.285 153.267 129.129C157.558 128.972 161.749 132.19 165 135.018C168.251 132.19 172.442 128.972 176.732 129.129C181.023 129.285 185.096 131.071 188.136 134.128C191.176 137.185 192.958 141.287 193.125 145.613C193.292 149.939 191.832 154.169 189.037 157.455Z" fill="#1D1D1D"/>
</g>
<g opacity="0.3">
<path d="M86 150C86 182.585 59.5848 209 27 209C-5.5848 209 -32 182.585 -32 150C-32 117.415 -5.5848 91 27 91C59.5848 91 86 117.415 86 150Z" fill="#ADBFFF"/>
<path fill-rule="evenodd" clip-rule="evenodd" d="M49.569 130.985V118.309L11.5386 126.76L11.5386 135.211H11.5374V165.92C10.2945 165.202 8.85153 164.79 7.31251 164.79C2.64505 164.79 -1.13867 168.574 -1.13867 173.241C-1.13867 177.909 2.64505 181.693 7.31251 181.693C11.98 181.693 15.7637 177.909 15.7637 173.241C15.7637 173.204 15.7634 173.166 15.763 173.128V138.498L45.3428 131.925V161.695C44.0997 160.976 42.6563 160.564 41.1168 160.564C36.4494 160.564 32.6656 164.348 32.6656 169.015C32.6656 173.683 36.4494 177.466 41.1168 177.466C45.7843 177.466 49.568 173.683 49.568 169.015C49.568 169.015 49.568 169.015 49.568 169.015H49.5684V130.985L49.569 130.985Z" fill="#1D1D1D"/>
</g>
<path d="M177.667 117.752V88.28H173.443V117.752H177.667ZM164.643 96.216V94.584H170.723V91.096H154.211V94.584H160.355V96.216C160.355 101.24 157.987 106.648 153.027 108.856L155.427 112.216C158.883 110.648 161.251 107.448 162.563 103.576C163.875 107.192 166.179 109.976 169.635 111.48L171.939 108.152C167.011 106.104 164.643 101.016 164.643 96.216ZM209.377 103.576V100.216H205.569C206.241 96.792 206.241 94.36 206.241 91.96V89.592H185.985V92.952H202.081C202.081 95 201.985 97.272 201.377 100.216H182.689V103.576H209.377ZM206.113 106.648H185.825V117.4H206.113V106.648ZM201.985 114.104H189.985V109.944H201.985V114.104ZM242.448 102.872H246.576V99.384H242.448V88.248H238.224V117.688H242.448V102.872ZM224.496 107V91.064H220.272V110.52H222.832C227.216 110.52 231.856 110.264 236.752 109.24L236.336 105.784C232.208 106.584 228.24 106.904 224.496 107ZM274.094 117.72V88.248H270.094V117.72H274.094ZM268.046 88.76H264.11V99.128H261.774C261.294 93.368 258.926 90.36 255.438 90.36C251.534 90.36 249.07 94.392 249.07 101.048C249.07 107.736 251.534 111.768 255.438 111.768C259.054 111.768 261.422 108.344 261.806 102.552H264.11V116.44H268.046V88.76ZM255.438 107.8C253.806 107.8 252.878 105.688 252.878 101.048C252.878 96.536 253.806 94.328 255.438 94.328C257.07 94.328 257.998 96.536 257.998 101.048C257.998 105.688 257.07 107.8 255.438 107.8ZM303.595 117.72V88.248H299.595V117.72H303.595ZM297.323 88.92H293.387V99.544H290.091C290.827 97.112 291.051 94.584 291.051 91.768H279.499V95.128H286.859C286.347 100.92 283.755 105.176 277.867 108.664L280.267 111.64C284.523 109.208 287.115 106.296 288.779 102.936H293.387V116.44H297.323V88.92ZM338.811 99.128H342.043V95.672H338.811V88.248H334.587V105.88H338.811V99.128ZM333.435 103.8L333.115 100.376C331.739 100.728 330.587 100.824 328.699 100.856V93.976H332.539V90.616H324.699V104.344H326.267C329.883 104.344 331.483 104.312 333.435 103.8ZM323.835 103.832L323.515 100.408C322.139 100.664 320.891 100.76 319.611 100.856V93.976H323.227V90.616H315.611V104.344H317.115C319.579 104.344 321.467 104.344 323.835 103.832ZM338.811 107.064H318.459V110.392H334.555V117.784H338.811V107.064ZM378.73 98.136V94.68H374.826V88.28H370.602V104.76H374.826V98.136H378.73ZM352.49 103.16H366.538V90.168H352.49V103.16ZM356.618 93.496H362.378V99.8H356.618V93.496ZM367.754 109.464H375.21V106.168H355.466V109.464H362.922C362.314 111.672 359.498 113.848 354.186 114.456L355.722 117.656C360.49 117.048 363.69 115.192 365.354 112.728C367.05 115.192 370.186 117.08 374.954 117.688L376.458 114.488C371.242 113.88 368.426 111.608 367.754 109.464ZM384.36 99.608H404.808V96.248H388.584V89.336H384.36V99.608ZM407.752 106.008V102.616H381.064V106.008H407.752ZM404.968 113.752H388.328V108.344H384.072V117.144H404.968V113.752ZM166.656 165.72V136.248H162.656V147.512H160.192V136.728H156.256V164.408H160.192V150.904H162.656V165.72H166.656ZM153.824 139.288H142.208V158.392H153.824V139.288ZM149.92 155.096H146.144V142.616H149.92V155.096ZM191.038 154.04H195.294V136.28H191.038V154.04ZM187.294 153.144L189.214 149.848C184.606 148.664 182.398 145.656 182.238 142.68H188.158V139.352H182.238V136.312H178.014V139.352H172.062V142.68H178.014C177.854 145.944 175.71 149.208 171.07 150.488L173.054 153.784C176.542 152.792 178.91 150.68 180.222 147.96C181.598 150.392 183.934 152.248 187.294 153.144ZM185.342 154.552C179.102 154.552 175.262 156.664 175.262 160.152C175.262 163.768 179.102 165.784 185.342 165.784C191.55 165.784 195.39 163.768 195.39 160.152C195.39 156.664 191.55 154.552 185.342 154.552ZM185.342 162.52C181.406 162.52 179.454 161.72 179.454 160.152C179.454 158.584 181.406 157.784 185.342 157.784C189.246 157.784 191.198 158.584 191.198 160.152C191.198 161.72 189.246 162.52 185.342 162.52ZM213.563 146.744C220.571 146.744 224.251 145.048 224.251 141.72C224.251 138.488 220.571 136.696 213.563 136.696C206.619 136.696 202.907 138.488 202.907 141.72C202.907 145.048 206.619 146.744 213.563 146.744ZM213.563 139.8C217.947 139.8 219.867 140.408 219.867 141.72C219.867 143.096 217.947 143.672 213.563 143.672C209.307 143.672 207.291 143.096 207.291 141.72C207.291 140.408 209.307 139.8 213.563 139.8ZM226.875 151.448V148.152H200.251V151.448H226.875ZM224.411 162.36H207.515V160.696H223.643V153.112H203.291V156.216H219.483V157.784H203.323V165.528H224.411V162.36ZM257.163 157.784H261.419V136.312H257.163V157.784ZM252.843 153.336L254.987 149.976C250.219 148.44 248.139 144.664 248.139 140.792V137.912H243.851V140.792C243.851 144.632 241.739 148.856 236.843 150.488L238.987 153.848C242.443 152.664 244.683 150.264 246.059 147.288C247.339 150.104 249.515 152.216 252.843 153.336ZM262.155 165.24V161.88H246.027V155.736H241.803V165.24H262.155ZM282.152 153.144L284.072 149.912C279.336 148.632 277.288 145.752 277.192 142.648H283.016V139.32H277.192V136.184H272.968V139.32H267.208V142.648H272.968C272.872 145.944 270.888 149.24 266.184 150.616L268.168 153.88C271.624 152.888 273.896 150.808 275.208 148.12C276.584 150.456 278.824 152.28 282.152 153.144ZM286.792 136.28V144.152H282.216V147.544H286.792V154.072H291.016V136.28H286.792ZM281.064 154.584C274.792 154.584 270.952 156.6 270.952 160.184C270.952 163.704 274.792 165.752 281.064 165.752C287.304 165.752 291.144 163.704 291.144 160.184C291.144 156.6 287.304 154.584 281.064 154.584ZM281.064 162.52C277.128 162.52 275.176 161.752 275.176 160.184C275.176 158.616 277.128 157.816 281.064 157.816C284.968 157.816 286.92 158.616 286.92 160.184C286.92 161.816 284.936 162.52 281.064 162.52ZM321.094 165.72V136.248H317.094V148.28H314.854V136.824H310.918V164.504H314.854V151.672H317.094V165.72H321.094ZM309.862 140.728H304.966V137.08H300.806V140.728H295.782V144.088H309.862V140.728ZM302.885 145.368C299.141 145.368 296.422 148.28 296.422 152.408C296.422 156.504 299.141 159.416 302.885 159.416C306.63 159.416 309.35 156.504 309.35 152.408C309.35 148.28 306.63 145.368 302.885 145.368ZM302.885 155.896C301.254 155.896 300.134 154.616 300.134 152.408C300.134 150.2 301.254 148.888 302.885 148.888C304.518 148.888 305.638 150.2 305.638 152.408C305.638 154.616 304.518 155.896 302.885 155.896ZM351.939 162.328V158.904H340.675V153.496H349.027V138.104H344.867V142.68H332.259V138.104H328.067V153.496H336.451V158.904H325.251V162.328H351.939ZM344.867 150.136H332.259V146.008H344.867V150.136ZM379.969 165.752V136.28H375.969V165.752H379.969ZM373.921 136.76H369.985V146.232H366.305V149.656H369.985V164.44H373.921V136.76ZM364.097 143.64V138.84H360.033V143.8C360.033 148.824 358.465 154.104 354.145 156.728L356.673 159.896C359.361 158.264 361.057 155.544 362.081 152.216C363.009 155.192 364.513 157.688 367.073 159.224L369.377 155.96C365.377 153.304 364.097 148.408 364.097 143.64ZM410.814 162.328V158.904H404.894V151.704C407.102 150.328 408.446 148.216 408.446 145.656C408.446 140.824 403.806 137.72 397.438 137.72C391.134 137.72 386.462 140.824 386.462 145.656C386.43 148.216 387.71 150.328 390.014 151.704V158.904H384.126V162.328H410.814ZM397.438 141.048C401.534 141.048 404.286 142.712 404.286 145.656C404.286 148.6 401.534 150.264 397.438 150.264C393.342 150.264 390.622 148.6 390.622 145.656C390.622 142.712 393.342 141.048 397.438 141.048ZM400.702 158.904H394.206V153.272C395.23 153.464 396.318 153.56 397.438 153.56C398.59 153.56 399.678 153.464 400.702 153.272V158.904ZM414.268 163.448H418.94V158.904H414.268V163.448Z" fill="white"/>
<path d="M233.796 210.132H232.032V216.468H230.178V210.438H228.432V225.612H230.178V217.98H232.032V226.368H233.796V210.132ZM220.458 211.914V222.156H226.722V211.914H220.458ZM222.186 220.68V213.39H224.994V220.68H222.186ZM249.869 220.032V210.132H248.015V220.032H249.869ZM245.693 219.33L246.539 217.89C244.019 217.17 242.543 215.406 242.543 213.48V213.462H246.035V211.986H242.543V210.132H240.689V211.986H237.161V213.462H240.689V213.48C240.689 215.514 239.213 217.512 236.693 218.268L237.575 219.69C239.537 219.096 240.923 217.818 241.643 216.162C242.417 217.674 243.803 218.808 245.693 219.33ZM244.433 220.338C241.013 220.338 238.925 221.454 238.925 223.362C238.925 225.27 241.013 226.386 244.433 226.386C247.853 226.386 249.941 225.27 249.941 223.362C249.941 221.454 247.853 220.338 244.433 220.338ZM244.433 224.946C242.111 224.946 240.779 224.388 240.779 223.362C240.779 222.336 242.111 221.778 244.433 221.778C246.755 221.778 248.087 222.336 248.087 223.362C248.087 224.388 246.755 224.946 244.433 224.946ZM270.453 222.03V210.15H268.599V222.03H270.453ZM265.953 219.474L266.907 217.998C264.405 217.134 262.983 214.956 262.983 212.652V211.032H261.093V212.652C261.093 215.046 259.671 217.314 257.115 218.286L258.069 219.78C260.013 219.06 261.327 217.584 262.065 215.766C262.767 217.494 264.081 218.772 265.953 219.474ZM270.921 224.568H261.705V220.914H259.833V226.08H270.921V224.568ZM282.439 219.348L283.303 217.926C280.819 217.206 279.343 215.442 279.343 213.588V213.444H282.763V211.968H279.361V210.042H277.489V211.968H274.069V213.444H277.489V213.588C277.489 215.604 276.085 217.548 273.583 218.322L274.483 219.762C276.427 219.168 277.759 217.926 278.479 216.27C279.217 217.71 280.567 218.826 282.439 219.348ZM285.229 214.614H282.295V216.144H285.229V219.96H287.083V210.114H285.229V214.614ZM281.665 220.32C278.263 220.32 276.193 221.4 276.193 223.344C276.193 225.27 278.263 226.386 281.665 226.386C285.067 226.386 287.155 225.27 287.155 223.344C287.155 221.436 285.067 220.32 281.665 220.32ZM281.665 224.946C279.343 224.946 278.047 224.37 278.047 223.344C278.047 222.318 279.343 221.76 281.665 221.76C283.987 221.76 285.301 222.318 285.301 223.344C285.301 224.37 283.987 224.946 281.665 224.946ZM305.298 218.214V216.666H302.796V210.132H300.924V226.404H302.796V218.214H305.298ZM295.812 212.634V210.366H293.958V212.634H290.088V214.146H299.61V212.634H295.812ZM294.912 215.298C292.554 215.298 290.88 216.864 290.88 219.096C290.88 221.328 292.554 222.894 294.912 222.894C297.216 222.894 298.944 221.328 298.944 219.096C298.944 216.864 297.216 215.298 294.912 215.298ZM294.912 221.364C293.598 221.364 292.644 220.464 292.644 219.096C292.644 217.728 293.598 216.828 294.912 216.828C296.226 216.828 297.18 217.728 297.18 219.096C297.18 220.464 296.226 221.364 294.912 221.364ZM320.146 210.132H318.292V226.386H320.146V210.132ZM315.358 211.842H307.654V213.354H313.45C313.144 217.098 311.11 219.942 306.844 222.012L307.834 223.488C313.414 220.788 315.358 216.684 315.358 211.842Z" fill="white"/>
<path d="M330.5 223L335.5 218L330.5 213" stroke="#FAFAFA"/>
</g>
<defs>
<clipPath id="clip0_1635_56337">
<rect width="560" height="300" rx="40" fill="white"/>
</clipPath>
</defs>
</svg>
