<svg width="24" height="24" viewBox="0 0 24 24" fill="none" xmlns="http://www.w3.org/2000/svg">
<circle cx="12" cy="12" r="12" fill="#1D1D1D"/>
<path d="M16.8931 19.1994L14.6731 16.6044C15.8881 15.7494 16.8181 14.1594 16.8181 11.6844C16.8181 8.12938 14.8381 5.98438 12.0031 5.98438C9.16812 5.98438 7.20312 8.11438 7.20312 11.6694C7.20312 15.6444 9.55812 17.4594 12.0181 17.4594C12.4231 17.4594 12.8431 17.4144 13.2631 17.2944L14.7931 19.1994H16.8931ZM12.0031 16.0044C10.1731 16.0044 8.98812 14.3544 8.98812 11.6694C8.98812 9.07438 10.1731 7.49937 12.0031 7.49937C13.8331 7.49937 15.0331 9.07438 15.0331 11.6694C15.0331 14.3544 13.8331 16.0044 12.0031 16.0044Z" fill="#33F4A3"/>
</svg>
