<svg width="20" height="20" viewBox="0 0 20 20" fill="none" xmlns="http://www.w3.org/2000/svg">
<circle cx="10" cy="10" r="10" fill="#15C07E"/>
<path d="M6.45538 15L5.36615 10.8277H4V10.021H5.16308L4.14769 6H5.62462L6.56615 10.021H8.09846L9.16923 6H10.8677L11.9754 10.021H13.4892L14.3938 6H15.8523L14.8738 10.021H16V10.8277H14.6708L13.6738 15H12.0123L10.9046 10.8277H9.18769L8.09846 15H6.45538ZM9.39077 10.021H10.6831L10.0185 7.18487L9.39077 10.021ZM7.28615 13.6387L7.87692 10.8277H6.76923L7.28615 13.6387ZM12.8062 13.6891L13.3231 10.8277H12.1969L12.8062 13.6891Z" fill="white"/>
</svg>
