<svg width="20" height="20" viewBox="0 0 20 20" fill="none" xmlns="http://www.w3.org/2000/svg">
<circle cx="10" cy="10" r="10" fill="#3180F4"/>
<path d="M14.5844 10.588C14.6091 10.396 14.6276 10.204 14.6276 10C14.6276 9.796 14.6091 9.604 14.5844 9.412L15.8859 8.422C16.0031 8.332 16.034 8.17 15.96 8.038L14.7263 5.962C14.6523 5.83 14.4857 5.782 14.35 5.83L12.8141 6.43C12.4934 6.19 12.1479 5.992 11.7717 5.842L11.5373 4.252C11.5188 4.108 11.3892 4 11.235 4H8.7677C8.61349 4 8.48396 4.108 8.46545 4.252L8.23105 5.842C7.85479 5.992 7.50936 6.196 7.18861 6.43L5.6527 5.83C5.51083 5.776 5.35045 5.83 5.27643 5.962L4.04277 8.038C3.96258 8.17 3.99959 8.332 4.11679 8.422L5.4183 9.412C5.39363 9.604 5.37512 9.802 5.37512 10C5.37512 10.198 5.39363 10.396 5.4183 10.588L4.11679 11.578C3.99959 11.668 3.96875 11.83 4.04277 11.962L5.27643 14.038C5.35045 14.17 5.51699 14.218 5.6527 14.17L7.18861 13.57C7.50936 13.81 7.85479 14.008 8.23105 14.158L8.46545 15.748C8.48396 15.892 8.61349 16 8.7677 16H11.235C11.3892 16 11.5188 15.892 11.5373 15.748L11.7717 14.158C12.1479 14.008 12.4934 13.804 12.8141 13.57L14.35 14.17C14.4919 14.224 14.6523 14.17 14.7263 14.038L15.96 11.962C16.034 11.83 16.0031 11.668 15.8859 11.578L14.5844 10.588ZM10.0014 12.1C8.81088 12.1 7.84245 11.158 7.84245 10C7.84245 8.842 8.81088 7.9 10.0014 7.9C11.1918 7.9 12.1603 8.842 12.1603 10C12.1603 11.158 11.1918 12.1 10.0014 12.1Z" fill="white"/>
</svg>
