<svg width="377" height="576" viewBox="0 0 377 576" fill="none" xmlns="http://www.w3.org/2000/svg">
<path d="M155.542 447.175C127.806 449.729 148.684 487.643 124.448 510.103C96.7341 535.782 81.2904 538.413 108.124 551.17C152.477 572.266 172.311 544.415 201.949 541.621C222.468 539.689 259.496 541.621 277.7 513.039C291.85 490.808 287.318 470.781 266.636 454.76C243.585 436.917 202.949 437.888 177.028 444.829" fill="#1A2535"/>
<path d="M293.012 463.162C293.012 463.162 306.518 480.924 294.755 500.393C294.755 500.393 315.118 479.87 293.012 463.162Z" fill="#1A2535"/>
<path d="M289.842 525.743C282.729 528.388 280.703 536.955 276.368 541.505C270.181 547.982 263.58 548.559 256.783 550.137C249.235 551.89 242.329 549.593 234.704 550.322C221.895 551.541 208.224 558.312 203.497 560.598C212.342 556.048 227.472 553.751 240.532 555.504C249.017 556.636 257.873 557.496 266.031 554.317C273.133 551.541 277.991 547.623 281.226 540.885C283.089 537.01 285.747 527.343 289.842 525.743Z" fill="#1A2535"/>
<path d="M88.9312 545.997C82.5436 555.525 88.6606 563.447 96.1633 568.458C103.146 573.115 111.894 575.085 120.176 575.588C126.12 575.941 131.263 574.699 136.806 573.35C140.877 572.355 147.806 571.22 152.006 571.948C140.758 568.158 128.426 573.404 116.82 572.13C106.687 571.016 92.7097 565.182 87.8919 555.525C86.3978 552.538 87.7944 548.234 89.1586 545.547" fill="#1A2535"/>
<path d="M246.713 373.416C245.843 368.887 244.527 364.042 242.514 359.524V359.513C239.489 352.72 234.931 346.688 228.022 343.607C218.404 331.391 212.203 303.923 212.203 303.923C205.936 278.947 192.805 278.12 192.805 278.12C176.67 274.276 167.977 280.112 164.474 283.531C162.918 284.706 161.341 286.176 159.763 288.049C159.763 288.049 154.737 293.961 155.085 301.821C154.943 302.834 154.889 303.465 154.889 303.465C152.996 308.071 159.023 320.079 159.023 320.079C168.227 332.818 160.155 340.656 159.469 350.455C159.437 350.466 159.393 350.488 159.36 350.499C159.36 350.499 147.937 352.317 142.747 381.157C142.747 381.157 142.617 383.803 142.606 388.191C142.094 388.779 141.746 389.432 141.909 390.052C141.376 390.227 141.083 390.357 141.083 390.357C139.875 390.662 138.776 391.119 137.775 391.685C134.479 390.237 125.111 387.254 115.472 394.832C115.472 394.832 106.572 402.431 105.288 417.87C105.288 417.87 100.458 492.404 95.7142 503.107C95.7142 503.107 97.183 504.076 99.6853 505.121C95.9427 510.652 87.6959 522.127 82.8435 523.488C82.8435 523.488 79.5034 523.531 78.2414 526.689C78.2414 526.689 75.5432 531.817 83.4419 533.733C83.4419 533.733 90.5028 535.845 96.7695 535.475C97.0415 537.021 98.3036 538.839 102.351 539.83C102.351 539.83 112.589 542.9 119.356 540.995C119.356 540.995 126.395 538.294 130.834 531.403C130.834 531.403 134.381 527.385 136.894 526.068C136.894 526.068 142.083 522.279 139.799 514.625L138.82 512.1C139.222 512.089 139.44 512.078 139.44 512.078C140.811 508.485 147.73 489.389 148.829 486.362C148.829 486.362 148.829 486.362 148.84 486.362C148.883 486.373 148.927 486.384 148.97 486.384C149.079 486.384 149.177 486.351 149.253 486.286C155.922 494.985 169.642 501.452 169.642 501.452C194.001 511.425 208.732 503.117 208.732 503.117C228.512 494.255 228.479 471.62 228.229 466.71C229.741 463.335 231.689 458.773 233.799 453.417C245.658 456.726 251.424 443.814 251.424 443.814C257.278 420.461 251.305 390.608 246.713 373.416Z" fill="#1A2535"/>
<path d="M226.607 333.092C229.555 331.952 236.738 324.187 237.332 315.445C238.146 310.678 236.507 302.957 236.507 302.957C230.589 281.368 216.486 279.055 216.486 279.055C194.187 273.821 185.936 286.624 185.936 286.624C179.391 289.98 178.147 304.336 178.147 304.336C178.356 308.593 181.415 318.127 182.163 320.408C186.178 332.603 209.467 339.716 226.607 333.092Z" fill="#44241D"/>
<path d="M198.184 344.626C198.184 344.626 189.547 349.138 182.958 351.602C182.958 351.602 171.578 353.422 166.409 382.297C166.409 382.297 163.689 434.988 181.907 460.952C181.907 460.952 205.088 481.434 248.611 474.349C248.611 474.349 271.435 428.023 271.608 392.979C271.608 392.979 273.06 348.277 246.108 343.045C246.108 343.045 231.39 338.979 220.705 339.666L198.184 344.626Z" fill="#B7C3C5"/>
<path d="M200.328 334.747L203.679 348.072C203.679 348.072 207.361 352.267 213.951 351.329C213.951 351.329 227.972 349.606 228.846 339.505L224.091 320.571L200.328 334.747Z" fill="#F7D1CB"/>
<path d="M201.913 340.076L203.865 348.02C203.865 348.02 211.11 356.285 224.093 347.223L219.971 325.327" fill="#D6A5A5"/>
<path d="M195.299 338.793C195.61 344.277 189.608 348.911 185.592 351.76C182.331 354.072 178.947 357.072 176.163 360.018C173.378 362.954 171.359 367.287 171.038 373.878C170.838 377.91 172.214 382.792 174.576 387.115C174.554 384.426 175.464 381.513 176.252 379.588C177.383 376.803 178.67 374.975 180.889 372.932C184.816 369.308 190.085 368.911 194.389 365.943C198.838 362.878 202.454 357.975 202.942 352.836C203.153 350.621 203.098 341.911 203.497 342.288" fill="#44241D"/>
<path d="M183.795 298.762C183.795 298.762 180.284 304.479 183.393 313.831C183.393 313.831 186.328 322.819 187.502 327.831C187.502 327.831 190.166 337.271 202.092 342.504C202.092 342.504 209.799 346.172 214.876 339.761C214.876 339.761 222.54 334.066 224.91 321.134C224.91 321.134 230.28 318.226 229.574 312.828C229.574 312.828 229.813 309.535 226.073 308.125C226.073 308.125 223.084 307.387 221.692 310.317C221.692 310.317 219.583 296.691 214.082 293.265C214.082 293.265 206.788 287.769 197.754 290.39C197.765 290.379 190.025 290.578 183.795 298.762Z" fill="#F7D1CB"/>
<path d="M209.888 291.061C206.9 289.905 202.585 288.991 197.76 290.39C197.76 290.39 190.033 290.588 183.795 298.771C183.795 298.771 180.285 304.486 183.393 313.837C183.393 313.837 186.327 322.823 187.501 327.834C187.501 327.834 190.163 337.273 202.085 342.504C202.085 342.504 209.791 346.171 214.866 339.762C214.866 339.762 216.029 338.341 216.974 336.678C223.766 322.361 218.767 304.134 209.888 291.061Z" fill="#E5B6B5"/>
<path d="M188.875 295.823C188.875 295.823 189.329 295.159 197.348 301.232C197.348 301.232 207.203 309.568 223.23 308.469L229.638 304.605C229.638 304.605 223.911 284.581 208.208 283.46C208.208 283.46 195.781 274.928 183.612 289.424C183.612 289.424 173.313 301.602 183.299 314.236C183.288 314.258 180.608 297.619 188.875 295.823Z" fill="#44241D"/>
<path d="M224.742 317.404C224.522 317.404 224.311 317.246 224.251 317.004L223.951 315.751C223.901 315.562 223.971 315.351 224.111 315.225C224.632 314.751 224.502 314.161 224.482 314.088C224.361 313.593 223.981 313.572 223.861 313.582C223.58 313.593 223.35 313.393 223.32 313.109C223.12 311.024 224.472 310.508 224.522 310.487C225.123 310.224 225.693 310.203 226.204 310.435C226.915 310.75 227.195 311.445 227.225 311.53C227.326 311.803 227.205 312.109 226.945 312.214C226.695 312.319 226.404 312.193 226.294 311.919C226.214 311.708 225.854 311.056 224.872 311.477C224.802 311.508 224.341 311.73 224.301 312.593C224.752 312.709 225.253 313.056 225.443 313.814C225.453 313.835 225.743 314.888 224.982 315.783L225.213 316.741C225.283 317.025 225.113 317.309 224.852 317.383C224.822 317.404 224.782 317.404 224.742 317.404Z" fill="#AF6456"/>
<path d="M125.087 503.562C125.087 503.562 112.747 523.041 106.343 524.822C106.343 524.822 103.011 524.865 101.752 528.014C101.752 528.014 99.0604 533.128 106.94 535.05C106.94 535.05 117.164 538.112 123.904 536.211C123.904 536.211 130.926 533.519 135.354 526.646C135.354 526.646 138.893 522.639 141.4 521.326C141.4 521.326 146.577 517.547 144.298 509.914L142.344 504.822L125.087 503.562Z" fill="#DBA1A1"/>
<path d="M162.305 393.485C162.305 393.485 150.869 386.649 139.046 396.009C139.046 396.009 130.244 403.571 128.986 418.933C128.986 418.933 124.214 493.101 119.528 503.751C119.528 503.751 130.083 510.782 142.916 507.391L157.028 430.341" fill="#016096"/>
<path d="M144.098 509.105C144.098 509.105 131.747 528.584 125.354 530.365C125.354 530.365 122.022 530.408 120.763 533.557C120.763 533.557 118.072 538.671 125.951 540.593C125.951 540.593 136.164 543.654 142.915 541.754C142.915 541.754 149.937 539.062 154.365 532.189C154.365 532.189 157.904 528.182 160.411 526.869C160.411 526.869 165.588 523.09 163.309 515.457L161.344 510.365L144.098 509.105Z" fill="#EAA9A9"/>
<path d="M251.706 466.756C251.706 466.756 254.5 494.135 232.273 504.088C232.273 504.088 217.549 512.377 193.201 502.424C193.201 502.424 179.119 495.788 172.561 486.923C172.561 486.923 164.514 509.135 163.024 513.04C163.024 513.04 151.236 513.693 140.917 508.624C140.917 508.624 145.712 476.785 146.321 463.264C146.321 463.264 150.834 418.416 151.312 410.443C151.312 410.443 153.303 394.246 164.655 391.429C164.655 391.429 180.239 384.293 197.159 405.635C197.17 405.613 240.896 449.113 251.706 466.756Z" fill="#016096"/>
<path d="M172.37 487.718C172.314 487.718 172.247 487.707 172.19 487.685C171.898 487.586 171.74 487.277 171.841 486.99C171.931 486.748 180.43 462.042 183.38 448.543C183.447 448.245 183.751 448.057 184.044 448.124C184.348 448.19 184.539 448.477 184.471 448.774C181.511 462.329 172.989 487.09 172.899 487.343C172.821 487.575 172.595 487.718 172.37 487.718Z" fill="#2B4C6D"/>
<path d="M208.479 505.146C208.423 505.146 208.357 505.135 208.301 505.113C189.351 498.67 178.622 468.353 178.178 467.065C178.078 466.779 178.233 466.459 178.522 466.36C178.81 466.261 179.132 466.415 179.232 466.702C179.343 467.01 190.238 497.8 208.667 504.067C208.956 504.166 209.111 504.474 209.011 504.76C208.923 505.003 208.712 505.146 208.479 505.146Z" fill="#2B4C6D"/>
<path d="M265.868 360.183C265.868 360.183 283.463 409.866 274.741 445.033C274.741 445.033 268.992 458.026 257.168 454.695C257.168 454.695 218.182 437.901 197.16 405.527L207.465 392.348C207.465 392.348 242.101 418.016 252.981 422.914" fill="#B7C3C5"/>
<path d="M248.046 416.425C247.714 416.425 247.444 416.197 247.432 415.904C247.235 412.336 244.716 387.952 244.692 387.702C244.655 387.41 244.913 387.138 245.244 387.117C245.564 387.095 245.883 387.312 245.908 387.605C246.006 388.614 248.452 412.26 248.648 415.85C248.661 416.154 248.403 416.403 248.058 416.414C248.058 416.425 248.046 416.425 248.046 416.425Z" fill="#747E87"/>
<path d="M253.647 421.178C253.528 421.178 253.409 421.134 253.312 421.057C242.173 412.008 205.769 395.467 205.402 395.301C205.133 395.18 205.003 394.849 205.133 394.573C205.251 394.297 205.575 394.164 205.844 394.297C206.211 394.462 242.745 411.059 253.992 420.196C254.229 420.384 254.261 420.737 254.078 420.969C253.97 421.101 253.808 421.178 253.647 421.178Z" fill="#747E87"/>
<path d="M150.207 413.255C150.195 413.255 150.195 413.255 150.184 413.255C149.861 413.244 149.619 412.99 149.631 412.681C150.333 395.462 161.104 392.036 161.553 391.892C161.853 391.804 162.175 391.958 162.279 392.257C162.371 392.544 162.21 392.853 161.899 392.953C161.795 392.986 151.439 396.335 150.783 412.725C150.771 413.023 150.518 413.255 150.207 413.255Z" fill="#2B4C6D"/>
<path d="M144.085 392.672C144.085 392.672 146.702 382.969 153.975 382.426C153.975 382.426 160.648 381.274 166.808 388.695C166.808 388.695 168.062 391.814 164.944 393.933C164.944 393.933 161.128 397.366 149.471 392.118C149.471 392.107 146.953 391.455 144.085 392.672Z" fill="#DBA1A1"/>
<path d="M205.873 396.23L198.02 389.899C198.02 389.899 190.32 383.121 180.887 383.154C180.887 383.154 175.118 383.647 168.69 387.148C168.69 387.148 163.996 389.888 165.948 391.778C165.948 391.778 172.376 396.621 183.596 394.205C183.596 394.205 185.34 396.991 191.57 399.999L198.14 405.335L205.873 396.23Z" fill="#EAA9A9"/>
<path d="M167.448 391.865C167.3 391.865 167.162 391.777 167.099 391.633C167.003 391.424 167.078 391.181 167.279 391.081C167.332 391.048 172.82 388.177 180.036 386.333C180.247 386.278 180.459 386.41 180.512 386.631C180.565 386.852 180.438 387.073 180.216 387.128C173.096 388.95 167.682 391.777 167.629 391.81C167.576 391.843 167.512 391.865 167.448 391.865Z" fill="#BC7B71"/>
<path d="M171.435 393.449C171.27 393.449 171.116 393.353 171.051 393.205C170.963 393.003 171.062 392.769 171.281 392.684C171.325 392.663 176.043 390.824 183.201 389.496C183.421 389.453 183.641 389.592 183.685 389.815C183.729 390.027 183.586 390.24 183.355 390.282C176.285 391.589 171.633 393.407 171.589 393.428C171.534 393.438 171.479 393.449 171.435 393.449Z" fill="#BC7B71"/>
<path d="M209.419 311.859H209.408C206.107 311.72 203.109 311.305 203.075 311.305C202.84 311.277 202.684 311.014 202.706 310.737C202.729 310.446 202.952 310.238 203.165 310.28C203.199 310.28 206.175 310.681 209.43 310.82C209.665 310.834 209.844 311.069 209.833 311.36C209.822 311.637 209.643 311.859 209.419 311.859Z" fill="#4F3636"/>
<path d="M188.067 317.405C187.924 317.405 187.792 317.341 187.715 317.213C187.594 317.021 187.66 316.775 187.847 316.658C190.39 315.143 191.657 313.606 191.668 313.595C191.811 313.424 192.064 313.392 192.251 313.531C192.427 313.67 192.46 313.915 192.317 314.097C192.262 314.161 190.963 315.751 188.277 317.341C188.21 317.384 188.133 317.405 188.067 317.405Z" fill="#4F3636"/>
<path d="M205.986 315.807C206.263 316.886 206.969 317.577 207.567 317.368C208.157 317.158 208.416 316.111 208.139 315.042C207.862 313.964 207.156 313.272 206.558 313.482C205.959 313.691 205.709 314.739 205.986 315.807Z" fill="#261708"/>
<path d="M193.086 319.796C193.364 320.865 193.113 321.913 192.513 322.122C191.921 322.332 191.214 321.63 190.936 320.561C190.658 319.482 190.909 318.445 191.5 318.236C192.101 318.026 192.809 318.717 193.086 319.796Z" fill="#261708"/>
<path d="M202.509 334.041C202.222 334.041 201.97 333.828 201.923 333.529C201.863 333.192 202.078 332.867 202.401 332.805C202.413 332.805 203.753 332.543 205.847 331.706C206.158 331.581 206.506 331.744 206.625 332.068C206.745 332.393 206.589 332.755 206.278 332.88C204.076 333.753 202.688 334.028 202.629 334.041C202.581 334.041 202.545 334.041 202.509 334.041Z" fill="#B25656"/>
<path d="M201.269 327.704C200.665 327.704 200.039 327.405 199.965 327.359C198.65 326.807 198.799 325.186 199.064 324.404C199.88 320.84 197.251 316.541 197.23 316.495C197.102 316.299 197.155 316.035 197.336 315.897C197.516 315.759 197.76 315.817 197.887 316.012C198.003 316.196 200.739 320.668 199.827 324.646C199.795 324.749 199.339 326.163 200.283 326.554C200.484 326.657 201.089 326.887 201.438 326.807C201.661 326.761 201.863 326.91 201.905 327.14C201.947 327.37 201.81 327.6 201.597 327.646C201.481 327.692 201.375 327.704 201.269 327.704Z" fill="#4F3636"/>
<path d="M199.273 332.456C199.051 332.456 198.84 332.326 198.766 332.133C198.682 331.892 198.84 331.634 199.114 331.56L207.573 329.307C207.858 329.233 208.142 329.372 208.227 329.612C208.311 329.852 208.153 330.11 207.879 330.184L199.42 332.437C199.378 332.447 199.325 332.456 199.273 332.456Z" fill="#B25656"/>
<path d="M223.023 304.73H223.011C212.832 304.293 199.004 295.034 198.871 294.944C198.738 294.854 198.704 294.687 198.793 294.552C198.882 294.429 199.048 294.395 199.181 294.474C199.314 294.563 213.009 303.744 223.034 304.17C223.189 304.181 223.311 304.304 223.3 304.461C223.289 304.618 223.167 304.73 223.023 304.73Z" fill="#281615"/>
<path d="M223.818 300.77C223.74 300.77 223.673 300.738 223.618 300.686C210.093 287.187 195.999 287.031 195.854 287.031C195.698 287.031 195.575 286.916 195.575 286.771C195.575 286.625 195.698 286.511 195.854 286.511C195.999 286.511 210.327 286.667 224.019 300.333C224.119 300.437 224.119 300.603 224.008 300.697C223.952 300.749 223.885 300.77 223.818 300.77Z" fill="#281615"/>
<path d="M251.898 344.581C251.898 344.581 268 347.921 273.908 387.809C273.908 387.809 281.263 418.441 276.149 441.081C276.149 441.081 273.342 453.045 264.073 455.239C264.073 455.239 276.508 450.01 275.029 423.779C275.029 423.779 273.059 390.124 261.461 362.156C261.461 362.156 256.859 346.906 241.519 343.205L242.726 341.961C242.737 341.961 249.613 343.708 251.898 344.581Z" fill="#E2E7E8"/>
<path d="M140.683 505.147C140.626 505.147 140.569 505.136 140.524 505.125C140.228 505.037 140.058 504.73 140.149 504.445C145.277 488.139 150.031 420.789 150.077 420.11C150.099 419.802 150.418 419.583 150.679 419.594C150.998 419.616 151.225 419.879 151.214 420.175C151.168 420.855 146.392 488.326 141.24 504.752C141.149 504.993 140.933 505.147 140.683 505.147Z" fill="#2B4C6D"/>
<path d="M123.093 194.619C122.439 194.619 121.904 194.138 121.904 193.549V182.222C121.904 181.634 122.439 181.152 123.093 181.152C123.746 181.152 124.281 181.634 124.281 182.222V193.549C124.281 194.138 123.758 194.619 123.093 194.619Z" fill="#E6EAED"/>
<path d="M123.093 238.19C122.439 238.19 121.904 237.7 121.904 237.101V210.76C121.904 210.162 122.439 209.672 123.093 209.672C123.746 209.672 124.281 210.162 124.281 210.76V237.101C124.281 237.711 123.758 238.19 123.093 238.19Z" fill="#E6EAED"/>
<path d="M123.093 263.538C122.439 263.538 121.904 263.061 121.904 262.477V254.302C121.904 253.718 122.439 253.24 123.093 253.24C123.746 253.24 124.281 253.718 124.281 254.302V262.477C124.281 263.061 123.758 263.538 123.093 263.538Z" fill="#E6EAED"/>
<path d="M123.093 296.017C122.439 296.017 121.904 295.527 121.904 294.929V282.053C121.904 281.455 122.439 280.966 123.093 280.966C123.746 280.966 124.281 281.455 124.281 282.053V294.929C124.281 295.527 123.758 296.017 123.093 296.017Z" fill="#E6EAED"/>
<path d="M140.125 198.58C139.689 198.58 139.333 198.089 139.333 197.489V182.244C139.333 181.643 139.689 181.152 140.125 181.152C140.561 181.152 140.917 181.643 140.917 182.244V197.489C140.917 198.089 140.561 198.58 140.125 198.58Z" fill="#E6EAED"/>
<path d="M151.61 244.527C150.957 244.527 150.422 244.032 150.422 243.427V213.149C150.422 212.544 150.957 212.049 151.61 212.049C152.264 212.049 152.798 212.544 152.798 213.149V243.427C152.798 244.032 152.264 244.527 151.61 244.527Z" fill="#E6EAED"/>
<path d="M135.767 254.825C135.114 254.825 134.579 254.294 134.579 253.644V248.876C134.579 248.226 135.114 247.695 135.767 247.695C136.421 247.695 136.956 248.226 136.956 248.876V253.644C136.956 254.305 136.421 254.825 135.767 254.825Z" fill="#E6EAED"/>
<path d="M151.61 267.497C150.957 267.497 150.422 267.025 150.422 266.448V262.209C150.422 261.632 150.957 261.16 151.61 261.16C152.264 261.16 152.798 261.632 152.798 262.209V266.448C152.798 267.025 152.264 267.497 151.61 267.497Z" fill="#E6EAED"/>
<path d="M174.583 212.842C173.93 212.842 173.395 212.352 173.395 211.754V190.165C173.395 189.567 173.93 189.077 174.583 189.077C175.237 189.077 175.771 189.567 175.771 190.165V211.754C175.771 212.352 175.237 212.842 174.583 212.842Z" fill="#E6EAED"/>
<path d="M172.999 235.813C172.345 235.813 171.811 235.319 171.811 234.715V230.574C171.811 229.97 172.345 229.476 172.999 229.476C173.652 229.476 174.187 229.97 174.187 230.574V234.715C174.187 235.319 173.664 235.813 172.999 235.813Z" fill="#E6EAED"/>
<path d="M172.999 261.955C172.345 261.955 171.811 261.457 171.811 260.848V248.012C171.811 247.403 172.345 246.904 172.999 246.904C173.652 246.904 174.187 247.403 174.187 248.012V260.848C174.187 261.457 173.664 261.955 172.999 261.955Z" fill="#E6EAED"/>
<path d="M194.387 223.139C193.733 223.139 193.199 222.642 193.199 222.035V197.311C193.199 196.703 193.733 196.206 194.387 196.206C195.04 196.206 195.575 196.703 195.575 197.311V222.035C195.575 222.642 195.04 223.139 194.387 223.139Z" fill="#E6EAED"/>
<path d="M193.199 244.528C192.763 244.528 192.407 244.033 192.407 243.427V239.291C192.407 238.686 192.763 238.19 193.199 238.19C193.635 238.19 193.991 238.686 193.991 239.291V243.427C193.991 244.033 193.635 244.528 193.199 244.528Z" fill="#E6EAED"/>
<path d="M216.963 204.918C216.527 204.918 216.171 204.417 216.171 203.806V193.355C216.171 192.743 216.527 192.243 216.963 192.243C217.399 192.243 217.755 192.743 217.755 193.355V203.806C217.755 204.417 217.407 204.918 216.963 204.918Z" fill="#E6EAED"/>
<path d="M212.211 220.762C211.775 220.762 211.418 220.276 211.418 219.682V214.713C211.418 214.119 211.775 213.633 212.211 213.633C212.646 213.633 213.003 214.119 213.003 214.713V219.682C213.003 220.276 212.646 220.762 212.211 220.762Z" fill="#E6EAED"/>
<path d="M253.798 214.426C253.144 214.426 252.609 213.94 252.609 213.346V208.377C252.609 207.783 253.144 207.297 253.798 207.297C254.451 207.297 254.986 207.783 254.986 208.377V213.346C254.986 213.94 254.451 214.426 253.798 214.426Z" fill="#E6EAED"/>
<path d="M159.136 189.075C158.701 189.075 158.344 188.589 158.344 187.995V183.026C158.344 182.431 158.701 181.945 159.136 181.945C159.572 181.945 159.929 182.431 159.929 183.026V187.995C159.929 188.589 159.572 189.075 159.136 189.075Z" fill="#E6EAED"/>
<path d="M212.211 251.653C211.775 251.653 211.418 251.188 211.418 250.621V246.348C211.418 245.78 211.775 245.315 212.211 245.315C212.646 245.315 213.003 245.78 213.003 246.348V250.621C213.003 251.188 212.646 251.653 212.211 251.653Z" fill="#E6EAED"/>
<path d="M239.935 194.619C239.5 194.619 239.143 194.127 239.143 193.525V182.246C239.143 181.645 239.5 181.152 239.935 181.152C240.371 181.152 240.727 181.645 240.727 182.246V193.525C240.727 194.127 240.371 194.619 239.935 194.619Z" fill="#E6EAED"/>
<path d="M235.579 227.891C234.925 227.891 234.391 227.412 234.391 226.828V217.864C234.391 217.279 234.925 216.801 235.579 216.801C236.232 216.801 236.767 217.279 236.767 217.864V226.828C236.767 227.423 236.232 227.891 235.579 227.891Z" fill="#E6EAED"/>
<path d="M235.579 258.785C234.925 258.785 234.391 258.309 234.391 257.728V241.623C234.391 241.041 234.925 240.565 235.579 240.565C236.232 240.565 236.767 241.041 236.767 241.623V257.728C236.767 258.32 236.232 258.785 235.579 258.785Z" fill="#E6EAED"/>
<path d="M235.579 277.007C234.925 277.007 234.391 276.485 234.391 275.846V271.039C234.391 270.4 234.925 269.878 235.579 269.878C236.232 269.878 236.767 270.4 236.767 271.039V275.846C236.767 276.485 236.232 277.007 235.579 277.007Z" fill="#E6EAED"/>
<path d="M258.552 261.955C257.898 261.955 257.363 261.464 257.363 260.864V237.698C257.363 237.098 257.898 236.606 258.552 236.606C259.205 236.606 259.74 237.098 259.74 237.698V260.864C259.74 261.464 259.205 261.955 258.552 261.955Z" fill="#E6EAED"/>
<path d="M258.552 198.583C257.898 198.583 257.363 198.107 257.363 197.526V190.135C257.363 189.553 257.898 189.077 258.552 189.077C259.205 189.077 259.74 189.553 259.74 190.135V197.526C259.74 198.107 259.205 198.583 258.552 198.583Z" fill="#E6EAED"/>
<path d="M273.603 180.362C272.949 180.362 272.415 179.849 272.415 179.222V172.789C272.415 172.162 272.949 171.648 273.603 171.648C274.256 171.648 274.791 172.162 274.791 172.789V179.222C274.791 179.849 274.268 180.362 273.603 180.362Z" fill="#E6EAED"/>
<path d="M273.603 238.191C272.949 238.191 272.415 237.706 272.415 237.114V209.957C272.415 209.365 272.949 208.881 273.603 208.881C274.256 208.881 274.791 209.365 274.791 209.957V237.114C274.791 237.717 274.268 238.191 273.603 238.191Z" fill="#E6EAED"/>
<path d="M279.94 263.539C279.286 263.539 278.751 263.067 278.751 262.49V255.082C278.751 254.505 279.286 254.033 279.94 254.033C280.593 254.033 281.128 254.505 281.128 255.082V262.49C281.128 263.067 280.593 263.539 279.94 263.539Z" fill="#E6EAED"/>
<path d="M259.343 284.135C258.689 284.135 258.155 283.619 258.155 282.989V278.944C258.155 278.314 258.689 277.798 259.343 277.798C259.997 277.798 260.531 278.314 260.531 278.944V282.989C260.531 283.631 259.997 284.135 259.343 284.135Z" fill="#E6EAED"/>
<path d="M295.783 210.463C295.129 210.463 294.595 209.975 294.595 209.378V175.902C294.595 175.305 295.129 174.816 295.783 174.816C296.436 174.816 296.971 175.305 296.971 175.902V209.378C296.971 209.986 296.448 210.463 295.783 210.463Z" fill="#E6EAED"/>
<path d="M295.783 242.149C295.129 242.149 294.595 241.656 294.595 241.054V225.817C294.595 225.215 295.129 224.722 295.783 224.722C296.436 224.722 296.971 225.215 296.971 225.817V241.054C296.971 241.656 296.448 242.149 295.783 242.149Z" fill="#E6EAED"/>
<path d="M295.783 303.149C295.129 303.149 294.595 302.656 294.595 302.054V286.817C294.595 286.215 295.129 285.722 295.783 285.722C296.436 285.722 296.971 286.215 296.971 286.817V302.054C296.971 302.667 296.448 303.149 295.783 303.149Z" fill="#E6EAED"/>
<path d="M295.783 263.538C295.129 263.538 294.595 263.066 294.595 262.489V258.25C294.595 257.673 295.129 257.201 295.783 257.201C296.436 257.201 296.971 257.673 296.971 258.25V262.489C296.971 263.066 296.448 263.538 295.783 263.538Z" fill="#E6EAED"/>
<path d="M187.714 293.641C187.714 293.641 193.078 307.9 216.171 307.814C216.171 307.814 191.654 309.884 186.069 293.641" fill="#44241D"/>
<path d="M165.823 391.074C165.696 391.074 165.569 391.021 165.487 390.926C164.804 390.141 159.567 387.722 156.219 386.29C155.998 386.194 155.906 385.961 156.01 385.759C156.114 385.558 156.369 385.473 156.589 385.568C157.458 385.94 165.14 389.239 166.171 390.427C166.322 390.597 166.287 390.852 166.102 390.99C166.009 391.053 165.916 391.074 165.823 391.074Z" fill="#BC7B71"/>
<path d="M163.499 394.241C163.437 394.241 163.364 394.217 163.313 394.182C160.906 392.608 154.72 390.39 154.658 390.366C154.452 390.295 154.338 390.044 154.4 389.806C154.462 389.567 154.679 389.436 154.886 389.508C155.144 389.603 161.206 391.785 163.695 393.395C163.881 393.514 163.943 393.788 163.839 394.003C163.767 394.158 163.633 394.241 163.499 394.241Z" fill="#BC7B71"/>
<path d="M183.962 366.519C183.854 366.519 183.757 366.455 183.713 366.358C183.66 366.219 183.713 366.069 183.854 366.005C195.685 360.934 198.975 349.409 199.007 349.292C199.05 349.152 199.191 349.066 199.342 349.099C199.482 349.141 199.568 349.281 199.525 349.431C199.492 349.549 196.127 361.32 184.059 366.487C184.037 366.509 183.994 366.519 183.962 366.519Z" fill="#281615"/>
<path d="M174.552 380.764C174.404 380.764 174.279 380.658 174.267 380.52C173.117 366.25 184.714 358.717 184.828 358.642C184.953 358.557 185.135 358.589 185.226 358.717C185.317 358.834 185.283 359.004 185.147 359.089C185.033 359.164 173.709 366.538 174.825 380.488C174.837 380.637 174.723 380.764 174.563 380.775C174.563 380.764 174.563 380.764 174.552 380.764Z" fill="#281615"/>
<path d="M229.785 326.119C229.741 326.119 229.687 326.108 229.643 326.076C229.512 326 229.468 325.837 229.545 325.706C238.881 310.09 226.651 294.246 226.531 294.083C226.433 293.963 226.455 293.789 226.575 293.702C226.695 293.604 226.87 293.626 226.957 293.746C227.088 293.909 239.536 310.046 230.014 325.978C229.971 326.076 229.872 326.119 229.785 326.119Z" fill="#281615"/>
<path d="M220.132 308.168C220.132 308.168 224.604 310.586 232.004 311.068C232.004 311.068 232.491 305.851 226.792 300.77C226.792 300.77 223.748 308.258 220.132 308.168Z" fill="#44241D"/>
<path d="M220.132 280.175C220.132 280.175 235.462 286.806 237.419 309.705C237.419 309.705 239.558 323.691 227.184 333.249C227.184 333.249 241.127 321.718 232.215 297.198C232.215 297.198 227.055 283.704 220.132 280.175Z" fill="#844F49"/>
<path d="M119.95 536.04C119.928 536.04 119.905 536.04 119.872 536.029C119.648 535.985 119.491 535.778 119.536 535.549C120.499 530.469 126.309 529.15 127.16 528.975C136.675 522.096 143.224 510.225 143.291 510.116C143.403 509.919 143.661 509.843 143.862 509.941C144.064 510.05 144.142 510.29 144.041 510.497C143.974 510.617 137.302 522.707 127.585 529.695C127.529 529.739 127.473 529.76 127.406 529.771C127.35 529.782 121.282 530.818 120.364 535.702C120.331 535.909 120.152 536.04 119.95 536.04Z" fill="#BC7B71"/>
<path d="M33.5597 22.464L33.5597 0.576L31.1597 0.576L31.1597 22.464L33.5597 22.464ZM19.7357 21.816C23.3837 21.816 26.0957 19.536 26.0957 16.176L26.0957 6.432C26.0957 3.072 23.3837 0.792 19.7357 0.792C16.0877 0.792 13.3757 3.072 13.3757 6.432L13.3757 16.176C13.3757 19.536 16.0877 21.816 19.7357 21.816ZM19.7357 19.8C17.4077 19.8 15.7757 18.432 15.7757 16.296L15.7757 6.312C15.7757 4.224 17.4077 2.808 19.7357 2.808C22.0637 2.808 23.6957 4.224 23.6957 6.312L23.6957 16.296C23.6957 18.432 22.0637 19.8 19.7357 19.8Z" fill="white"/>
<path d="M57.5837 16.68L57.5837 0.576L55.1837 0.576L55.1837 5.376L49.9997 5.376L49.9997 7.392L55.1837 7.392L55.1837 16.68L57.5837 16.68ZM51.3677 13.56V11.544L39.9197 12.216L39.9197 8.496L48.1757 8.496L49.0157 1.08L37.5197 1.08L37.5197 3.096L46.3757 3.096L45.9917 6.48L37.5197 6.48L37.5197 14.376L51.3677 13.56ZM58.0157 22.464V20.448L41.0717 20.448L41.0717 15.96L38.6717 15.96L38.6717 22.464L58.0157 22.464Z" fill="white"/>
<path d="M85.707 0.599999V2.328L71.691 2.328V0.599999L69.291 0.599999L69.291 7.896L88.107 7.896L88.107 0.599999L85.707 0.599999ZM71.691 5.88V4.344L85.707 4.344V5.88L71.691 5.88ZM89.595 9.408L67.803 9.408V11.424L77.499 11.424L77.499 13.68L69.291 13.68V15.696L85.707 15.696V17.04L69.291 17.04L69.291 22.464L88.467 22.464L88.467 20.448L71.691 20.448V18.96L88.107 18.96V13.68L79.899 13.68L79.899 11.424L89.595 11.424V9.408Z" fill="white"/>
<path d="M110.379 9.72L110.379 13.728L112.779 13.728L112.779 0.576L110.379 0.576V3.552L106.275 3.552L106.275 5.568L110.379 5.568V7.704L106.275 7.704V9.72L110.379 9.72ZM105.675 3.096V1.08L92.427 1.08V3.096L105.675 3.096ZM105.915 12.456L105.915 10.44L102.867 10.44L103.659 3.84L101.235 3.84L100.491 10.44L97.467 10.44L96.747 3.84L94.323 3.84L95.091 10.44L92.187 10.44L92.187 12.456L105.915 12.456ZM93.339 18.528C93.339 20.928 95.403 22.584 98.019 22.584L108.483 22.584C111.123 22.584 113.187 20.928 113.187 18.528C113.187 16.128 111.123 14.496 108.483 14.496L98.019 14.496C95.403 14.496 93.339 16.128 93.339 18.528ZM98.163 20.568C96.795 20.568 95.739 19.776 95.739 18.528C95.739 17.304 96.795 16.512 98.163 16.512L108.339 16.512C109.731 16.512 110.787 17.304 110.787 18.528C110.787 19.776 109.731 20.568 108.339 20.568L98.163 20.568Z" fill="white"/>
<path d="M136.227 8.352L136.227 6.336L119.691 6.336L119.691 2.904L136.107 2.904V0.888L117.291 0.888L117.291 8.352L136.227 8.352ZM137.595 12.552V10.536L115.803 10.536L115.803 12.552L137.595 12.552ZM116.931 18.48C116.931 20.64 118.395 22.512 120.843 22.512L132.555 22.512C135.003 22.512 136.467 20.64 136.467 18.48C136.467 16.368 135.003 14.472 132.555 14.472L120.843 14.472C118.395 14.472 116.931 16.368 116.931 18.48ZM121.299 20.496C120.147 20.496 119.331 19.632 119.331 18.456C119.331 17.328 120.147 16.488 121.299 16.488L132.051 16.488C133.227 16.488 134.067 17.328 134.067 18.456C134.067 19.632 133.227 20.496 132.051 20.496L121.299 20.496Z" fill="white"/>
<path d="M154.443 4.536V2.52L148.443 2.52V0L146.043 0V2.52L140.043 2.52V4.536L154.443 4.536ZM159.915 16.8V8.952L162.987 8.952L162.987 6.936L159.915 6.936V0.576L157.515 0.576L157.515 16.8L159.915 16.8ZM140.571 9.984C140.571 12.504 142.419 14.112 144.579 14.112L149.907 14.112C152.067 14.112 153.915 12.504 153.915 9.984C153.915 7.464 152.067 5.856 149.907 5.856L144.579 5.856C142.419 5.856 140.571 7.464 140.571 9.984ZM145.371 12.096C143.811 12.096 142.971 11.16 142.971 9.984C142.971 8.808 143.811 7.872 145.371 7.872L149.115 7.872C150.675 7.872 151.515 8.808 151.515 9.984C151.515 11.16 150.675 12.096 149.115 12.096L145.371 12.096ZM160.395 22.464V20.448L144.123 20.448V15.528L141.723 15.528V22.464L160.395 22.464Z" fill="white"/>
<path d="M187.51 8.352C189.742 8.352 191.542 6.768 191.542 4.56C191.542 2.352 189.742 0.767999 187.51 0.767999L176.278 0.767999C174.022 0.767999 172.246 2.352 172.246 4.56C172.246 6.768 174.022 8.352 176.278 8.352L187.51 8.352ZM176.614 6.336C175.486 6.336 174.646 5.64 174.646 4.536C174.646 3.456 175.486 2.784 176.614 2.784L187.174 2.784C188.278 2.784 189.142 3.456 189.142 4.536C189.142 5.64 188.278 6.336 187.174 6.336L176.614 6.336ZM192.79 12.528V10.512L170.998 10.512V12.528L192.79 12.528ZM188.902 21.744V22.464L191.302 22.464V14.688L172.486 14.688V22.464L188.902 21.744ZM174.886 16.704L188.902 16.704V19.728L174.886 20.352V16.704Z" fill="white"/>
<path d="M201.742 12.504C205.102 12.504 207.862 10.8 207.862 7.44V5.616C207.862 2.28 205.102 0.552 201.742 0.552C198.382 0.552 195.622 2.28 195.622 5.616V7.44C195.622 10.8 198.382 12.504 201.742 12.504ZM215.11 13.296L215.11 7.368L218.182 7.368V5.352L215.11 5.352V0.576L212.71 0.576L212.71 13.296L215.11 13.296ZM201.766 10.488C199.63 10.488 198.022 9.432 198.022 7.344V5.736C198.022 3.648 199.63 2.568 201.766 2.568C203.854 2.568 205.462 3.648 205.462 5.736V7.344C205.462 9.432 203.854 10.488 201.766 10.488ZM215.11 22.704V14.4L196.534 14.4V16.416L212.71 16.416V22.704L215.11 22.704Z" fill="white"/>
<path d="M239.806 22.464L239.806 0.576L237.406 0.576L237.406 22.464L239.806 22.464ZM219.19 21.384C222.214 19.872 225.694 16.464 226.726 12.72C227.734 16.464 231.214 19.872 234.238 21.384V18.792C231.646 17.256 227.926 13.56 227.926 7.872V1.2L225.526 1.2V7.872C225.526 13.56 221.782 17.256 219.19 18.792V21.384Z" fill="white"/>
<path d="M263.11 13.392V7.416L266.182 7.416V5.4L263.11 5.4V0.576L260.71 0.576V13.392L263.11 13.392ZM243.382 12.6C246.502 12.048 249.55 10.416 250.39 7.416C251.206 10.272 254.254 11.832 257.398 12.36V10.152C254.494 9.696 251.59 7.656 251.59 3.816V3.24L257.158 3.24V1.224L243.622 1.224V3.24L249.19 3.24V3.816C249.19 7.8 246.286 9.912 243.382 10.392V12.6ZM244.39 18.36C244.39 20.856 246.454 22.584 249.07 22.584L259.054 22.584C261.694 22.584 263.758 20.856 263.758 18.36C263.758 15.864 261.694 14.16 259.054 14.16L249.07 14.16C246.454 14.16 244.39 15.864 244.39 18.36ZM249.214 20.568C247.846 20.568 246.79 19.704 246.79 18.36C246.79 17.04 247.846 16.176 249.214 16.176L258.91 16.176C260.302 16.176 261.358 17.04 261.358 18.36C261.358 19.704 260.302 20.568 258.91 20.568L249.214 20.568Z" fill="white"/>
<path d="M287.83 22.464L287.83 0.576L285.43 0.576L285.43 22.464L287.83 22.464ZM275.23 14.16C278.83 14.16 281.854 12.384 281.854 8.784V6.192C281.854 2.592 278.83 0.767999 275.23 0.767999C271.606 0.767999 268.606 2.592 268.606 6.192V8.784C268.606 12.384 271.606 14.16 275.23 14.16ZM275.23 12.144C272.878 12.144 271.006 10.896 271.006 8.808V6.168C271.006 4.032 272.878 2.784 275.23 2.784C277.606 2.784 279.454 4.032 279.454 6.168V8.808C279.454 10.896 277.606 12.144 275.23 12.144ZM284.23 20.232V18.216L267.286 19.32V21.336L284.23 20.232Z" fill="white"/>
<path d="M318.306 17.592L318.306 9.432L321.378 9.432V7.416L318.306 7.416V0.576L315.906 0.576L315.906 17.592L318.306 17.592ZM311.778 9.792L312.594 1.032L299.346 1.032V3.048L310.002 3.048L309.354 9.792L311.778 9.792ZM314.706 13.104V11.088L305.994 11.544V6.192L303.594 6.192V11.688L298.194 11.976V13.992L314.706 13.104ZM318.786 22.464V20.448L302.802 20.448L302.802 15.576L300.402 15.576L300.402 22.464L318.786 22.464Z" fill="white"/>
<path d="M334.314 4.536V2.52L329.562 2.52V0L327.162 0V2.52L322.41 2.52V4.536L334.314 4.536ZM338.058 13.92V8.064L341.01 8.064V13.92L343.41 13.92V0.576L341.01 0.576V6.048L338.058 6.048V0.576L335.658 0.576V13.92L338.058 13.92ZM322.818 9.36C322.818 11.616 324.45 13.008 326.346 13.008L330.378 13.008C332.274 13.008 333.906 11.616 333.906 9.36C333.906 7.104 332.274 5.712 330.378 5.712L326.346 5.712C324.45 5.712 322.818 7.104 322.818 9.36ZM327.018 10.992C325.842 10.992 325.218 10.296 325.218 9.36C325.218 8.424 325.842 7.728 327.018 7.728L329.706 7.728C330.882 7.728 331.506 8.424 331.506 9.36C331.506 10.296 330.882 10.992 329.706 10.992L327.018 10.992ZM323.562 18.648C323.562 20.976 325.53 22.584 328.002 22.584L339.186 22.584C341.682 22.584 343.65 20.976 343.65 18.648C343.65 16.32 341.682 14.736 339.186 14.736L328.002 14.736C325.53 14.736 323.562 16.32 323.562 18.648ZM328.146 20.568C326.922 20.568 325.962 19.824 325.962 18.648C325.962 17.496 326.922 16.752 328.146 16.752L339.042 16.752C340.29 16.752 341.25 17.496 341.25 18.648C341.25 19.824 340.29 20.568 339.042 20.568L328.146 20.568Z" fill="white"/>
<path d="M362.706 9.264C364.938 9.264 366.738 7.512 366.738 5.016C366.738 2.52 364.938 0.767999 362.706 0.767999L351.474 0.767999C349.218 0.767999 347.442 2.52 347.442 5.016C347.442 7.512 349.218 9.264 351.474 9.264L362.706 9.264ZM351.81 7.248C350.682 7.248 349.842 6.408 349.842 4.992C349.842 3.6 350.682 2.784 351.81 2.784L362.37 2.784C363.474 2.784 364.338 3.6 364.338 4.992C364.338 6.408 363.474 7.248 362.37 7.248L351.81 7.248ZM367.986 13.8V11.784L346.194 11.784V13.8L367.986 13.8ZM366.858 22.464V20.448L350.082 20.448L350.082 15.456L347.682 15.456L347.682 22.464L366.858 22.464Z" fill="white"/>
<path d="M86.6197 65.928L86.6197 52.776L90.1717 52.776V47.304L86.6197 47.304L86.6197 36.296L80.5397 36.296L80.5397 65.928H86.6197ZM67.9958 65.384C72.6998 65.384 76.4437 62.184 76.4437 57.544L76.4437 44.584C76.4437 39.912 72.6998 36.744 67.9958 36.744C63.3238 36.744 59.5798 39.912 59.5798 44.584L59.5798 57.544C59.5798 62.184 63.3238 65.384 67.9958 65.384ZM68.0597 60.456C66.3637 60.456 65.1797 59.304 65.1797 57.864L65.1797 44.232C65.1797 42.856 66.3637 41.608 68.0597 41.608C69.7237 41.608 70.9398 42.856 70.9398 44.232L70.9398 57.864C70.9398 59.304 69.7237 60.456 68.0597 60.456Z" fill="white"/>
<path d="M119.644 65.928L119.644 36.296L113.436 36.296L113.436 65.928H119.644ZM110.396 42.248V37.32L91.6117 37.32V42.248L110.396 42.248ZM111.612 63.56L111.612 58.312L97.6917 59.304L97.6917 49.384L110.236 49.384L110.236 44.552L91.6117 44.552L91.6117 64.904L111.612 63.56Z" fill="white"/>
<path d="M123.708 53.64C130.332 53.48 135.1 50.44 137.5 46.728C139.932 50.44 144.7 53.48 151.324 53.64V48.488C144.732 47.976 140.604 43.208 140.604 39.432V36.488L134.428 36.488V39.432C134.428 43.208 130.3 47.976 123.708 48.488V53.64ZM152.188 65.384V60.04L122.844 60.04L122.844 65.384L152.188 65.384Z" fill="white"/>
<path d="M182.844 41.544L182.844 36.808L156.156 36.808L156.156 41.544L182.844 41.544ZM183.164 55.272V50.44L162.332 50.44V47.944L182.716 47.944V43.336L156.156 43.336V55.272L183.164 55.272ZM184.188 65.384V60.264L154.844 60.264V65.384L184.188 65.384Z" fill="white"/>
<path d="M215.58 65.928L215.58 36.296L209.404 36.296L209.404 65.928L215.58 65.928ZM197.052 55.176C202.012 55.176 206.076 52.648 206.076 47.4V44.264C206.076 39.016 202.012 36.328 197.052 36.328C192.124 36.328 188.092 39.016 188.092 44.264V47.4C188.092 52.648 192.124 55.176 197.052 55.176ZM197.052 50.44C195.292 50.44 193.884 49.384 193.884 47.656V43.944C193.884 42.216 195.292 41.096 197.052 41.096C198.876 41.096 200.316 42.216 200.316 43.944V47.656C200.316 49.384 198.876 50.44 197.052 50.44ZM208.38 63.944V58.728L186.94 60.04V65.256L208.38 63.944Z" fill="white"/>
<path d="M251.126 45.256V53.768L257.206 53.768L257.206 36.296L251.126 36.296V40.392L244.79 40.392L244.79 45.256L251.126 45.256ZM228.79 53.384C233.078 52.392 236.405 50.472 238.229 47.752C240.053 50.408 243.349 52.296 247.605 53.224V47.816C243.413 46.568 241.206 44.008 241.206 39.944V36.488L235.19 36.488V39.944C235.19 44.008 232.982 46.856 228.79 48.104V53.384ZM230.294 60.264C230.294 63.592 233.045 66.088 236.501 66.088L251.35 66.088C254.87 66.088 257.622 63.592 257.622 60.264C257.622 56.872 254.87 54.472 251.35 54.472L236.501 54.472C233.045 54.472 230.294 56.872 230.294 60.264ZM238.229 61.64C237.205 61.64 236.374 61.224 236.374 60.264C236.374 59.24 237.205 58.888 238.229 58.888L249.622 58.888C250.742 58.888 251.542 59.24 251.542 60.264C251.542 61.224 250.742 61.64 249.622 61.64L238.229 61.64Z" fill="white"/>
<path d="M288.246 53.48L288.246 47.08H291.766V42.024H288.246V36.296L282.165 36.296L282.165 53.48L288.246 53.48ZM260.79 53.096C264.982 52.904 268.47 51.464 270.294 48.328C272.182 51.24 275.638 52.584 279.766 52.776L279.766 47.72C276.118 47.4 273.174 45.864 273.046 41.896V41.736L279.445 41.736V36.84L261.109 36.84V41.736L267.478 41.736V41.896C267.318 45.896 264.47 47.72 260.79 48.04L260.79 53.096ZM262.134 60.136C262.134 63.56 264.885 66.088 268.341 66.088L282.678 66.088C286.198 66.088 288.949 63.56 288.949 60.136C288.949 56.68 286.198 54.184 282.678 54.184L268.341 54.184C264.885 54.184 262.134 56.68 262.134 60.136ZM269.941 61.544C268.917 61.544 268.214 61.064 268.214 60.136C268.214 59.208 268.917 58.696 269.941 58.696L281.078 58.696C282.198 58.696 282.902 59.208 282.902 60.136C282.902 61.064 282.198 61.544 281.078 61.544L269.941 61.544Z" fill="white"/>
<path d="M320.214 65.928V52.776L323.766 52.776L323.766 47.304L320.214 47.304V36.296L314.134 36.296L314.134 65.928L320.214 65.928ZM310.71 57.96L311.734 36.808L293.397 36.808V41.896L305.781 41.896L305.046 57.96L310.71 57.96ZM313.109 64.456V59.272L302.518 59.976L302.518 47.528L296.758 47.528L296.758 60.328L292.47 60.584V65.8L313.109 64.456Z" fill="white"/>
<path d="M65.7878 88.92C68.7317 88.92 71.1637 86.552 71.1637 83.608C71.1637 80.632 68.7317 78.2 65.7878 78.2L49.2117 78.2C46.2357 78.2 43.8357 80.632 43.8357 83.608C43.8357 86.552 46.2357 88.92 49.2117 88.92L65.7878 88.92ZM50.9077 84.728C50.2357 84.728 49.7237 84.28 49.7237 83.608C49.7237 82.968 50.2357 82.488 50.9077 82.488L64.1878 82.488C64.8598 82.488 65.4037 82.968 65.4037 83.608C65.4037 84.28 64.8598 84.728 64.1878 84.728L50.9077 84.728ZM72.1878 95.096V90.616L42.8438 90.616L42.8438 95.096L72.1878 95.096ZM64.9557 107.064V107.928L70.8438 107.928L70.8438 97.048L44.1557 97.048L44.1557 107.928L64.9557 107.064ZM50.0437 100.984L64.9557 100.984V102.936L50.0437 103.448L50.0437 100.984Z" fill="white"/>
<path d="M83.9638 94.776C88.6038 94.776 92.4118 92.408 92.4118 87.736L92.4118 85.368C92.4118 80.728 88.6038 78.296 83.9638 78.296C79.3238 78.296 75.5157 80.728 75.5157 85.368L75.5157 87.736C75.5157 92.408 79.3238 94.776 83.9638 94.776ZM102.652 95.704L102.652 88.92L106.172 88.92L106.172 83.832L102.652 83.832L102.652 78.296H96.5718L96.5718 95.704H102.652ZM84.0277 90.52C82.3637 90.52 81.1478 89.624 81.1478 88.088L81.1478 84.984C81.1478 83.448 82.3637 82.552 84.0277 82.552C85.6597 82.552 86.9078 83.448 86.9078 84.984L86.9078 88.088C86.9078 89.624 85.6597 90.52 84.0277 90.52ZM102.652 108.248L102.652 96.632L76.6038 96.632V101.432L96.3478 101.432L96.3478 108.248H102.652Z" fill="white"/>
<path d="M135.58 107.928L135.58 78.296H129.372L129.372 107.928H135.58ZM107.132 106.872C111.228 104.824 114.972 101.784 117.052 97.336C119.1 101.784 122.876 104.824 126.972 106.872L126.972 100.056C123.516 97.816 120.092 94.328 120.092 85.272V78.968H114.012V85.272C114.012 94.328 110.556 97.816 107.132 100.056L107.132 106.872Z" fill="white"/>
<path d="M166.652 95.48L166.652 89.08L170.172 89.08V84.024L166.652 84.024V78.296L160.572 78.296L160.572 95.48L166.652 95.48ZM139.196 95.096C143.388 94.904 146.876 93.464 148.7 90.328C150.588 93.24 154.044 94.584 158.172 94.776L158.172 89.72C154.524 89.4 151.58 87.864 151.452 83.896V83.736L157.852 83.736V78.84L139.516 78.84V83.736L145.884 83.736V83.896C145.724 87.896 142.876 89.72 139.196 90.04L139.196 95.096ZM140.54 102.136C140.54 105.56 143.292 108.088 146.748 108.088L161.084 108.088C164.604 108.088 167.356 105.56 167.356 102.136C167.356 98.68 164.604 96.184 161.084 96.184L146.748 96.184C143.292 96.184 140.54 98.68 140.54 102.136ZM148.348 103.544C147.324 103.544 146.62 103.064 146.62 102.136C146.62 101.208 147.324 100.696 148.348 100.696L159.484 100.696C160.604 100.696 161.308 101.208 161.308 102.136C161.308 103.064 160.604 103.544 159.484 103.544L148.348 103.544Z" fill="white"/>
<path d="M199.58 107.928L199.58 78.296L193.404 78.296L193.404 107.928L199.58 107.928ZM181.052 97.176C186.012 97.176 190.076 94.648 190.076 89.4V86.264C190.076 81.016 186.012 78.328 181.052 78.328C176.124 78.328 172.092 81.016 172.092 86.264V89.4C172.092 94.648 176.124 97.176 181.052 97.176ZM181.052 92.44C179.292 92.44 177.884 91.384 177.884 89.656V85.944C177.884 84.216 179.292 83.096 181.052 83.096C182.876 83.096 184.316 84.216 184.316 85.944V89.656C184.316 91.384 182.876 92.44 181.052 92.44ZM192.38 105.944V100.728L170.94 102.04V107.256L192.38 105.944Z" fill="white"/>
<path d="M239.51 107.928L239.51 94.776H243.766L243.766 89.304H239.51V78.296L233.43 78.296L233.43 107.928L239.51 107.928ZM231.893 105.528V100.312L219.382 101.304L219.382 84.248L230.453 84.248V79.32L213.302 79.32L213.302 106.904L231.893 105.528Z" fill="white"/>
<path d="M253.557 94.776C258.197 94.776 262.005 92.408 262.005 87.736V85.368C262.005 80.728 258.197 78.296 253.557 78.296C248.917 78.296 245.109 80.728 245.109 85.368V87.736C245.109 92.408 248.917 94.776 253.557 94.776ZM272.246 95.64V92.248H275.51V87.832H272.246V85.304H275.51L275.51 80.888H272.246V78.296L266.165 78.296L266.165 95.64L272.246 95.64ZM253.622 90.52C251.958 90.52 250.742 89.624 250.742 88.088V84.984C250.742 83.448 251.958 82.552 253.622 82.552C255.254 82.552 256.501 83.448 256.501 84.984V88.088C256.501 89.624 255.254 90.52 253.622 90.52ZM266.678 108.088C270.198 108.088 272.949 105.592 272.949 102.264C272.949 98.872 270.198 96.472 266.678 96.472L252.341 96.472C248.885 96.472 246.134 98.872 246.134 102.264C246.134 105.592 248.885 108.088 252.341 108.088L266.678 108.088ZM254.07 103.64C253.046 103.64 252.246 103.224 252.246 102.264C252.246 101.24 253.046 100.888 254.07 100.888L264.918 100.888C266.07 100.888 266.87 101.24 266.87 102.264C266.87 103.224 266.07 103.64 264.918 103.64L254.07 103.64Z" fill="white"/>
<path d="M299.126 87.256V95.768L305.206 95.768L305.206 78.296L299.126 78.296V82.392L292.79 82.392L292.79 87.256L299.126 87.256ZM276.79 95.384C281.078 94.392 284.405 92.472 286.229 89.752C288.053 92.408 291.349 94.296 295.605 95.224V89.816C291.413 88.568 289.206 86.008 289.206 81.944V78.488L283.19 78.488V81.944C283.19 86.008 280.982 88.856 276.79 90.104V95.384ZM278.294 102.264C278.294 105.592 281.045 108.088 284.501 108.088L299.35 108.088C302.87 108.088 305.622 105.592 305.622 102.264C305.622 98.872 302.87 96.472 299.35 96.472L284.501 96.472C281.045 96.472 278.294 98.872 278.294 102.264ZM286.229 103.64C285.205 103.64 284.374 103.224 284.374 102.264C284.374 101.24 285.205 100.888 286.229 100.888L297.622 100.888C298.742 100.888 299.542 101.24 299.542 102.264C299.542 103.224 298.742 103.64 297.622 103.64L286.229 103.64Z" fill="white"/>
<path d="M331.382 88.184C334.325 88.184 336.758 86.008 336.758 83.224C336.758 80.408 334.325 78.2 331.382 78.2L314.806 78.2C311.83 78.2 309.43 80.408 309.43 83.224C309.43 86.008 311.83 88.184 314.806 88.184L331.382 88.184ZM316.501 84.28C315.829 84.28 315.318 83.832 315.318 83.256C315.318 82.68 315.829 82.232 316.501 82.232L329.781 82.232C330.453 82.232 330.997 82.68 330.997 83.256C330.997 83.832 330.453 84.28 329.781 84.28L316.501 84.28ZM337.781 93.88V89.592L308.438 89.592V93.88L337.781 93.88ZM336.918 107.928V104.408L315.829 104.408V103.064L336.438 103.064V95.512L309.75 95.512V98.744L330.389 98.744V99.992L309.75 99.992V107.928L336.918 107.928Z" fill="white"/>
<path d="M28 134.472L28 120.808L1.312 120.808L1.312 134.472L28 134.472ZM7.296 125.768L22.048 125.768L22.048 129.576L7.296 129.576L7.296 125.768ZM17.76 150.248L17.76 142.312L29.344 142.312L29.344 137.128L0 137.128L0 142.312L11.552 142.312L11.552 150.248H17.76Z" fill="white"/>
<path d="M60.64 149.928L60.64 120.296H54.56L54.56 130.376H46.144L46.144 135.848H54.56L54.56 149.928L60.64 149.928ZM52.704 147.528L52.704 142.216L39.232 143.144L39.232 121.16L32.928 121.16L32.928 148.904L52.704 147.528Z" fill="white"/>
<path d="M78.144 136.84L78.144 132.008L70.816 132.424L70.816 126.184H77.792V121.256L65.088 121.256L65.088 137.64L78.144 136.84ZM92.384 137.32L92.384 132.36L84.576 132.36L84.576 126.184L92.224 126.184V121.256L78.88 121.256L78.88 137.32L92.384 137.32ZM93.344 149.384L93.344 143.912L64 143.912L64 149.384L93.344 149.384Z" fill="white"/>
<path d="M124.8 149.928L124.8 120.296L118.592 120.296L118.592 149.928L124.8 149.928ZM116.832 147.24L116.832 142.056L102.848 143.176V136.84L114.432 136.84L114.432 121.32L96.768 121.32V126.376L108.416 126.376L108.416 131.912L96.768 131.912L96.768 148.904L116.832 147.24Z" fill="white"/>
<path d="M156.16 131.048V126.632L135.296 126.632L135.296 120.168H129.312L129.312 131.048L156.16 131.048ZM157.344 138.312V133.512L128 133.512L128 138.312L157.344 138.312ZM156.48 149.928V145.256L135.392 145.256L135.392 139.976H129.312L129.312 149.928L156.48 149.928Z" fill="white"/>
<path d="M189.914 137.576C194.65 137.576 197.978 133.832 197.978 129.128C197.978 124.424 194.65 120.648 189.914 120.648L178.554 120.648C173.85 120.648 170.522 124.424 170.522 129.128C170.522 133.832 173.85 137.576 178.554 137.576H189.914ZM180.218 132.68C178.17 132.68 176.73 131.176 176.73 129.128C176.73 127.112 178.17 125.64 180.218 125.64L188.314 125.64C190.362 125.64 191.802 127.112 191.802 129.128C191.802 131.176 190.362 132.68 188.314 132.68H180.218ZM198.938 149.384V144.168H193.274L193.274 138.728L187.61 138.728L187.61 144.168H181.018L181.018 138.728H175.354L175.354 144.168L169.594 144.168V149.384L198.938 149.384Z" fill="white"/>
<path d="M211.258 138.056C216.154 138.056 220.154 135.496 220.154 130.888V127.496C220.154 122.824 216.154 120.296 211.258 120.296C206.33 120.296 202.33 122.824 202.33 127.496V130.888C202.33 135.496 206.33 138.056 211.258 138.056ZM230.394 141.832L230.394 120.296L224.186 120.296L224.186 141.832H230.394ZM211.258 133.544C209.562 133.544 208.314 132.648 208.314 131.208V127.24C208.314 125.768 209.562 124.776 211.258 124.776C212.89 124.776 214.202 125.768 214.202 127.24V131.208C214.202 132.648 212.89 133.544 211.258 133.544ZM230.906 149.928V145.128L209.914 145.128L209.914 139.816L203.77 139.816L203.77 149.928L230.906 149.928Z" fill="white"/>
<path d="M262.394 149.928L262.394 120.296L256.186 120.296L256.186 149.928L262.394 149.928ZM243.194 149.384C248.154 149.384 252.154 146.184 252.154 141.544L252.154 128.584C252.154 123.912 248.154 120.744 243.194 120.744C238.266 120.744 234.33 123.912 234.33 128.584L234.33 141.544C234.33 146.184 238.266 149.384 243.194 149.384ZM243.29 144.456C241.466 144.456 240.218 143.272 240.218 141.832L240.218 128.264C240.218 126.92 241.466 125.608 243.29 125.608C245.082 125.608 246.362 126.92 246.362 128.264L246.362 141.832C246.362 143.272 245.082 144.456 243.29 144.456Z" fill="white"/>
<path d="M297.747 137.768H303.924V120.296L297.747 120.296V137.768ZM288.18 132.808V130.504L294.996 130.504V126.504L282.355 126.504V124.68L294.676 124.68V120.808L276.467 120.808V130.504H282.676V133.096L275.124 133.416V137.512L296.724 136.52V132.424L288.18 132.808ZM283.348 140.072V138.472H277.363L277.363 149.928L297.94 148.968L297.94 149.928H303.924L303.924 138.472H297.94V140.072L283.348 140.072ZM283.348 145.736V143.848L297.94 143.848V145.16L283.348 145.736Z" fill="white"/>
<path d="M335.892 149.928L335.892 120.296L329.684 120.296L329.684 149.928H335.892ZM327.924 147.528V142.216L314.484 143.144V121.16L308.147 121.16V148.904L327.924 147.528Z" fill="white"/>
<path d="M366.26 149.928L366.26 136.776H370.516V131.304H366.26V120.296L360.18 120.296L360.18 149.928H366.26ZM358.643 147.528V142.312L346.132 143.304V126.248L357.203 126.248V121.32L340.052 121.32V148.904L358.643 147.528Z" fill="white"/>
<path d="M376.884 148.936V143.528L371.508 143.528V148.936L376.884 148.936Z" fill="white"/>
</svg>
