<svg width="26" height="26" viewBox="0 0 26 26" fill="none" xmlns="http://www.w3.org/2000/svg">
<path fill-rule="evenodd" clip-rule="evenodd" d="M13 26C20.1797 26 26 20.1797 26 13C26 5.8203 20.1797 0 13 0C5.8203 0 0 5.8203 0 13C0 20.1797 5.8203 26 13 26ZM21.6335 8.0338C21.3752 8.79448 20.8332 9.4401 20.109 9.85012C20.7961 9.77279 21.4671 9.59845 22.0997 9.33292C21.6342 9.99254 21.0482 10.5682 20.3691 11.0329C20.3762 11.1737 20.3797 11.3153 20.3797 11.4576C20.3979 13.9405 19.3644 16.3267 17.5105 18.0825C15.6566 19.8383 13.1369 20.8171 10.515 20.8001C8.63042 20.8019 6.78515 20.2898 5.19971 19.325C5.47457 19.3554 5.75109 19.3705 6.02782 19.3701C7.5891 19.3725 9.10585 18.8775 10.334 17.9647C8.85113 17.9373 7.5501 17.0215 7.09508 15.6847C7.61474 15.779 8.15027 15.7596 8.66082 15.6281C7.04287 15.3183 5.87948 13.9718 5.87916 12.4086V12.3673C6.3603 12.621 6.89852 12.7621 7.44895 12.7789C5.92679 11.8139 5.4573 9.89558 6.37603 8.39492C8.13646 10.4461 10.7336 11.693 13.5212 11.8256C13.171 10.3792 13.8867 8.88977 15.2683 8.18961C16.6499 7.48946 18.3555 7.75188 19.432 8.83026C20.2084 8.68556 20.953 8.41619 21.6335 8.0338Z" fill="#1DA1F2"/>
</svg>
