<svg width="26" height="26" viewBox="0 0 26 26" fill="none" xmlns="http://www.w3.org/2000/svg">
<path fill-rule="evenodd" clip-rule="evenodd" d="M13 26C20.1797 26 26 20.1797 26 13C26 5.8203 20.1797 0 13 0C5.8203 0 0 5.8203 0 13C0 20.1797 5.8203 26 13 26ZM12.9939 18.2002H13.0094C13.209 18.2002 17.9108 18.1972 19.0954 17.8981C19.7658 17.7256 20.2899 17.2276 20.4726 16.5896C20.6948 15.4112 20.8038 14.216 20.7983 13.0188C20.8137 11.8166 20.7074 10.6159 20.4811 9.4331C20.2999 8.7956 19.7772 8.29751 19.1079 8.12456C17.9007 7.80912 13.0539 7.80021 13.0048 7.80021H12.9884C12.7889 7.80021 8.08781 7.80021 6.90163 8.0971C6.23203 8.27965 5.71055 8.78106 5.52529 9.42048C5.30341 10.6004 5.19463 11.7971 5.2003 12.9958C5.19148 14.1925 5.29739 15.3875 5.51672 16.5658C5.69702 17.2047 6.2208 17.7038 6.8915 17.8759C8.11119 18.1913 12.9455 18.2002 12.9939 18.2002ZM11.4468 15.2261L11.4507 10.7728L15.5088 12.9995L11.4468 15.2261Z" fill="#ED3023"/>
</svg>
