<svg width="48" height="48" viewBox="0 0 48 48" fill="none" xmlns="http://www.w3.org/2000/svg">
<circle cx="24" cy="24" r="24" fill="#3180F4"/>
<path fill-rule="evenodd" clip-rule="evenodd" d="M11.5996 23.0992C11.5996 16.5332 17.1577 11.1992 23.9996 11.1992C30.8415 11.1992 36.3996 16.5332 36.3996 23.0992C36.3996 29.3992 31.8189 35.9232 24.729 39.1992V34.9992H23.9996C17.1577 34.9992 11.5996 29.6652 11.5996 23.0992ZM23.1225 28.7992V31.1992H25.5225V28.7992H23.1225ZM25.247 23.1852C24.253 23.9471 23.1225 24.8137 23.1225 26.9992H25.5225C25.5225 25.6848 26.3757 24.9391 27.2514 24.1739C28.1744 23.3672 29.1225 22.5387 29.1225 20.9992C29.1225 18.3472 26.9745 16.1992 24.3225 16.1992C21.6705 16.1992 19.5225 18.3472 19.5225 20.9992H21.9225C21.9225 19.6792 23.0025 18.5992 24.3225 18.5992C25.6425 18.5992 26.7225 19.6792 26.7225 20.9992C26.7225 22.0543 26.0267 22.5875 25.247 23.1852Z" fill="white"/>
</svg>
