<svg width="48" height="48" viewBox="0 0 48 48" fill="none" xmlns="http://www.w3.org/2000/svg">
<circle cx="24" cy="24" r="24" fill="#15C07E"/>
<path fill-rule="evenodd" clip-rule="evenodd" d="M33.6 13.5996H14.4C13.08 13.5996 12 14.6796 12 15.9996V32.7996C12 34.1196 13.08 35.1996 14.4 35.1996H33.6C34.92 35.1996 36 34.1196 36 32.7996V15.9996C36 14.6796 34.92 13.5996 33.6 13.5996ZM21.6 30.3996H15.6V27.9996H21.6V30.3996ZM21.6 25.5996H15.6V23.1996H21.6V25.5996ZM21.6 20.7996H15.6V18.3996H21.6V20.7996ZM27.384 27.9996L24 24.5916L25.692 22.8996L27.384 24.6036L31.188 20.7996L32.892 22.5036L27.384 27.9996Z" fill="white"/>
</svg>
