<svg width="48" height="48" viewBox="0 0 48 48" fill="none" xmlns="http://www.w3.org/2000/svg">
<circle cx="24" cy="24" r="24" fill="#F26570"/>
<path d="M23.9962 14.7818L33.0322 30.3938H14.9602L23.9962 14.7818ZM12.8842 29.1938C11.9602 30.7898 13.1122 32.7938 14.9602 32.7938H33.0322C34.8802 32.7938 36.0322 30.7898 35.1082 29.1938L26.0722 13.5818C25.1482 11.9858 22.8442 11.9858 21.9202 13.5818L12.8842 29.1938ZM22.7962 20.7938V23.1938C22.7962 23.8538 23.3362 24.3938 23.9962 24.3938C24.6562 24.3938 25.1962 23.8538 25.1962 23.1938V20.7938C25.1962 20.1338 24.6562 19.5938 23.9962 19.5938C23.3362 19.5938 22.7962 20.1338 22.7962 20.7938ZM22.7962 26.7938H25.1962V29.1938H22.7962V26.7938Z" fill="white"/>
</svg>
