<svg width="56" height="56" viewBox="0 0 56 56" fill="none" xmlns="http://www.w3.org/2000/svg">
<circle cx="28" cy="28" r="28" fill="#EA4335"/>
<path d="M32.4852 26.3378C33.7562 26.3378 35.0272 26.3438 36.2982 26.3378C36.5722 26.3378 36.7221 26.3938 36.7731 26.7038C37.4261 30.7208 35.5002 35.8778 29.9282 36.9278C28.4269 37.2186 26.8764 37.1262 25.4203 36.659C23.9642 36.1918 22.6494 35.365 21.5975 34.255C20.5457 33.145 19.7907 31.7877 19.4025 30.3086C19.0142 28.8295 19.0052 27.2763 19.3763 25.7928C19.7474 24.3093 20.4867 22.9434 21.5256 21.8213C22.5646 20.6992 23.8697 19.8572 25.3203 19.3732C26.7709 18.8892 28.3201 18.7789 29.8247 19.0524C31.3293 19.3258 32.7406 19.9743 33.9282 20.9378C34.1832 21.1378 34.1351 21.2378 33.9371 21.4248C33.2321 22.1068 32.5371 22.7978 31.8561 23.5058C31.8242 23.5551 31.7818 23.5967 31.732 23.6278C31.6822 23.6589 31.6261 23.6787 31.5677 23.6856C31.5094 23.6926 31.4503 23.6866 31.3945 23.6681C31.3388 23.6497 31.2877 23.6192 31.2451 23.5788C30.6496 23.1686 29.9775 22.8828 29.269 22.7384C28.5605 22.5939 27.8301 22.5939 27.1216 22.7382C26.413 22.8825 25.7409 23.1682 25.1453 23.5782C24.5497 23.9882 24.0428 24.5141 23.6551 25.1245C23.2675 25.7349 23.0068 26.4171 22.8889 27.1305C22.7709 27.8439 22.798 28.5738 22.9686 29.2765C23.1391 29.9792 23.4496 30.6403 23.8815 31.2202C24.3134 31.8001 24.8578 32.287 25.4821 32.6518C26.4487 33.1971 27.5538 33.4478 28.6611 33.373C29.7684 33.2982 30.8297 32.9012 31.7142 32.2308C32.3497 31.6906 32.8036 30.9678 33.0142 30.1608C33.0922 29.8848 33.0321 29.8368 32.7671 29.8388C31.3991 29.8488 30.0311 29.8318 28.6671 29.8508C28.3281 29.8558 28.2181 29.7688 28.2281 29.4188C28.2521 28.5188 28.2491 27.6188 28.2281 26.7248C28.2201 26.4068 28.3282 26.3328 28.6282 26.3368C29.9122 26.3528 31.1982 26.3437 32.4832 26.3437L32.4852 26.3378Z" fill="white"/>
</svg>
