<svg width="56" height="56" viewBox="0 0 56 56" fill="none" xmlns="http://www.w3.org/2000/svg">
<circle cx="28" cy="28" r="28" fill="#F0776D"/>
<rect width="24" height="24" transform="translate(16 16)" fill="#F0776D"/>
<path d="M32.4852 26.3382C33.7562 26.3382 35.0272 26.3442 36.2982 26.3382C36.5722 26.3382 36.7221 26.3942 36.7731 26.7042C37.4261 30.7212 35.5002 35.8782 29.9282 36.9282C28.4269 37.2191 26.8764 37.1267 25.4203 36.6595C23.9642 36.1923 22.6494 35.3655 21.5975 34.2555C20.5457 33.1455 19.7907 31.7882 19.4025 30.3091C19.0142 28.83 19.0052 27.2768 19.3763 25.7933C19.7474 24.3098 20.4867 22.9439 21.5256 21.8218C22.5646 20.6997 23.8697 19.8577 25.3203 19.3737C26.7709 18.8897 28.3201 18.7794 29.8247 19.0528C31.3293 19.3263 32.7406 19.9748 33.9282 20.9383C34.1832 21.1383 34.1351 21.2383 33.9371 21.4253C33.2321 22.1073 32.5371 22.7982 31.8561 23.5062C31.8242 23.5556 31.7818 23.5972 31.732 23.6283C31.6822 23.6594 31.6261 23.6791 31.5677 23.6861C31.5094 23.6931 31.4503 23.6871 31.3945 23.6686C31.3388 23.6502 31.2877 23.6197 31.2451 23.5792C30.6496 23.1691 29.9775 22.8833 29.269 22.7389C28.5605 22.5944 27.8301 22.5944 27.1216 22.7387C26.413 22.883 25.7409 23.1687 25.1453 23.5787C24.5497 23.9887 24.0428 24.5146 23.6551 25.125C23.2675 25.7354 23.0068 26.4176 22.8889 27.131C22.7709 27.8444 22.798 28.5743 22.9686 29.277C23.1391 29.9797 23.4496 30.6408 23.8815 31.2207C24.3134 31.8006 24.8577 32.2875 25.4821 32.6522C26.4487 33.1976 27.5538 33.4483 28.6611 33.3735C29.7684 33.2987 30.8297 32.9017 31.7142 32.2313C32.3497 31.6911 32.8036 30.9683 33.0142 30.1612C33.0922 29.8852 33.0321 29.8373 32.7671 29.8393C31.3991 29.8493 30.0311 29.8322 28.6671 29.8512C28.3281 29.8562 28.2181 29.7692 28.2281 29.4192C28.2521 28.5192 28.2491 27.6192 28.2281 26.7252C28.2201 26.4072 28.3282 26.3332 28.6282 26.3372C29.9122 26.3532 31.1982 26.3442 32.4832 26.3442L32.4852 26.3382Z" fill="white"/>
</svg>
