<svg width="58" height="14" viewBox="0 0 58 14" fill="none" xmlns="http://www.w3.org/2000/svg">
<path d="M27.86 4.80549C28.3117 5.11382 28.6683 5.55549 28.93 6.13049C29.1917 6.70549 29.3217 7.38716 29.3217 8.17215C29.3217 8.94882 29.1917 9.62716 28.93 10.2072C28.6683 10.7872 28.3117 11.2305 27.86 11.5388C27.4083 11.8472 26.8967 12.0005 26.325 12.0005C25.795 12.0005 25.3383 11.8705 24.9583 11.6122C24.5767 11.3538 24.3 11.0005 24.125 10.5538V11.9055H22V2.00049H24.125V5.78882C24.2983 5.34215 24.5767 4.99049 24.9583 4.73215C25.34 4.47382 25.795 4.34382 26.325 4.34382C26.8967 4.34382 27.4083 4.49715 27.86 4.80549ZM24.5417 6.84049C24.2567 7.16716 24.1133 7.61049 24.1133 8.17215C24.1133 8.72549 24.2567 9.16716 24.5417 9.49716C24.8283 9.82716 25.195 9.99216 25.6417 9.99216C26.0967 9.99216 26.4633 9.83216 26.7417 9.51049C27.02 9.18882 27.1583 8.74216 27.1583 8.17215C27.1583 7.60049 27.02 7.15382 26.7417 6.83382C26.4633 6.51216 26.0967 6.35216 25.6417 6.35216C25.195 6.35049 24.8283 6.51382 24.5417 6.84049Z" fill="#1D1D1D"/>
<path d="M33.5602 4.75909C33.9785 4.49076 34.4318 4.35742 34.9218 4.35742V6.80742H34.3135C33.7502 6.80742 33.3135 6.93742 33.0018 7.19575C32.6902 7.45409 32.5352 7.89242 32.5352 8.50742V11.9074H30.4102V4.43742H32.5352V5.84242C32.7985 5.38742 33.1418 5.02576 33.5602 4.75909Z" fill="#1D1D1D"/>
<path d="M47.0817 5.20742C47.5701 5.77409 47.8151 6.56242 47.8151 7.57075V11.9074H45.7017V7.83742C45.7017 7.36409 45.5834 6.99575 45.3467 6.73242C45.1101 6.46909 44.7901 6.33742 44.3834 6.33742C43.9617 6.33742 43.6267 6.47742 43.3834 6.75909C43.1384 7.04076 43.0167 7.43576 43.0167 7.94409V11.9058H40.8901V7.83742C40.8901 7.36409 40.7734 6.99575 40.5417 6.73242C40.3101 6.46909 39.9901 6.33742 39.5851 6.33742C39.1617 6.33742 38.8267 6.47575 38.5784 6.75242C38.3301 7.02909 38.2051 7.42576 38.2051 7.94409V11.9058H36.0801V4.43742H38.2051V5.70909C38.3867 5.28909 38.6667 4.95909 39.0434 4.71909C39.4201 4.47742 39.8617 4.35742 40.3667 4.35742C40.8967 4.35742 41.3651 4.48909 41.7717 4.75242C42.1784 5.01576 42.4834 5.39242 42.6917 5.88409C42.9317 5.42076 43.2617 5.04909 43.6801 4.77242C44.0984 4.49576 44.5601 4.35742 45.0667 4.35742C45.9217 4.35742 46.5934 4.64076 47.0817 5.20742Z" fill="#1D1D1D"/>
<path d="M55.0629 5.21234C55.5312 5.784 55.7645 6.569 55.7645 7.569V11.9057H53.6395V7.83567C53.6395 7.33567 53.5179 6.94567 53.2729 6.664C53.0279 6.38234 52.7029 6.24234 52.2979 6.24234C51.8662 6.24234 51.5245 6.389 51.2729 6.684C51.0195 6.979 50.8945 7.39734 50.8945 7.94234V11.904H48.7695V4.43567H50.8945V5.80067C51.0929 5.354 51.3895 5.00234 51.7829 4.74234C52.1762 4.484 52.6379 4.354 53.1695 4.354C53.9629 4.35567 54.5945 4.64067 55.0629 5.21234Z" fill="#1D1D1D"/>
<path d="M12.5936 11.0527H1.07267L0 14.0002H11.5209L12.5936 11.0527Z" fill="#1D1D1D"/>
<path d="M14.2489 3.315C13.3328 3.315 12.5908 2.57299 12.5908 1.65695C12.5924 0.742496 13.3344 0.000488281 14.2489 0.000488281C15.1649 0.000488281 15.9069 0.742496 15.9069 1.65854C15.9069 2.57299 15.1649 3.315 14.2489 3.315Z" fill="#1D1D1D"/>
<path d="M10.5053 0.000488281H5.09611L4.02344 2.94795H9.43266L10.5053 0.000488281Z" fill="#1D1D1D"/>
<path d="M9.16353 3.68555H3.75431L2.68164 6.63301H8.09086L9.16353 3.68555Z" fill="#1D1D1D"/>
<path d="M13.9354 7.36768H2.41447L1.3418 10.3151H12.8627L13.9354 7.36768Z" fill="#1D1D1D"/>
</svg>
