<svg width="28" height="25" viewBox="0 0 28 25" fill="none" xmlns="http://www.w3.org/2000/svg">
<path d="M21.5896 18.9492H1.83892L0 24.0022H19.7507L21.5896 18.9492Z" fill="white"/>
<path d="M24.4255 5.6822C22.8551 5.6822 21.583 4.41015 21.583 2.83974C21.5857 1.27205 22.8578 0 24.4255 0C25.9959 0 27.2679 1.27205 27.2679 2.84246C27.2679 4.41015 25.9959 5.6822 24.4255 5.6822Z" fill="white"/>
<path d="M18.0086 0H8.7354L6.89648 5.05295H16.1697L18.0086 0Z" fill="white"/>
<path d="M15.7098 6.31738H6.43657L4.59766 11.3703H13.8709L15.7098 6.31738Z" fill="white"/>
<path d="M23.8904 12.6318H4.1397L2.30078 17.6848H22.0515L23.8904 12.6318Z" fill="white"/>
</svg>
