<svg width="108" height="26" viewBox="0 0 108 26" fill="none" xmlns="http://www.w3.org/2000/svg">
<path d="M50.0284 8.49201C50.9555 9.1249 51.6876 10.0315 52.2247 11.2117C52.7618 12.392 53.0287 13.7912 53.0287 15.4025C53.0287 16.9967 52.7618 18.3891 52.2247 19.5796C51.6876 20.7702 50.9555 21.6802 50.0284 22.3131C49.1013 22.946 48.0511 23.2607 46.8776 23.2607C45.7897 23.2607 44.8524 22.9938 44.0724 22.4636C43.2889 21.9333 42.7211 21.2081 42.3618 20.2912V23.0657H38V2.73438H42.3618V10.5104C42.7176 9.59359 43.2889 8.87174 44.0724 8.34148C44.8558 7.81122 45.7897 7.54437 46.8776 7.54437C48.0511 7.54437 49.1013 7.85911 50.0284 8.49201ZM43.2171 12.6691C42.6321 13.3396 42.3379 14.2496 42.3379 15.4025C42.3379 16.5383 42.6321 17.4449 43.2171 18.1223C43.8055 18.7996 44.5582 19.1383 45.475 19.1383C46.4089 19.1383 47.1616 18.8099 47.7329 18.1496C48.3042 17.4894 48.5882 16.5725 48.5882 15.4025C48.5882 14.2291 48.3042 13.3123 47.7329 12.6554C47.1616 11.9952 46.4089 11.6667 45.475 11.6667C44.5582 11.6633 43.8055 11.9986 43.2171 12.6691Z" fill="white"/>
<path d="M61.7295 8.39772C62.5881 7.84693 63.5187 7.57324 64.5245 7.57324V12.6022H63.2758C62.1195 12.6022 61.2231 12.869 60.5834 13.3993C59.9437 13.9296 59.6255 14.8293 59.6255 16.0917V23.0706H55.2637V7.73745H59.6255V10.6214C60.166 9.68745 60.8708 8.94508 61.7295 8.39772Z" fill="white"/>
<path d="M89.4857 9.31798C90.4881 10.4811 90.991 12.0993 90.991 14.169V23.0706H86.6531V14.7164C86.6531 13.7448 86.4102 12.9888 85.9244 12.4482C85.4386 11.9077 84.7817 11.6375 83.947 11.6375C83.0815 11.6375 82.3938 11.9248 81.8944 12.503C81.3915 13.0811 81.1417 13.8919 81.1417 14.9353V23.0672H76.7765V14.7164C76.7765 13.7448 76.537 12.9888 76.0615 12.4482C75.5859 11.9077 74.9291 11.6375 74.0978 11.6375C73.2288 11.6375 72.5412 11.9214 72.0315 12.4893C71.5217 13.0572 71.2652 13.8714 71.2652 14.9353V23.0672H66.9033V7.73745H71.2652V10.3477C71.6381 9.48561 72.2128 8.80824 72.986 8.31561C73.7591 7.81956 74.6657 7.57324 75.7023 7.57324C76.7902 7.57324 77.7515 7.84351 78.5862 8.38403C79.4209 8.92456 80.047 9.69772 80.4746 10.7069C80.9673 9.75587 81.6446 8.99298 82.5033 8.42508C83.362 7.85719 84.3096 7.57324 85.3496 7.57324C87.1046 7.57324 88.4833 8.15482 89.4857 9.31798Z" fill="white"/>
<path d="M105.868 9.32678C106.829 10.5002 107.308 12.1115 107.308 14.1642V23.0657H102.947V14.7115C102.947 13.6852 102.697 12.8847 102.194 12.3065C101.691 11.7284 101.024 11.441 100.193 11.441C99.3065 11.441 98.6052 11.742 98.0886 12.3476C97.5686 12.9531 97.312 13.8118 97.312 14.9305V23.0623H92.9502V7.73257H97.312V10.5344C97.7191 9.61757 98.3281 8.89573 99.1355 8.36205C99.9428 7.83178 100.89 7.56494 101.982 7.56494C103.61 7.56836 104.907 8.15336 105.868 9.32678Z" fill="white"/>
<path d="M23.3876 20.5254H1.99206L0 25.9992H21.3956L23.3876 20.5254Z" fill="white"/>
<path d="M26.46 6.15542C24.7588 6.15542 23.3809 4.77743 23.3809 3.07624C23.3838 1.37799 24.7618 0 26.46 0C28.1612 0 29.5392 1.37799 29.5392 3.07918C29.5392 4.77743 28.1612 6.15542 26.46 6.15542Z" fill="white"/>
<path d="M19.5093 0H9.46374L7.47168 5.47377H17.5172L19.5093 0Z" fill="white"/>
<path d="M17.0181 6.84375H6.97253L4.98047 12.3175H15.026L17.0181 6.84375Z" fill="white"/>
<path d="M25.8798 13.6821H4.48425L2.49219 19.1559H23.8878L25.8798 13.6821Z" fill="white"/>
</svg>
