<svg width="23" height="19" viewBox="0 0 23 19" fill="none" xmlns="http://www.w3.org/2000/svg">
<path d="M17.0915 15H1.45579L0 19.0002H15.6357L17.0915 15Z" fill="#1D1D1D"/>
<path d="M20.3372 4.49834C19.0939 4.49834 18.0869 3.49131 18.0869 2.24809C18.0891 1.00703 19.0961 0 20.3372 0C21.5804 0 22.5874 1.00703 22.5874 2.25024C22.5874 3.49131 21.5804 4.49834 20.3372 4.49834Z" fill="#1D1D1D"/>
<path d="M14.2569 0H6.91575L5.45996 4.00019H12.8012L14.2569 0Z" fill="#1D1D1D"/>
<path d="M12.4366 5.00195H5.09543L3.63965 9.00214H10.9808L12.4366 5.00195Z" fill="#1D1D1D"/>
<path d="M18.9128 9.99805H3.27708L1.82129 13.9982H17.457L18.9128 9.99805Z" fill="#1D1D1D"/>
</svg>
