<svg width="428" height="121" viewBox="0 0 428 121" fill="none" xmlns="http://www.w3.org/2000/svg">
<path d="M20.5169 13.6963L20.5169 1.38433L18.1169 1.38433L18.1169 5.15233L4.10089 5.15233L4.10089 1.38433L1.70089 1.38433L1.70089 13.6963L20.5169 13.6963ZM4.10089 7.16833L18.1169 7.16833L18.1169 11.6803L4.10089 11.6803L4.10089 7.16833ZM22.0049 22.1683L22.0049 20.1523L0.212891 20.1523L0.212891 22.1683L22.0049 22.1683Z" fill="#1D1D1D"/>
<path d="M40.7009 22.8163L40.7009 0.928329L38.3009 0.928329L38.3009 9.71233L34.8449 9.71233L34.8449 11.7283L38.3009 11.7283L38.3009 22.8163L40.7009 22.8163ZM45.4289 22.8163L45.4289 0.928329L43.0289 0.928329L43.0289 22.8163L45.4289 22.8163ZM35.9009 20.5363L35.9009 18.4963L27.3809 19.5043L27.3809 12.3283L33.2609 12.3283L34.3169 1.93633L24.9809 1.93633L24.9809 3.95233L31.7009 3.95233L31.0529 10.3123L24.9809 10.3123L24.9809 21.8083L35.9009 20.5363Z" fill="#1D1D1D"/>
<path d="M62.3249 8.58433L62.3249 17.1283L64.7249 17.1283L64.7249 0.928329L62.3249 0.928329L62.3249 6.56833L58.7729 6.56833L58.7729 1.43233L48.9809 1.43233L48.9809 13.2403L58.7729 13.2403L58.7729 8.58433L62.3249 8.58433ZM67.0289 0.928329L67.0289 17.1283L69.4289 17.1283L69.4289 0.928329L67.0289 0.928329ZM51.3809 11.2243L51.3809 3.44833L56.3729 3.44833L56.3729 11.2243L51.3809 11.2243ZM52.5329 15.4963L50.1329 15.4963L50.1329 22.8163L69.7889 22.8163L69.7889 20.8003L52.5329 20.8003L52.5329 15.4963Z" fill="#1D1D1D"/>
<path d="M88.7249 9.61633C90.9569 9.61633 92.7569 7.86433 92.7569 5.36833C92.7569 2.87233 90.9569 1.12033 88.7249 1.12033L77.4929 1.12033C75.2369 1.12033 73.4609 2.87233 73.4609 5.36833C73.4609 7.86433 75.2369 9.61633 77.4929 9.61633L88.7249 9.61633ZM77.8289 7.60033C76.7009 7.60033 75.8609 6.76033 75.8609 5.34433C75.8609 3.95233 76.7009 3.13633 77.8289 3.13633L88.3889 3.13633C89.4929 3.13633 90.3569 3.95233 90.3569 5.34433C90.3569 6.76033 89.4929 7.60033 88.3889 7.60033L77.8289 7.60033ZM94.0049 14.1523L94.0049 12.1363L72.2129 12.1363L72.2129 14.1523L94.0049 14.1523ZM92.8769 22.8163L92.8769 20.8003L76.1009 20.8003V15.8083L73.7009 15.8083L73.7009 22.8163L92.8769 22.8163Z" fill="#1D1D1D"/>
<path d="M124.408 4.55233V1.12033L104.224 1.12033V4.55233L124.408 4.55233ZM124.648 13.7923L124.648 10.3843L121.096 10.3843L121.576 5.08033L117.352 5.08033L116.92 10.3843L111.616 10.3843L111.208 5.08033L106.984 5.08033L107.464 10.3843L103.984 10.3843L103.984 13.7923L124.648 13.7923ZM125.32 22.5523L125.32 18.8323L116.536 18.8323V14.5843L111.976 14.5843V18.8323L103.312 18.8323L103.312 22.5523L125.32 22.5523Z" fill="#1D1D1D"/>
<path d="M148.312 4.67233V1.12033L128.296 1.12033V4.67233L148.312 4.67233ZM148.552 14.9683V11.3443L132.928 11.3443V9.47233L148.216 9.47233L148.216 6.01633L128.296 6.01633L128.296 14.9683L148.552 14.9683ZM149.32 22.5523V18.7123L127.312 18.7123L127.312 22.5523L149.32 22.5523Z" fill="#1D1D1D"/>
<path d="M152.248 0.784328V3.42433L172.36 3.42433V0.784328L152.248 0.784328ZM164.488 8.46433L172.6 8.46433V5.82433L169.192 5.82433L169.552 3.80833L165.328 3.80833L164.992 5.82433L159.52 5.82433L159.232 3.80833L154.984 3.80833L155.344 5.82433L152.008 5.82433V8.46433L160.096 8.46433L160.096 9.83233L151.312 9.83233V12.6403L173.32 12.6403V9.83233L164.488 9.83233L164.488 8.46433ZM172.312 19.3843V13.5283L152.296 13.5283V16.0963L167.848 16.0963V16.9603L152.296 16.9603V22.9603L172.672 22.9603V20.2723L156.76 20.2723V19.3843L172.312 19.3843Z" fill="#1D1D1D"/>
<path d="M196.912 22.9603L196.912 0.736328L192.256 0.736328L192.256 22.9603L196.912 22.9603ZM190.936 20.9443V17.0563L180.448 17.8963V13.1443L189.136 13.1443L189.136 1.50433L175.888 1.50433V5.29633L184.624 5.29633L184.624 9.44833L175.888 9.44833V22.1923L190.936 20.9443Z" fill="#1D1D1D"/>
<path d="M214.552 13.6963C218.104 13.6963 220.6 10.8883 220.6 7.36033C220.6 3.83233 218.104 1.00033 214.552 1.00033L206.032 1.00033C202.504 1.00033 200.008 3.83233 200.008 7.36033C200.008 10.8883 202.504 13.6963 206.032 13.6963L214.552 13.6963ZM207.28 10.0243C205.744 10.0243 204.664 8.89633 204.664 7.36033C204.664 5.84833 205.744 4.74433 207.28 4.74433L213.352 4.74433C214.888 4.74433 215.968 5.84833 215.968 7.36033C215.968 8.89633 214.888 10.0243 213.352 10.0243L207.28 10.0243ZM221.32 22.5523V18.6403L212.632 18.6403V14.4163L207.976 14.4163V18.6403L199.312 18.6403V22.5523L221.32 22.5523Z" fill="#1D1D1D"/>
<path d="M247.5 12.0643V22.9603L252.06 22.9603L252.06 0.736328L247.5 0.736328V8.15233L242.796 8.15233L242.796 12.0643L247.5 12.0643ZM230.724 22.1683C233.724 20.6563 236.46 18.3763 237.948 15.1363C239.436 18.3763 242.148 20.6563 245.172 22.1683V17.0563C242.604 15.3763 240.252 12.7603 240.204 5.96833V1.24033L235.692 1.24033V5.96833C235.644 12.7603 233.292 15.3763 230.724 17.0563V22.1683Z" fill="#1D1D1D"/>
<path d="M276.06 22.9603L276.06 0.736328L271.404 0.736328L271.404 22.9603L276.06 22.9603ZM263.988 21.2563V22.1923L268.355 22.1923L268.355 1.48033L263.988 1.48033V6.66433L259.548 6.66433V1.48033L255.084 1.48033L255.084 22.1923L263.988 21.2563ZM259.548 10.5283L263.988 10.5283L263.988 17.3443L259.548 17.7283L259.548 10.5283Z" fill="#1D1D1D"/>
<path d="M279.156 13.7443C284.124 13.6243 287.7 11.3443 289.5 8.56033C291.324 11.3443 294.9 13.6243 299.868 13.7443V9.88033C294.924 9.49633 291.828 5.92033 291.828 3.08833V0.880328L287.196 0.880328V3.08833C287.196 5.92033 284.1 9.49633 279.156 9.88033V13.7443ZM300.516 22.5523V18.5443L278.508 18.5443V22.5523L300.516 22.5523Z" fill="#1D1D1D"/>
<path d="M323.028 9.47233V7.45633L306.492 7.45633V6.25633L322.908 6.25633V1.24033L304.092 1.24033V3.25633L320.508 3.25633V4.33633L304.092 4.33633V9.47233L323.028 9.47233ZM324.396 12.8803V10.8643L302.604 10.8643V12.8803L324.396 12.8803ZM323.268 22.8163V20.8003L306.492 20.8003V19.4563L322.908 19.4563L322.908 14.2723L304.092 14.2723V16.2883L320.508 16.2883L320.508 17.5363L304.092 17.5363V22.8163L323.268 22.8163Z" fill="#1D1D1D"/>
<path d="M354.607 22.8163L354.607 0.928329L352.207 0.928329L352.207 22.8163L354.607 22.8163ZM333.991 21.7363C337.015 20.2243 340.495 16.8163 341.527 13.0723C342.535 16.8163 346.015 20.2243 349.039 21.7363V19.1443C346.447 17.6083 342.727 13.9123 342.727 8.22433V1.55233L340.327 1.55233V8.22433C340.327 13.9123 336.583 17.6083 333.991 19.1443V21.7363Z" fill="#1D1D1D"/>
<path d="M377.911 13.8883V7.96033L380.983 7.96033V5.94433L377.911 5.94433V0.928329L375.511 0.928329V13.8883L377.911 13.8883ZM358.183 12.9523C361.303 12.4243 364.351 10.8643 365.191 8.00833C366.007 10.8643 369.055 12.4243 372.199 12.9523V10.7443C369.295 10.2883 366.391 8.24833 366.391 4.40833V3.59233L371.959 3.59233V1.57633L358.423 1.57633V3.59233L363.991 3.59233V4.40833C363.991 8.24833 361.087 10.2883 358.183 10.7443V12.9523ZM377.911 23.0563L377.911 14.9923L359.479 14.9923V17.0083L375.511 17.0083L375.511 23.0563L377.911 23.0563Z" fill="#1D1D1D"/>
<path d="M396.535 13.7923C400.063 13.7923 402.559 11.0803 402.559 7.60033C402.559 4.09633 400.063 1.38433 396.535 1.38433L388.855 1.38433C385.327 1.38433 382.831 4.09633 382.831 7.60033C382.831 11.0803 385.327 13.7923 388.855 13.7923L396.535 13.7923ZM389.119 11.7763C386.887 11.7763 385.231 10.0483 385.231 7.60033C385.231 5.15233 386.887 3.40033 389.119 3.40033L396.271 3.40033C398.527 3.40033 400.159 5.15233 400.159 7.60033C400.159 10.0483 398.527 11.7763 396.271 11.7763L389.119 11.7763ZM403.591 22.1683V20.1283L381.799 20.1283V22.1683L403.591 22.1683Z" fill="#1D1D1D"/>
<path d="M426.343 14.0083V11.9923L409.687 11.9923V8.70433L426.103 8.70433V1.50433L407.287 1.50433V3.52033L423.703 3.52033V6.68833L407.287 6.68833V14.0083L426.343 14.0083ZM427.591 22.1683V20.1523L417.895 20.1523L417.895 15.3043L415.495 15.3043L415.495 20.1523L405.799 20.1523V22.1683L427.591 22.1683Z" fill="#1D1D1D"/>
<path d="M86.6947 53.2723C89.6387 53.2723 92.0707 50.9043 92.0707 47.9603C92.0707 44.9843 89.6387 42.5523 86.6947 42.5523L70.1187 42.5523C67.1427 42.5523 64.7427 44.9843 64.7427 47.9603C64.7427 50.9043 67.1427 53.2723 70.1187 53.2723L86.6947 53.2723ZM71.8147 49.0803C71.1427 49.0803 70.6307 48.6323 70.6307 47.9603C70.6307 47.3203 71.1427 46.8403 71.8147 46.8403L85.0947 46.8403C85.7667 46.8403 86.3107 47.3203 86.3107 47.9603C86.3107 48.6323 85.7667 49.0803 85.0947 49.0803L71.8147 49.0803ZM93.0947 59.4483V54.9683L63.7507 54.9683L63.7507 59.4483L93.0947 59.4483ZM85.8627 71.4163V72.2803L91.7507 72.2803L91.7507 61.4003L65.0627 61.4003L65.0627 72.2803L85.8627 71.4163ZM70.9507 65.3363L85.8627 65.3363V67.2883L70.9507 67.8003V65.3363Z" fill="#1D1D1D"/>
<path d="M104.871 59.1283C109.511 59.1283 113.319 56.7603 113.319 52.0883V49.7203C113.319 45.0803 109.511 42.6483 104.871 42.6483C100.231 42.6483 96.4227 45.0803 96.4227 49.7203V52.0883C96.4227 56.7603 100.231 59.1283 104.871 59.1283ZM123.559 60.0563L123.559 53.2723L127.079 53.2723V48.1843L123.559 48.1843L123.559 42.6483L117.479 42.6483L117.479 60.0563L123.559 60.0563ZM104.935 54.8723C103.271 54.8723 102.055 53.9763 102.055 52.4403V49.3363C102.055 47.8003 103.271 46.9043 104.935 46.9043C106.567 46.9043 107.815 47.8003 107.815 49.3363V52.4403C107.815 53.9763 106.567 54.8723 104.935 54.8723ZM123.559 72.6003L123.559 60.9843L97.5107 60.9843L97.5107 65.7843L117.255 65.7843L117.255 72.6003L123.559 72.6003Z" fill="#1D1D1D"/>
<path d="M156.487 72.2803L156.487 42.6483L150.279 42.6483L150.279 72.2803L156.487 72.2803ZM128.039 71.2243C132.135 69.1763 135.879 66.1363 137.959 61.6883C140.007 66.1363 143.783 69.1763 147.879 71.2243V64.4083C144.423 62.1683 140.999 58.6803 140.999 49.6243V43.3203L134.919 43.3203V49.6243C134.919 58.6803 131.463 62.1683 128.039 64.4083V71.2243Z" fill="#1D1D1D"/>
<path d="M187.559 59.8323L187.559 53.4323L191.079 53.4323V48.3763L187.559 48.3763V42.6483L181.479 42.6483L181.479 59.8323L187.559 59.8323ZM160.103 59.4483C164.295 59.2563 167.783 57.8163 169.607 54.6803C171.495 57.5923 174.951 58.9363 179.079 59.1283L179.079 54.0723C175.431 53.7523 172.487 52.2163 172.359 48.2483V48.0883L178.759 48.0883V43.1923L160.423 43.1923V48.0883L166.791 48.0883V48.2483C166.631 52.2483 163.783 54.0723 160.103 54.3923L160.103 59.4483ZM161.447 66.4883C161.447 69.9123 164.199 72.4403 167.655 72.4403L181.991 72.4403C185.511 72.4403 188.263 69.9123 188.263 66.4883C188.263 63.0323 185.511 60.5363 181.991 60.5363L167.655 60.5363C164.199 60.5363 161.447 63.0323 161.447 66.4883ZM169.255 67.8963C168.231 67.8963 167.527 67.4163 167.527 66.4883C167.527 65.5603 168.231 65.0483 169.255 65.0483L180.391 65.0483C181.511 65.0483 182.215 65.5603 182.215 66.4883C182.215 67.4163 181.511 67.8963 180.391 67.8963L169.255 67.8963Z" fill="#1D1D1D"/>
<path d="M220.487 72.2803L220.487 42.6483L214.311 42.6483L214.311 72.2803L220.487 72.2803ZM201.959 61.5283C206.919 61.5283 210.983 59.0003 210.983 53.7523V50.6163C210.983 45.3683 206.919 42.6803 201.959 42.6803C197.031 42.6803 192.999 45.3683 192.999 50.6163V53.7523C192.999 59.0003 197.031 61.5283 201.959 61.5283ZM201.959 56.7923C200.199 56.7923 198.791 55.7363 198.791 54.0083V50.2963C198.791 48.5683 200.199 47.4483 201.959 47.4483C203.783 47.4483 205.223 48.5683 205.223 50.2963V54.0083C205.223 55.7363 203.783 56.7923 201.959 56.7923ZM213.287 70.2963V65.0803L191.847 66.3923V71.6083L213.287 70.2963Z" fill="#1D1D1D"/>
<path d="M255.264 42.4883V44.1843L240.704 44.1843V42.4883L234.656 42.4883V52.7283L261.344 52.7283L261.344 42.4883L255.264 42.4883ZM240.704 49.1763V47.7363L255.264 47.7363V49.1763L240.704 49.1763ZM262.688 53.9123L233.344 53.9123V58.1363L245.056 58.1363L245.056 59.9923L234.656 59.9923V63.2243L255.296 63.2243V64.5043L234.656 64.5043V72.2803L261.824 72.2803V68.8883L240.736 68.8883V67.5443L261.344 67.5443V59.9923L250.912 59.9923L250.912 58.1363L262.688 58.1363V53.9123Z" fill="#1D1D1D"/>
<path d="M287.328 47.2243L286.848 53.6883L292.768 53.6883L293.504 42.7123L266.56 42.7123V47.2243L287.328 47.2243ZM294.688 59.3843V54.8083L281.12 54.8083L281.12 49.5603L275.04 49.5603L275.04 54.8083L265.344 54.8083V59.3843L294.688 59.3843ZM266.176 66.7443C266.176 69.8483 268.513 72.4083 271.585 72.4083L288.417 72.4083C291.457 72.4083 293.824 69.8483 293.824 66.7443C293.824 63.6083 291.457 61.1123 288.417 61.1123L271.585 61.1123C268.513 61.1123 266.176 63.6083 266.176 66.7443ZM273.089 67.8323C272.384 67.8323 271.872 67.3203 271.872 66.6163C271.872 65.9443 272.384 65.4323 273.089 65.4323L286.848 65.4323C287.552 65.4323 288.064 65.9443 288.064 66.6163C288.064 67.3203 287.552 67.8323 286.848 67.8323L273.089 67.8323Z" fill="#1D1D1D"/>
<path d="M320 53.5603V60.2483L326.112 60.2483L326.112 42.6483L320 42.6483V49.1123L314.88 49.1123L314.88 53.5603L320 53.5603ZM297.697 59.8643C301.824 59.6723 305.248 58.2323 307.136 55.1923C308.96 58.2323 312.416 59.6723 316.576 59.8643V55.0643C312.864 54.7443 309.953 52.5683 309.921 48.1203V47.8323L316.257 47.8323V43.1923L298.016 43.1923V47.8323L304.352 47.8323V48.1203C304.352 52.5683 301.44 54.7443 297.697 55.0643V59.8643ZM299.201 66.6803C299.201 70.0083 301.952 72.4403 305.408 72.4403L320.257 72.4403C323.776 72.4403 326.529 70.0083 326.529 66.6803C326.529 63.2883 323.776 60.9523 320.257 60.9523L305.408 60.9523C301.952 60.9523 299.201 63.2883 299.201 66.6803ZM307.008 68.0563C305.984 68.0563 305.28 67.5123 305.28 66.6803C305.28 65.7843 305.984 65.3043 307.008 65.3043L318.624 65.3043C319.776 65.3043 320.448 65.7843 320.448 66.6803C320.448 67.5123 319.776 68.0563 318.624 68.0563L307.008 68.0563Z" fill="#1D1D1D"/>
<path d="M352.288 52.5363C355.232 52.5363 357.664 50.3603 357.664 47.5763C357.664 44.7603 355.232 42.5523 352.288 42.5523L335.712 42.5523C332.736 42.5523 330.336 44.7603 330.336 47.5763C330.336 50.3603 332.736 52.5363 335.712 52.5363L352.288 52.5363ZM337.408 48.6323C336.736 48.6323 336.224 48.1843 336.224 47.6083C336.224 47.0323 336.736 46.5843 337.408 46.5843L350.688 46.5843C351.36 46.5843 351.904 47.0323 351.904 47.6083C351.904 48.1843 351.36 48.6323 350.688 48.6323L337.408 48.6323ZM358.688 58.2323V53.9443L329.344 53.9443V58.2323L358.688 58.2323ZM357.824 72.2803V68.7603L336.736 68.7603V67.4163L357.344 67.4163V59.8643L330.656 59.8643V63.0963L351.296 63.0963V64.3443L330.656 64.3443V72.2803L357.824 72.2803Z" fill="#1D1D1D"/>
<path d="M93.5727 98.7443L93.5727 94.0723H88.9007V90.2963L83.5247 90.2963V94.0723L78.8527 94.0723L78.8527 98.7443L93.5727 98.7443ZM100.357 120.28L100.357 107H102.533L102.533 120.28L107.653 120.28L107.653 90.6483L102.533 90.6483L102.533 101.784H100.357L100.357 90.6483L95.3647 90.6483L95.3647 120.28L100.357 120.28ZM79.2367 113.432C79.2367 117.144 82.4687 119.736 86.2127 119.736C89.9567 119.736 93.2207 117.144 93.2207 113.432L93.2207 106.104C93.2207 102.392 89.9567 99.7683 86.2127 99.7683C82.4687 99.7683 79.2367 102.392 79.2367 106.104L79.2367 113.432ZM86.2447 115.128C85.0927 115.128 84.1007 114.296 84.1007 113.144L84.1007 106.36C84.1007 105.176 85.0927 104.376 86.2447 104.376C87.4287 104.376 88.3887 105.176 88.3887 106.36L88.3887 113.144C88.3887 114.296 87.4287 115.128 86.2447 115.128Z" fill="#1D1D1D"/>
<path d="M126.565 103.576L133.125 103.576V105.88L139.237 105.88L139.237 90.6483L133.125 90.6483L133.125 92.9523L128.517 92.9523L128.517 91.1603L111.237 91.1603V95.7683L122.917 95.7683C122.917 99.8963 119.013 101.208 111.077 101.24L111.077 105.848C117.509 105.816 123.557 105.112 126.565 101.144V103.576ZM127.653 99.2563C127.909 98.6483 128.101 97.9763 128.261 97.2403L133.125 97.2403V99.2563L127.653 99.2563ZM118.949 115.032L139.237 115.032L139.237 106.776L112.613 106.776V110.392L132.901 110.392V111.832L112.613 111.832L112.613 120.28L139.717 120.28V116.568L118.949 116.568V115.032Z" fill="#1D1D1D"/>
<path d="M160.773 98.7443V93.7843H154.853L154.853 90.2963L148.773 90.2963L148.773 93.7843L142.853 93.7843V98.7443L160.773 98.7443ZM170.277 120.28L170.277 107.16H173.829V101.688H170.277L170.277 90.6483L164.197 90.6483L164.197 120.28L170.277 120.28ZM151.781 119.736C156.645 119.736 160.389 116.856 160.389 112.216L160.389 107.544C160.389 102.904 156.645 100.056 151.781 100.056C146.981 100.056 143.237 102.904 143.237 107.544L143.237 112.216C143.237 116.856 146.981 119.736 151.781 119.736ZM151.845 115.16C150.213 115.16 148.837 114.104 148.837 112.504L148.837 107.384C148.837 105.784 150.213 104.696 151.845 104.696C153.445 104.696 154.853 105.784 154.853 107.384L154.853 112.504C154.853 114.104 153.445 115.16 151.845 115.16Z" fill="#1D1D1D"/>
<path d="M201.285 113.144L202.661 91.1603L175.653 91.1603L175.653 96.2483L196.357 96.2483L195.301 113.144H201.285ZM203.845 119.736V114.52L189.893 114.52L189.893 102.552L183.909 102.552L183.909 114.52L174.501 114.52V119.736L203.845 119.736Z" fill="#1D1D1D"/>
<path d="M234.277 120.28L234.277 107.128L237.829 107.128V101.656L234.277 101.656L234.277 90.6483H228.197L228.197 120.28H234.277ZM206.789 119.224C210.629 118.008 214.341 115.224 216.389 110.488C218.469 115.224 222.181 118.008 226.021 119.224V112.952C222.981 111.608 219.365 108.12 219.301 99.0643V97.0163L225.573 97.0163L225.573 91.7043L207.237 91.7043L207.237 97.0163L213.541 97.0163V99.0643C213.445 108.12 209.829 111.608 206.789 112.952V119.224Z" fill="#1D1D1D"/>
<path d="M267.134 96.5043V92.4723L260.926 92.4723V89.9763H254.59L254.59 92.4723L248.414 92.4723V96.5043L267.134 96.5043ZM275.902 107.8V101.272L279.422 101.272V96.1843L275.902 96.1843V90.6483H269.822V107.8H275.902ZM248.83 102.36C248.83 105.112 250.846 107.256 253.31 107.256L262.206 107.256C264.67 107.256 266.718 105.112 266.718 102.36C266.718 99.6083 264.67 97.4323 262.206 97.4323L253.31 97.4323C250.846 97.4323 248.83 99.6083 248.83 102.36ZM255.198 103.416C254.43 103.416 254.014 102.872 254.014 102.36C254.014 101.816 254.43 101.272 255.198 101.272H260.414C261.182 101.272 261.598 101.816 261.598 102.36C261.598 102.872 261.182 103.416 260.414 103.416H255.198ZM269.822 119.416V120.28H275.902L275.902 108.568H269.822V110.264L256.254 110.264V108.568L250.174 108.568V120.28L269.822 119.416ZM256.254 114.072L269.822 114.072V115.512L256.254 116.024V114.072Z" fill="#1D1D1D"/>
<path d="M308.798 120.28L308.798 90.6483L302.59 90.6483L302.59 120.28L308.798 120.28ZM300.831 117.88L300.831 112.568L287.391 113.496V91.5123L281.054 91.5123L281.054 119.256L300.831 117.88Z" fill="#1D1D1D"/>
<path d="M339.167 120.28L339.167 107.128H343.422V101.656H339.167V90.6483L333.086 90.6483L333.086 120.28L339.167 120.28ZM331.55 117.88L331.55 112.664L319.038 113.656V96.6003L330.11 96.6003V91.6723L312.958 91.6723L312.958 119.256L331.55 117.88Z" fill="#1D1D1D"/>
<path d="M349.79 119.288L349.79 113.88H344.414L344.414 119.288H349.79Z" fill="#1D1D1D"/>
</svg>
