<svg width="97" height="46" viewBox="0 0 97 46" fill="none" xmlns="http://www.w3.org/2000/svg">
<g filter="url(#filter0_d_1760_58548)">
<path d="M49 41L45 37H4V3H93V37H53L49 41Z" fill="black" fill-opacity="0.8"/>
</g>
<path d="M33.486 17.748H35.348V16.796H33.486V13.492H32.338V21.094H33.486V17.748ZM30.448 20.296L31.022 19.386C29.216 18.742 27.97 17.188 27.97 15.494V14.108H26.822V15.41C26.822 17.272 25.618 18.952 23.714 19.624L24.288 20.548C25.8 20.002 26.864 18.896 27.41 17.44C27.956 18.742 29.048 19.778 30.448 20.296ZM33.486 21.724H25.31V22.648H32.338V26.05H33.486V21.724ZM47.2889 26.022V13.464H46.1829V26.022H47.2889ZM44.7549 13.758H43.6629V17.986H41.5909V18.924H43.6629V25.378H44.7549V13.758ZM40.3029 17.02V15.886H42.5429V14.948H36.8169V15.886H39.1969V17.02C39.1969 19.33 38.2309 21.612 36.4669 22.662L37.1669 23.516C38.4129 22.732 39.3229 21.29 39.7569 19.54C40.1909 21.178 41.0449 22.48 42.2769 23.208L42.9769 22.368C41.2409 21.388 40.3029 19.204 40.3029 17.02ZM59.1738 19.61H61.2318V18.644H59.1738V13.492H58.0258V26.036H59.1738V19.61ZM56.8358 15.494H53.7418V13.632H52.5938V15.494H49.4298V16.418H56.8358V15.494ZM53.1818 17.454C51.4178 17.454 50.1438 18.672 50.1438 20.352C50.1438 22.074 51.4178 23.236 53.1818 23.236C54.9738 23.236 56.2478 22.074 56.2478 20.352C56.2478 18.672 54.9738 17.454 53.1818 17.454ZM53.1818 22.284C52.0478 22.284 51.2218 21.472 51.2218 20.352C51.2218 19.232 52.0478 18.406 53.1818 18.406C54.3438 18.406 55.1558 19.232 55.1558 20.352C55.1558 21.472 54.3438 22.284 53.1818 22.284ZM72.6827 26.036V13.478H71.5347V26.036H72.6827ZM69.0007 14.836H63.1207V15.76H67.8387C67.6007 18.742 65.9207 21.15 62.5467 22.76L63.1627 23.698C67.3487 21.64 69.0007 18.462 69.0007 14.836Z" fill="white"/>
<defs>
<filter id="filter0_d_1760_58548" x="0" y="0" width="97" height="46" filterUnits="userSpaceOnUse" color-interpolation-filters="sRGB">
<feFlood flood-opacity="0" result="BackgroundImageFix"/>
<feColorMatrix in="SourceAlpha" type="matrix" values="0 0 0 0 0 0 0 0 0 0 0 0 0 0 0 0 0 0 127 0" result="hardAlpha"/>
<feOffset dy="1"/>
<feGaussianBlur stdDeviation="2"/>
<feColorMatrix type="matrix" values="0 0 0 0 0 0 0 0 0 0 0 0 0 0 0 0 0 0 0.2 0"/>
<feBlend mode="normal" in2="BackgroundImageFix" result="effect1_dropShadow_1760_58548"/>
<feBlend mode="normal" in="SourceGraphic" in2="effect1_dropShadow_1760_58548" result="shape"/>
</filter>
</defs>
</svg>
