<svg width="320" height="58" viewBox="0 0 320 58" fill="none" xmlns="http://www.w3.org/2000/svg">
<path d="M70.9816 3.19835V0.501234H51.3786V3.19835H70.9816ZM71.219 12.7218V10.0247H67.2794L67.8727 3.8428H64.6925L64.1229 10.0247H58.2136L57.644 3.8428H54.4638L55.0571 10.0247H51.1413V12.7218H71.219ZM72.0021 21.4337V18.5934H62.8177V13.7481H59.4951V18.5934H50.3581V21.4337H72.0021Z" fill="black"/>
<path d="M94.4768 3.26996V0.501234H75.3484V3.26996H94.4768ZM94.7142 13.8914V11.0988H78.6947V8.04362H94.3819V5.3465H75.3484V13.8914H94.7142ZM95.7347 21.4337V18.5457H74.0906V21.4337H95.7347Z" fill="black"/>
<path d="M98.9385 0.214815V2.53004H118.352V0.214815H98.9385ZM110.259 7.59012H118.589V5.2749H114.839L115.243 2.95967H112.039L111.659 5.2749H105.56L105.18 2.95967H101.976L102.38 5.2749H98.7012V7.59012H107.008V9.35638H97.8231V11.7432H119.467V9.35638H110.259V7.59012ZM118.209 18.4502V12.9128H99.0809V15.1802H114.934V16.3021H99.0809V21.9588H118.565V19.6198H102.356V18.4502H118.209Z" fill="black"/>
<path d="M142.559 21.9588V0.0238678H139.189V21.9588H142.559ZM136.673 19.8107V16.8749L125.638 17.8296V11.8387H134.87V0.906996H122.315V3.79506H131.571V9.02222H122.315V21.0757L136.673 19.8107Z" fill="black"/>
<path d="M160.097 12.7695C163.586 12.7695 166.054 10.0486 166.054 6.58765C166.054 3.12675 163.586 0.381893 160.097 0.381893H152.123C148.634 0.381893 146.166 3.12675 146.166 6.58765C146.166 10.0486 148.634 12.7695 152.123 12.7695H160.097ZM152.811 9.95309C150.913 9.95309 149.536 8.56872 149.536 6.58765C149.536 4.63045 150.913 3.22222 152.811 3.22222H159.409C161.331 3.22222 162.708 4.63045 162.708 6.58765C162.708 8.56872 161.331 9.95309 159.409 9.95309H152.811ZM166.932 21.4337V18.4979H157.771V13.6288H154.401V18.4979H145.288V21.4337H166.932Z" fill="black"/>
<path d="M193.722 10.693V21.9588H197.044V0.0238678H193.722V7.7572H188.548V10.693H193.722ZM176.349 21.028C179.292 19.5243 182.377 16.684 183.588 13.1992C184.774 16.684 187.86 19.5243 190.826 21.028V17.2329C188.311 15.6099 185.273 12.4593 185.249 6.27737V0.596707H181.95V6.27737C181.927 12.4593 178.865 15.6099 176.349 17.2329V21.028Z" fill="black"/>
<path d="M220.777 21.9588V0.0238678H217.407V21.9588H220.777ZM210.026 20.0255V21.0757H213.277V0.859258H210.026V6.61152H203.903V0.859258H200.628V21.0757L210.026 20.0255ZM203.903 9.52346H210.026V17.0897L203.903 17.7342V9.52346Z" fill="black"/>
<path d="M224.313 12.6502C229.107 12.507 232.928 10.0247 234.423 7.08889C235.918 10.0247 239.739 12.507 244.533 12.6502V9.73827C239.763 9.40411 236.108 5.8716 236.108 2.79259V0.262551H232.738V2.79259C232.738 5.8716 229.107 9.40411 224.313 9.73827V12.6502ZM245.245 21.4337V18.4502H223.601V21.4337H245.245Z" fill="black"/>
<path d="M267.838 7.97202V5.32263H251.866V0H248.591V7.97202H267.838ZM268.977 13.056V10.2872H247.333V13.056H268.977ZM268.076 21.9588V19.214H251.914V14.6313H248.591V21.9588H268.076Z" fill="black"/>
<path d="M19.4607 57.7613V47.4263H22.4035V44.3951H19.4607V35.8263H16.1381V57.7613H19.4607ZM6.12299 57.2362C9.58794 57.2362 12.246 54.921 12.246 51.5078V41.8173C12.246 38.4041 9.58794 36.0889 6.12299 36.0889C2.65804 36.0889 0 38.4041 0 41.8173V51.5078C0 54.921 2.65804 57.2362 6.12299 57.2362ZM6.12299 54.4197C4.39052 54.4197 3.18016 53.2979 3.18016 51.6988V41.6263C3.18016 40.0749 4.39052 38.9053 6.12299 38.9053C7.8792 38.9053 9.08955 40.0749 9.08955 41.6263V51.6988C9.08955 53.2979 7.8792 54.4197 6.12299 54.4197Z" fill="black"/>
<path d="M44.0713 57.7613V35.8263H40.7013V57.7613H44.0713ZM37.2126 39.5498V36.7095H23.8274V39.5498H37.2126ZM38.1144 55.7802V52.8444L27.15 53.7037V44.9679H37.0939V42.1992H23.8274V56.8782L38.1144 55.7802Z" fill="black"/>
<path d="M47.5125 48.4527C52.3065 48.3095 56.1274 45.8272 57.6226 42.8914C59.1177 45.8272 62.9386 48.3095 67.7326 48.4527V45.5407C62.9624 45.2066 59.3076 41.6741 59.3076 38.5951V36.065H55.9375V38.5951C55.9375 41.6741 52.3065 45.2066 47.5125 45.5407V48.4527ZM68.4446 57.2362V54.2527H46.8005V57.2362H68.4446Z" fill="black"/>
<path d="M90.9193 39.0724V36.3037H71.7909V39.0724H90.9193ZM91.1566 49.6938V46.9012H75.1372V43.8461H90.8243V41.149H71.7909V49.6938H91.1566ZM92.1771 57.2362V54.3481H70.533V57.2362H92.1771Z" fill="black"/>
<path d="M114.011 57.7613V47.4263H117.334V44.3951H114.011V35.8263H110.688V57.7613H114.011ZM94.8114 57.1169C102.714 55.6609 107.295 49.8848 107.295 39.1679V36.7095H94.9301V39.6453H104.067C104.091 47.9514 100.911 52.4864 94.8114 54.014V57.1169Z" fill="black"/>
<path d="M146.045 46.949V35.8263H142.675V46.949H146.045ZM125.445 46.6387C128.673 45.9465 131.426 44.2757 132.494 41.9605C133.586 44.2757 136.315 45.9465 139.566 46.6387V43.7267C136.434 42.8914 134.179 40.7193 134.179 37.7119V36.0411H130.833V37.7119C130.833 40.7193 128.578 42.8914 125.445 43.7267V46.6387ZM146.378 57.7613V55.3745H130.334V53.8469H146.045V47.856H126.964V50.1712H142.675V51.6033H126.964V57.7613H146.378Z" fill="black"/>
<path d="M169.873 49.3835V35.8263H166.55V37.879H161.946V40.409H166.55V42.0798H161.946V44.586H166.55V49.3835H169.873ZM163.679 48.5004V45.8988H152.857V43.4403H160.142L160.973 36.2798H149.605V38.8337H157.461L157.2 41.0535H149.605V48.5004H163.679ZM169.873 58V50.2667H150.46V53.0115H166.479V58H169.873Z" fill="black"/>
<path d="M187.387 48.763C190.876 48.763 193.344 45.9942 193.344 42.5095C193.344 38.977 190.876 36.1844 187.387 36.1844H179.413C175.925 36.1844 173.456 38.977 173.456 42.5095C173.456 45.9942 175.925 48.763 179.413 48.763H187.387ZM180.101 45.9226C178.203 45.9226 176.826 44.4905 176.826 42.5095C176.826 40.5045 178.203 39.0486 180.101 39.0486H186.699C188.621 39.0486 189.998 40.5045 189.998 42.5095C189.998 44.4905 188.621 45.9226 186.699 45.9226H180.101ZM194.222 57.2362V54.2527H172.578V57.2362H194.222Z" fill="black"/>
<path d="M216.934 49.0494V46.3284H200.891V43.8938H216.697V36.3037H197.569V38.977H213.374V41.2922H197.569V49.0494H216.934ZM217.955 57.2362V54.3243H208.818V50.0996H205.448V54.3243H196.311V57.2362H217.955Z" fill="black"/>
<path d="M244.863 45.7317V49.0971H248.185V35.8263H244.863V38.4996H241.327V41.149H244.863V43.0823H241.327V45.7317H244.863ZM240.686 38.8576V36.2798H227.728V38.8576H240.686ZM240.923 48.0708V45.493H238.408L239.096 39.5259H236.034L235.417 45.493H232.902L232.308 39.5259H229.247L229.911 45.493H227.491V48.0708H240.923ZM228.582 53.823C228.582 56.186 230.552 57.8807 233.115 57.8807H243.961C246.572 57.8807 248.541 56.186 248.541 53.823C248.541 51.4362 246.572 49.7654 243.961 49.7654H233.115C230.552 49.7654 228.582 51.4362 228.582 53.823ZM233.803 55.3267C232.712 55.3267 231.905 54.73 231.905 53.7992C231.905 52.8922 232.712 52.2955 233.803 52.2955H243.273C244.412 52.2955 245.219 52.8922 245.219 53.7992C245.219 54.73 244.412 55.3267 243.273 55.3267H233.803Z" fill="black"/>
<path d="M270.636 57.7613V47.4263H273.959V44.3951H270.636V35.8263H267.314V57.7613H270.636ZM251.437 57.1169C259.34 55.6609 263.92 49.8848 263.92 39.1679V36.7095H251.555V39.6453H260.692C260.716 47.9514 257.536 52.4864 251.437 54.014V57.1169Z" fill="black"/>
<path d="M294.844 48.5959V43.2016H297.691V40.3136H294.844V35.8263H291.521V48.5959H294.844ZM287.415 47.7366V36.1605H284.188V39.144H278.539V36.1605H275.288V47.7366H287.415ZM278.539 41.7457H284.188V45.135H278.539V41.7457ZM295.318 57.7613V55.0642H279.631V52.1523H294.962V49.479H276.285V57.7613H295.318Z" fill="black"/>
<path d="M317.817 52.2716L318.861 36.3037H299.495V39.1918H315.396L314.518 52.2716H317.817ZM320 57.2362V54.3004H309.32V44.9679H306.045V54.3004H298.356V57.2362H320Z" fill="black"/>
</svg>
