<svg width="401" height="389" viewBox="0 0 401 389" fill="none" xmlns="http://www.w3.org/2000/svg">
<path fill-rule="evenodd" clip-rule="evenodd" d="M70.1348 202.5C70.1348 274.467 128.691 332.848 200.5 332.848C272.309 332.848 330.865 274.467 330.865 202.5C330.865 130.533 272.309 72.1521 200.5 72.1521C128.691 72.1521 70.1348 130.533 70.1348 202.5ZM200.5 66C125.325 66 64 127.113 64 202.5C64 277.887 125.325 339 200.5 339C275.675 339 337 277.887 337 202.5C337 127.113 275.675 66 200.5 66Z" fill="#E8E8E8"/>
<path d="M136 65C136 29.1015 165.101 0 201 0C236.899 0 266 29.1015 266 65C266 100.899 236.899 130 201 130C165.101 130 136 100.899 136 65Z" fill="#33F4A3"/>
<path d="M0 164C0 128.101 29.1015 99 65 99C100.899 99 130 128.101 130 164C130 199.899 100.899 229 65 229C29.1015 229 0 199.899 0 164Z" fill="#9F33F4"/>
<path d="M46.6996 151.511V144.016H44.4101V151.511H46.6996ZM32.7044 151.301C34.8972 150.835 36.7676 149.709 37.4931 148.149C38.2348 149.709 40.089 150.835 42.2979 151.301V149.339C40.1696 148.776 38.6379 147.313 38.6379 145.287V144.161H36.3645V145.287C36.3645 147.313 34.8327 148.776 32.7044 149.339V151.301ZM46.9254 158.796V157.188H36.0259V156.158H46.6996V152.122H33.7363V153.682H44.4101V154.647H33.7363V158.796H46.9254Z" fill="#1D1D1D"/>
<path d="M62.8876 153.151V144.016H60.6304V145.399H57.5024V147.104H60.6304V148.23H57.5024V149.918H60.6304V153.151H62.8876ZM58.6794 152.556V150.803H51.3271V149.146H56.277L56.8413 144.322H49.1182V146.042H54.4551L54.2777 147.538H49.1182V152.556H58.6794ZM62.8876 158.957V153.746H49.6986V155.595H60.582V158.957H62.8876Z" fill="#1D1D1D"/>
<path d="M69.5628 151.704C71.9813 151.704 73.9484 150.546 73.9484 148.294V147.426C73.9484 145.174 71.9813 144 69.5628 144C67.1443 144 65.1772 145.174 65.1772 147.426V148.294C65.1772 150.546 67.1443 151.704 69.5628 151.704ZM79.0112 152.073V144.016H76.7216V152.073H79.0112ZM69.5789 149.999C68.3374 149.999 67.4184 149.436 67.4184 148.407V147.329C67.4184 146.3 68.3374 145.705 69.5789 145.705C70.7882 145.705 71.7233 146.3 71.7233 147.329V148.407C71.7233 149.436 70.7882 149.999 69.5789 149.999ZM72.5134 159.037C74.158 158.667 75.4156 157.734 75.9477 156.673C76.5281 157.783 77.947 158.651 79.8012 158.796V156.882C77.8664 156.625 76.9796 155.338 76.9796 153.939V152.797H74.8674V153.971C74.8513 155.402 73.8194 156.673 72.5134 157.091C71.3041 156.673 70.24 155.451 70.24 154.035V152.958H68.1117V154.035C68.1117 155.419 67.1443 156.657 65.3062 156.914V158.796C67.241 158.651 68.6599 157.783 69.2081 156.657C69.7079 157.718 70.9172 158.651 72.5134 159.037Z" fill="#1D1D1D"/>
<path d="M94.78 149.372V147.586H83.9288V144H81.7038V149.372H94.78ZM95.5539 152.797V150.932H80.8492V152.797H95.5539ZM94.9412 158.796V156.946H83.9611V153.859H81.7038V158.796H94.9412Z" fill="#1D1D1D"/>
<path d="M35.8501 175.12V168.461H22.8545V175.12H35.8501ZM25.0796 170.375H33.6251V173.222H25.0796V170.375ZM26.7403 183L27.7561 178.738H31.3516V183H33.5928V178.738H36.7046V176.776H22V178.738H25.4504L24.4347 183H26.7403Z" fill="#1D1D1D"/>
<path d="M52.3283 182.92V168.14H50.0388V182.92H52.3283ZM38.2686 182.292C40.2518 181.585 42.4285 179.784 43.2992 177.403C44.1698 179.784 46.3304 181.585 48.3297 182.292V179.864C46.7012 179.108 44.4117 177.049 44.3956 172.868V170.793H47.9911V168.799H38.5911V170.793H42.2028V172.868C42.1866 177.049 39.8971 179.108 38.2686 179.864V182.292Z" fill="#1D1D1D"/>
<path d="M66.2107 174.219V179.381H68.468V168.14H66.2107V169.475H62.728V171.26H66.2107V172.434H62.728V174.219H66.2107ZM54.4728 177.403C56.4559 176.937 58.3424 175.666 59.0518 174.058C59.7613 175.666 61.6477 176.937 63.647 177.403V175.425C61.7283 174.846 60.1482 173.19 60.1482 170.874V168.285H57.9715V170.874C57.9715 173.254 56.327 174.878 54.4728 175.425V177.403ZM68.7421 182.92V181.054H57.8426V178.336H55.5691V182.92H68.7421Z" fill="#1D1D1D"/>
<path d="M75.8333 173.994C79.1869 173.946 81.67 173.077 82.5568 171.71C83.4436 173.077 85.9266 173.946 89.2803 173.994V172.257C86.0878 172.241 83.8305 171.244 83.7338 170.07H89.0545V168.317H76.059V170.07H81.3797C81.283 171.244 79.0257 172.241 75.8333 172.257V173.994ZM89.9091 176.744V174.911H75.2044V176.744H89.9091ZM75.8171 180.33C75.8171 181.762 76.8813 182.968 78.4775 182.968H86.636C88.2322 182.968 89.2964 181.762 89.2964 180.33C89.2964 178.931 88.2322 177.709 86.636 177.709H78.4775C76.8813 177.709 75.8171 178.931 75.8171 180.33ZM78.9773 181.215C78.3969 181.215 77.9777 180.829 77.9777 180.298C77.9777 179.8 78.3969 179.414 78.9773 179.414H86.0878C86.6844 179.414 87.1197 179.8 87.1197 180.298C87.1197 180.829 86.6844 181.215 86.0878 181.215H78.9773Z" fill="#1D1D1D"/>
<path d="M104.743 182.92V175.956H107V173.913H104.743V168.14H102.485V182.92H104.743ZM91.6988 182.485C97.0679 181.504 100.18 177.612 100.18 170.391V168.735H91.7794V170.713H97.987C98.0031 176.31 95.8425 179.365 91.6988 180.395V182.485Z" fill="#1D1D1D"/>
<path d="M271 164C271 128.101 300.101 99 336 99C371.899 99 401 128.101 401 164C401 199.899 371.899 229 336 229C300.101 229 271 199.899 271 164Z" fill="#3397F4"/>
<path d="M317.357 150.968V144.321H304.346V150.968H317.357ZM306.574 146.232H315.129V149.074H306.574V146.232ZM308.236 158.836L309.253 154.581H312.853V158.836H315.097V154.581H318.212V152.622H303.491V154.581H306.945L305.928 158.836H308.236Z" fill="#1D1D1D"/>
<path d="M333.854 158.755V144H331.561V158.755H333.854ZM319.778 158.129C321.763 157.423 323.942 155.625 324.814 153.248C325.686 155.625 327.849 157.423 329.85 158.129V155.705C328.22 154.95 325.928 152.895 325.912 148.72V146.649H329.511V144.658H320.101V146.649H323.716V148.72C323.7 152.895 321.408 154.95 319.778 155.705V158.129Z" fill="#1D1D1D"/>
<path d="M347.752 150.069V155.223H350.012V144H347.752V145.333H344.265V147.115H347.752V148.287H344.265V150.069H347.752ZM336 153.248C337.986 152.783 339.874 151.514 340.585 149.909C341.295 151.514 343.184 152.783 345.185 153.248V151.273C343.264 150.695 341.682 149.042 341.682 146.73V144.145H339.503V146.73C339.503 149.106 337.857 150.727 336 151.273V153.248ZM350.286 158.755V156.893H339.374V154.179H337.098V158.755H350.286Z" fill="#1D1D1D"/>
<path d="M365.605 158.755V151.803H367.606V149.764H365.605V144H363.345V158.755H365.605ZM361.117 154.645L361.65 144.321H352.675V146.264H359.374L358.938 154.645H361.117ZM362.667 157.824V155.865L357.146 156.235V149.732H354.967V156.379L351.981 156.572V158.531L362.667 157.824Z" fill="#1D1D1D"/>
<path d="M304.606 169.995L304.332 173.575H306.543L306.947 168.212H293.839V169.995H304.606ZM307.721 176.144V174.33H300.603V171.536H298.343V174.33H293V176.144H307.721ZM293.613 180.094C293.613 181.603 294.679 182.888 296.277 182.888H304.428C306.026 182.888 307.108 181.603 307.108 180.094C307.108 178.585 306.026 177.316 304.428 177.316H296.277C294.679 177.316 293.613 178.585 293.613 180.094ZM296.793 181.073C296.212 181.073 295.793 180.64 295.793 180.062C295.793 179.484 296.212 179.066 296.793 179.066H303.896C304.493 179.066 304.929 179.484 304.929 180.062C304.929 180.64 304.493 181.073 303.896 181.073H296.793Z" fill="#1D1D1D"/>
<path d="M321.119 173.222V176.834H323.379V168.084H321.119V171.44H318.084V173.222H321.119ZM309.368 176.529C311.434 176.305 313.323 175.422 314.049 173.688C314.759 175.422 316.648 176.305 318.73 176.529V174.603C316.842 174.362 315.131 173.126 315.114 170.717V170.268H318.569V168.437H309.529V170.268H312.984V170.717C312.984 173.126 311.256 174.362 309.368 174.603V176.529ZM310.24 180.094C310.24 181.732 311.628 182.92 313.387 182.92H320.522C322.298 182.92 323.686 181.732 323.686 180.094C323.686 178.424 322.298 177.268 320.522 177.268H313.387C311.628 177.268 310.24 178.424 310.24 180.094ZM313.791 181.154C313.048 181.154 312.499 180.736 312.499 180.094C312.499 179.436 313.048 179.034 313.791 179.034H320.102C320.877 179.034 321.426 179.436 321.426 180.094C321.426 180.736 320.877 181.154 320.102 181.154H313.791Z" fill="#1D1D1D"/>
<path d="M335.017 170.942V169.192H331.385V167.731H329.077V169.192H325.445V170.942H335.017ZM339.037 179.002V174.073H340.974V172.098H339.037V168.084H336.777V179.002H339.037ZM325.736 174.426C325.736 176.064 326.93 177.204 328.302 177.204H332.176C333.548 177.204 334.743 176.064 334.743 174.426C334.743 172.804 333.548 171.648 332.176 171.648H328.302C326.93 171.648 325.736 172.804 325.736 174.426ZM329.013 175.486C328.222 175.486 327.786 175.004 327.786 174.426C327.786 173.832 328.222 173.366 329.013 173.366H331.482C332.273 173.366 332.709 173.832 332.709 174.426C332.709 175.004 332.273 175.486 331.482 175.486H329.013ZM339.359 182.839V180.977H328.754V178.071H326.478V182.839H339.359Z" fill="#1D1D1D"/>
<path d="M353.093 171.825C353.125 171.295 353.142 170.733 353.142 170.139V168.678H346.604V170.653H351.027C351.043 175.277 350.058 179.131 346.523 180.351V182.406C349.816 181.555 352.205 179.114 352.916 173.752H355.337V176.931H352.383V178.809H355.337V182.839H357.355V168.084H355.337V171.825H353.093ZM358.694 182.839H360.728V168.084H358.694V182.839Z" fill="#1D1D1D"/>
<path d="M366.975 176.208C369.267 176.208 371.156 175.036 371.156 172.74V171.552C371.156 169.256 369.267 168.068 366.975 168.068C364.683 168.068 362.794 169.256 362.794 171.552V172.74C362.794 175.036 364.683 176.208 366.975 176.208ZM376.16 176.706V174.779H378V172.997H376.16V171.44H378V169.657H376.16V168.084H373.9V176.706H376.16ZM366.991 174.474C365.829 174.474 364.957 173.896 364.957 172.804V171.488C364.957 170.396 365.829 169.802 366.991 169.802C368.137 169.802 369.025 170.396 369.025 171.488V172.804C369.025 173.896 368.137 174.474 366.991 174.474ZM376.16 183V177.3H363.375V179.179H373.852V183H376.16Z" fill="#1D1D1D"/>
<path d="M174.976 60.1708V58.3264H161.692V60.1708H174.976ZM175.137 66.6834V64.839H172.467L172.869 60.6115H170.714L170.328 64.839H166.323L165.937 60.6115H163.782L164.184 64.839H161.531V66.6834H175.137ZM175.668 72.6409V70.6986H169.444V67.3852H167.192V70.6986H161V72.6409H175.668Z" fill="#1D1D1D"/>
<path d="M190.898 60.2198V58.3264H177.935V60.2198H190.898ZM191.059 67.4831V65.5734H180.203V63.4842H190.834V61.6398H177.935V67.4831H191.059ZM191.751 72.6409V70.6659H177.083V72.6409H191.751Z" fill="#1D1D1D"/>
<path d="M193.922 58.1306V59.7138H207.078V58.1306H193.922ZM201.594 63.1741H207.239V61.5909H204.698L204.971 60.0076H202.8L202.543 61.5909H198.409L198.152 60.0076H195.981L196.254 61.5909H193.761V63.1741H199.39V64.3819H193.166V66.0141H207.834V64.3819H201.594V63.1741ZM206.981 70.6007V66.8139H194.019V68.3645H204.762V69.1317H194.019V73H207.223V71.4004H196.238V70.6007H206.981Z" fill="#1D1D1D"/>
<path d="M223.483 73V58H221.199V73H223.483ZM219.494 71.531V69.5234L212.015 70.1763V66.0794H218.272V58.6039H209.764V60.5789H216.036V64.1534H209.764V72.3961L219.494 71.531Z" fill="#1D1D1D"/>
<path d="M235.368 66.716C237.732 66.716 239.405 64.8553 239.405 62.4886C239.405 60.1219 237.732 58.2448 235.368 58.2448H229.964C227.6 58.2448 225.927 60.1219 225.927 62.4886C225.927 64.8553 227.6 66.716 229.964 66.716H235.368ZM230.431 64.79C229.144 64.79 228.211 63.8433 228.211 62.4886C228.211 61.1502 229.144 60.1872 230.431 60.1872H234.902C236.204 60.1872 237.137 61.1502 237.137 62.4886C237.137 63.8433 236.204 64.79 234.902 64.79H230.431ZM240 72.6409V70.6333H233.792V67.3036H231.508V70.6333H225.332V72.6409H240Z" fill="#1D1D1D"/>
<path d="M220 324C220 288.101 249.101 259 285 259C320.899 259 350 288.101 350 324C350 359.899 320.899 389 285 389C249.101 389 220 359.899 220 324Z" fill="#F46D33"/>
<path d="M266.819 313.968V307.321H253.899V313.968H266.819ZM256.111 309.232H264.607V312.074H256.111V309.232ZM257.762 321.836L258.772 317.581H262.347V321.836H264.575V317.581H267.669V315.622H253.049V317.581H256.48L255.47 321.836H257.762Z" fill="#1D1D1D"/>
<path d="M283.202 321.755V307H280.925V321.755H283.202ZM269.223 321.129C271.195 320.423 273.359 318.625 274.225 316.248C275.09 318.625 277.238 320.423 279.226 321.129V318.705C277.607 317.95 275.331 315.895 275.315 311.72V309.649H278.89V307.658H269.544V309.649H273.135V311.72C273.119 315.895 270.842 317.95 269.223 318.705V321.129Z" fill="#1D1D1D"/>
<path d="M297.003 313.069V318.223H299.248V307H297.003V308.333H293.541V310.115H297.003V311.287H293.541V313.069H297.003ZM285.334 316.248C287.305 315.783 289.181 314.514 289.886 312.909C290.591 314.514 292.467 315.783 294.455 316.248V314.273C292.547 313.695 290.976 312.042 290.976 309.73V307.145H288.812V309.73C288.812 312.106 287.177 313.727 285.334 314.273V316.248ZM299.52 321.755V319.893H288.684V317.179H286.424V321.755H299.52Z" fill="#1D1D1D"/>
<path d="M315.278 321.755V307H313.001V321.755H315.278ZM306.477 316.28C308.914 316.28 310.933 315.044 310.933 312.523V310.886C310.933 308.349 308.914 307.08 306.477 307.08C304.024 307.08 302.021 308.349 302.021 310.886V312.523C302.021 315.044 304.024 316.28 306.477 316.28ZM306.477 314.418C305.211 314.418 304.201 313.744 304.201 312.604V310.789C304.201 309.633 305.211 308.927 306.477 308.927C307.759 308.927 308.769 309.633 308.769 310.789V312.604C308.769 313.744 307.759 314.418 306.477 314.418ZM312.328 320.503V318.544L301.267 319.235V321.21L312.328 320.503Z" fill="#1D1D1D"/>
<path d="M254.461 334.536V336.206H250.71V337.924H254.461V339.786H256.706V331.084H254.461V332.738H251.287V332.625V331.389H243.08V333.219H249.123C249.123 336.013 246.991 337.651 243 337.747V339.594C246.847 339.513 250.213 338.149 251.079 334.536H254.461ZM246.719 340.22C244.972 340.22 243.593 341.392 243.593 343.062C243.593 344.732 244.972 345.92 246.719 345.92H253.804C255.567 345.92 256.946 344.732 256.946 343.062C256.946 341.392 255.567 340.22 253.804 340.22H246.719ZM247.152 344.138C246.414 344.138 245.837 343.752 245.837 343.062C245.837 342.371 246.414 342.002 247.152 342.002H253.355C254.125 342.002 254.702 342.371 254.702 343.062C254.702 343.752 254.125 344.138 253.355 344.138H247.152Z" fill="#1D1D1D"/>
<path d="M267.686 338.711V345.839H269.69V331.084H267.686V336.8H265.025V338.711H267.686ZM273.024 345.839V331.084H271.004V345.839H273.024ZM258.822 345.213C260.409 344.362 261.899 342.741 262.508 340.702C263.102 342.741 264.608 344.362 266.195 345.213V342.805C264.624 341.601 263.518 339.433 263.518 335.772V333.637H266.003V331.742H258.982V333.637H261.483V335.772C261.483 339.433 260.376 341.601 258.822 342.805V345.213Z" fill="#1D1D1D"/>
<path d="M286.585 336.27V340.011H288.83V331.084H286.585V334.504H283.283V336.27H286.585ZM274.916 339.706C276.967 339.481 278.843 338.566 279.564 336.896C280.27 338.566 282.145 339.481 284.213 339.706V337.715C282.321 337.474 280.622 336.302 280.622 333.958V333.332H284.053V331.437H275.076V333.332H278.506V333.958C278.506 336.302 276.807 337.474 274.916 337.715V339.706ZM286.537 342.452V346H288.83V340.621H275.781V342.452H286.537Z" fill="#1D1D1D"/>
<path d="M300.064 339.851C302.34 339.851 304.215 338.662 304.215 336.334V334.6C304.215 332.288 302.34 331.068 300.064 331.068C297.787 331.068 295.912 332.288 295.912 334.6V336.334C295.912 338.662 297.787 339.851 300.064 339.851ZM309.185 341.777V337.009H311.108V335.034H309.185V331.084H306.94V341.777H309.185ZM300.08 338.052C298.925 338.052 298.06 337.458 298.06 336.334V334.6C298.06 333.492 298.925 332.866 300.08 332.866C301.218 332.866 302.099 333.492 302.099 334.6V336.334C302.099 337.458 301.218 338.052 300.08 338.052ZM309.505 345.839V343.977H298.973V340.862H296.713V345.839H309.505Z" fill="#1D1D1D"/>
<path d="M323.451 336.222V339.834H325.695V331.084H323.451V334.44H320.438V336.222H323.451ZM311.781 339.529C313.833 339.305 315.709 338.422 316.43 336.688C317.135 338.422 319.011 339.305 321.079 339.529V337.603C319.203 337.362 317.504 336.126 317.488 333.717V333.268H320.919V331.437H311.942V333.268H315.372V333.717C315.372 336.126 313.657 337.362 311.781 337.603V339.529ZM312.647 343.094C312.647 344.732 314.026 345.92 315.773 345.92H322.858C324.621 345.92 326 344.732 326 343.094C326 341.424 324.621 340.268 322.858 340.268H315.773C314.026 340.268 312.647 341.424 312.647 343.094ZM316.174 344.154C315.436 344.154 314.891 343.736 314.891 343.094C314.891 342.436 315.436 342.034 316.174 342.034H322.441C323.211 342.034 323.756 342.436 323.756 343.094C323.756 343.736 323.211 344.154 322.441 344.154H316.174Z" fill="#1D1D1D"/>
<path d="M51 324C51 288.101 80.1015 259 116 259C151.899 259 181 288.101 181 324C181 359.899 151.899 389 116 389C80.1015 389 51 359.899 51 324Z" fill="#F4D533"/>
<path d="M98.4617 312.789V311.826H99.3313C100.668 311.826 101.57 311.043 101.57 309.884C101.57 309.443 101.393 309.068 101.215 308.856H102.262V307.208H98.5261V306H96.2393V307.208H92.5031V308.856H93.5337C93.3727 309.052 93.1956 309.427 93.1956 309.884C93.1956 311.043 94.0652 311.826 95.4018 311.826H96.3037V312.903L92.0521 313.083V314.747L102.842 314.274V312.593L98.4617 312.789ZM105.773 306.359H103.518V314.943H105.773V311.549H107.706V309.541H105.773V306.359ZM95.1442 309.525C95.1442 309.133 95.4985 308.774 96.0299 308.774H98.7354C99.283 308.774 99.6373 309.133 99.6373 309.525C99.6373 309.982 99.2991 310.276 98.7515 310.276H96.0299C95.4985 310.276 95.1442 309.982 95.1442 309.525ZM105.773 319.023V315.482H93.3083V316.934H103.518V317.636H93.3083V321.357H106.095V319.79H95.5629V319.023H105.773Z" fill="#1D1D1D"/>
<path d="M121.877 314.323V311.043H123.81V309.101H121.877V306.359H119.623V314.323H121.877ZM116.837 313.834V306.588H114.663V308.301H110.781V306.588H108.607V313.834H116.837ZM110.781 310.064H114.663V312.071H110.781V310.064ZM122.199 321.357V319.774H111.538V318.827H121.877V314.943H109.284V316.477H119.623V317.375H109.284V321.357H122.199Z" fill="#1D1D1D"/>
<path d="M133.972 309.264V307.485H130.348V306H128.045V307.485H124.422V309.264H133.972ZM137.982 317.457V312.446H139.914V310.439H137.982V306.359H135.727V317.457H137.982ZM124.712 312.805C124.712 314.47 125.903 315.629 127.272 315.629H131.137C132.506 315.629 133.698 314.47 133.698 312.805C133.698 311.157 132.506 309.982 131.137 309.982H127.272C125.903 309.982 124.712 311.157 124.712 312.805ZM127.981 313.882C127.192 313.882 126.757 313.393 126.757 312.805C126.757 312.202 127.192 311.728 127.981 311.728H130.445C131.234 311.728 131.669 312.202 131.669 312.805C131.669 313.393 131.234 313.882 130.445 313.882H127.981ZM138.304 321.357V319.464H127.723V316.51H125.452V321.357H138.304Z" fill="#1D1D1D"/>
<path d="M95.2891 336.192C96.7868 336.192 97.9946 335.049 97.9946 333.548C97.9946 332.047 96.7868 330.888 95.2891 330.888H87.398C85.8842 330.888 84.6925 332.047 84.6925 333.548C84.6925 335.049 85.8842 336.192 87.398 336.192H95.2891ZM87.8972 334.446C87.3336 334.446 86.8988 334.086 86.8988 333.548C86.8988 333.009 87.3336 332.65 87.8972 332.65H94.806C95.3696 332.65 95.8044 333.009 95.8044 333.548C95.8044 334.086 95.3696 334.446 94.806 334.446H87.8972ZM98.6871 339.178V337.367H84V339.178H98.6871ZM95.6273 345.364V345.837H97.8336V340.419H84.8535V345.837L95.6273 345.364ZM87.0598 342.1H95.6273V343.634L87.0598 343.993V342.1Z" fill="#1D1D1D"/>
<path d="M104.662 339.097C106.949 339.097 108.833 337.905 108.833 335.572V334.364C108.833 332.03 106.949 330.823 104.662 330.823C102.375 330.823 100.491 332.03 100.491 334.364V335.572C100.491 337.905 102.375 339.097 104.662 339.097ZM113.825 339.603V335.849H115.758V333.874H113.825V330.839H111.571V339.603H113.825ZM104.678 337.334C103.518 337.334 102.649 336.747 102.649 335.637V334.299C102.649 333.189 103.518 332.585 104.678 332.585C105.821 332.585 106.707 333.189 106.707 334.299V335.637C106.707 336.747 105.821 337.334 104.678 337.334ZM113.825 346V340.206H101.071V342.116H111.522V346H113.825Z" fill="#1D1D1D"/>
<path d="M122.618 337.269V336.306H123.488C124.824 336.306 125.726 335.523 125.726 334.364C125.726 333.923 125.549 333.548 125.372 333.336H126.419V331.687H122.683V330.48H120.396V331.687H116.66V333.336H117.69C117.529 333.532 117.352 333.907 117.352 334.364C117.352 335.523 118.222 336.306 119.558 336.306H120.46V337.383L116.209 337.563V339.227L126.998 338.754V337.073L122.618 337.269ZM129.929 330.839H127.675V339.423H129.929V336.029H131.862V334.021H129.929V330.839ZM119.301 334.005C119.301 333.613 119.655 333.254 120.186 333.254H122.892C123.439 333.254 123.794 333.613 123.794 334.005C123.794 334.462 123.456 334.756 122.908 334.756H120.186C119.655 334.756 119.301 334.462 119.301 334.005ZM129.929 343.503V339.962H117.465V341.414H127.675V342.116H117.465V345.837H130.252V344.27H119.719V343.503H129.929Z" fill="#1D1D1D"/>
<path d="M140.752 336.175H146.227V334.429H135.437V332.683H146.146V330.969H133.166V336.175H138.545V337.71H132.313V339.521H147V337.71H140.752V336.175ZM135.582 340.565C133.988 340.565 132.925 341.806 132.925 343.226C132.925 344.662 133.988 345.886 135.582 345.886H143.731C145.325 345.886 146.388 344.662 146.388 343.226C146.388 341.806 145.325 340.565 143.731 340.565H135.582ZM136.081 344.123C135.502 344.123 135.083 343.715 135.083 343.193C135.083 342.687 135.502 342.295 136.081 342.295H143.183C143.779 342.295 144.214 342.687 144.214 343.193C144.214 343.715 143.779 344.123 143.183 344.123H136.081Z" fill="#1D1D1D"/>
</svg>
