<svg width="449" height="58" viewBox="0 0 449 58" fill="none" xmlns="http://www.w3.org/2000/svg">
<path d="M106.221 3.32981L105.818 8.59609H109.068L109.661 0.70847H90.4016V3.32981H106.221ZM110.799 12.3746V9.70603H100.339V5.5969H97.0189V9.70603H89.1683V12.3746H110.799ZM90.0696 18.184C90.0696 20.4039 91.635 22.2932 93.983 22.2932H105.961C108.309 22.2932 109.898 20.4039 109.898 18.184C109.898 15.9642 108.309 14.0985 105.961 14.0985H93.983C91.635 14.0985 90.0696 15.9642 90.0696 18.184ZM94.742 19.6246C93.8882 19.6246 93.2715 18.987 93.2715 18.1368C93.2715 17.2866 93.8882 16.6726 94.742 16.6726H105.178C106.055 16.6726 106.696 17.2866 106.696 18.1368C106.696 18.987 106.055 19.6246 105.178 19.6246H94.742Z" fill="black"/>
<path d="M130.485 8.07655V13.3901H133.805V0.519544H130.485V5.45521H126.026V8.07655H130.485ZM113.218 12.9414C116.254 12.6107 119.029 11.3119 120.096 8.7614C121.14 11.3119 123.915 12.6107 126.975 12.9414V10.1075C124.2 9.75326 121.686 7.93485 121.662 4.39251V3.73127H126.737V1.03909H113.455V3.73127H118.531V4.39251C118.531 7.93485 115.993 9.75326 113.218 10.1075V12.9414ZM114.499 18.184C114.499 20.5928 116.539 22.3404 119.124 22.3404H129.607C132.216 22.3404 134.256 20.5928 134.256 18.184C134.256 15.728 132.216 14.0277 129.607 14.0277H119.124C116.539 14.0277 114.499 15.728 114.499 18.184ZM119.717 19.7427C118.626 19.7427 117.82 19.1287 117.82 18.184C117.82 17.2158 118.626 16.6254 119.717 16.6254H128.991C130.129 16.6254 130.936 17.2158 130.936 18.184C130.936 19.1287 130.129 19.7427 128.991 19.7427H119.717Z" fill="black"/>
<path d="M150.906 4.72313V2.14902H145.57V0H142.178V2.14902H136.841V4.72313H150.906ZM156.812 16.5782V9.32818H159.658V6.42345H156.812V0.519544H153.491V16.5782H156.812ZM137.268 9.84772C137.268 12.2565 139.023 13.9332 141.039 13.9332H146.732C148.748 13.9332 150.503 12.2565 150.503 9.84772C150.503 7.46254 148.748 5.76222 146.732 5.76222H141.039C139.023 5.76222 137.268 7.46254 137.268 9.84772ZM142.083 11.4064C140.921 11.4064 140.28 10.6979 140.28 9.84772C140.28 8.97394 140.921 8.28909 142.083 8.28909H145.712C146.874 8.28909 147.514 8.97394 147.514 9.84772C147.514 10.6979 146.874 11.4064 145.712 11.4064H142.083ZM157.286 22.2223V19.4829H141.704V15.2085H138.359V22.2223H157.286Z" fill="black"/>
<path d="M177.466 6.02199C177.513 5.24267 177.537 4.41612 177.537 3.54235V1.39332H167.931V4.29805H174.43C174.453 11.0993 173.007 16.7671 167.812 18.5619V21.5847C172.651 20.3331 176.161 16.7435 177.205 8.85586H180.762V13.5318H176.422V16.2948H180.762V22.2223H183.727V0.519544H180.762V6.02199H177.466ZM185.696 22.2223H188.684V0.519544H185.696V22.2223Z" fill="black"/>
<path d="M197.863 12.4691C201.231 12.4691 204.006 10.7451 204.006 7.36808V5.62052C204.006 2.24349 201.231 0.495929 197.863 0.495929C194.495 0.495929 191.72 2.24349 191.72 5.62052V7.36808C191.72 10.7451 194.495 12.4691 197.863 12.4691ZM211.358 13.2011V10.3673H214.062V7.74593H211.358V5.45521H214.062V2.83388H211.358V0.519544H208.038V13.2011H211.358ZM197.887 9.91857C196.179 9.91857 194.898 9.0684 194.898 7.46254V5.52606C194.898 3.9202 196.179 3.04642 197.887 3.04642C199.571 3.04642 200.875 3.9202 200.875 5.52606V7.46254C200.875 9.0684 199.571 9.91857 197.887 9.91857ZM211.358 22.4585V14.0749H192.574V16.8379H207.967V22.4585H211.358Z" fill="black"/>
<path d="M231.495 7.74593C233.701 7.74593 235.48 6.21091 235.48 4.17997C235.48 2.12541 233.701 0.590392 231.495 0.590392H219.873C217.644 0.590392 215.889 2.12541 215.889 4.17997C215.889 6.21091 217.644 7.74593 219.873 7.74593H231.495ZM220.608 5.31352C219.778 5.31352 219.138 4.86482 219.138 4.15635C219.138 3.49511 219.778 3.04642 220.608 3.04642H230.783C231.614 3.04642 232.254 3.49511 232.254 4.15635C232.254 4.86482 231.614 5.31352 230.783 5.31352H220.608ZM236.499 11.7134V9.13925H214.869V11.7134H236.499ZM235.598 22.2223V19.9316H219.446V18.6564H235.242V13.2011H216.126V15.3974H231.922V16.5782H216.126V22.2223H235.598Z" fill="black"/>
<path d="M266.593 22.2223V0.519544H263.225V22.2223H266.593ZM246.124 21.5847C254.141 20.1205 259.43 14.4292 259.43 3.82573V1.39332H246.243V4.29805H256.204C256.228 12.5163 252.41 17.0269 246.124 18.5147V21.5847Z" fill="black"/>
<path d="M289.623 16.3184V9.30456H292.469V6.39984H289.623V0.519544H286.302V16.3184H289.623ZM282.199 13.1067V0.850163H278.974V3.99104H273.329V0.850163H270.079V13.1067H282.199ZM273.329 6.63599H278.974V10.4145H273.329V6.63599ZM290.097 22.2223V19.4829H274.515V14.6653H271.17V22.2223H290.097Z" fill="black"/>
<path d="M307.933 13.3192C311.42 13.3192 313.886 10.5798 313.886 7.13192C313.886 3.63681 311.42 0.873779 307.933 0.873779H299.964C296.477 0.873779 294.011 3.63681 294.011 7.13192C294.011 10.5798 296.477 13.3192 299.964 13.3192H307.933ZM300.652 10.509C298.754 10.509 297.379 9.09202 297.379 7.13192C297.379 5.14821 298.754 3.70765 300.652 3.70765H307.245C309.167 3.70765 310.542 5.14821 310.542 7.13192C310.542 9.09202 309.167 10.509 307.245 10.509H300.652ZM314.764 21.7028V18.7508H293.133V21.7028H314.764Z" fill="black"/>
<path d="M337.462 13.6026V10.9104H321.429V8.50163H337.225V0.991856H318.108V3.63681H333.904V5.92753H318.108V13.6026H337.462ZM338.482 21.7028V18.8217H329.35V14.6417H325.983V18.8217H316.851V21.7028H338.482Z" fill="black"/>
<path d="M14.0647 40.0521V37.5725H8.7282V35.4235H5.33653V37.5725H0V40.0521H14.0647ZM19.9705 48.3884V43.193H22.8166V40.3355H19.9705V35.943H16.65V48.3884H19.9705ZM0.426923 44.5155C0.426923 46.5936 1.99231 48.0342 3.8423 48.0342H10.2224C12.0724 48.0342 13.6378 46.5936 13.6378 44.5155C13.6378 42.4373 12.0724 40.9731 10.2224 40.9731H3.8423C1.99231 40.9731 0.426923 42.4373 0.426923 44.5155ZM4.90961 45.649C3.96089 45.649 3.46282 45.1295 3.46282 44.5155C3.46282 43.9015 3.96089 43.3819 4.90961 43.3819H9.20256C10.1513 43.3819 10.6494 43.9015 10.6494 44.5155C10.6494 45.1295 10.1513 45.649 9.20256 45.649H4.90961ZM16.65 56.9845V57.6458H19.9705V49.1441H16.65V50.7972H4.74359V49.1441H1.42308V57.6458L16.65 56.9845ZM4.74359 53.1824H16.65V54.5521L4.74359 55.0244V53.1824Z" fill="black"/>
<path d="M44.4711 57.6458V35.943H41.1032V57.6458H44.4711ZM38.5891 55.5204V52.6156L27.5602 53.5603V47.6327H36.7865V36.8168H24.2397V39.6743H33.4897V44.8461H24.2397V56.772L38.5891 55.5204Z" fill="black"/>
<path d="M64.7974 43.5708V49.0733H68.1179V35.943H64.7974V40.9731H59.9115V43.5708H64.7974ZM47.5307 48.6246C50.5666 48.294 53.3416 46.9479 54.4089 44.4919C55.4525 46.9479 58.2275 48.294 61.2871 48.6246V45.6963C58.4884 45.342 55.9743 43.6181 55.9743 40.1702V39.2492H61.0499V36.4625H47.7679V39.2492H52.8435V40.1702C52.8435 43.6181 50.3294 45.342 47.5307 45.6963V48.6246ZM64.7262 52.6629V57.8819H68.1179V49.9707H48.8115V52.6629H64.7262Z" fill="black"/>
<path d="M78.032 48.8371C81.5897 48.8371 84.4833 47.0423 84.4833 43.6417V41.1384C84.4833 37.7378 81.5897 35.9194 78.032 35.9194C74.4743 35.9194 71.5807 37.7378 71.5807 41.1384V43.6417C71.5807 47.0423 74.4743 48.8371 78.032 48.8371ZM91.9307 51.671V35.943H88.5627V51.671H91.9307ZM78.0557 46.1922C76.2294 46.1922 74.8775 45.3184 74.8775 43.7125V41.0912C74.8775 39.4853 76.2294 38.5643 78.0557 38.5643C79.8345 38.5643 81.2102 39.4853 81.2102 41.0912V43.7125C81.2102 45.3184 79.8345 46.1922 78.0557 46.1922ZM92.3339 57.6458V54.9064H76.1108V50.3249H72.7666V57.6458H92.3339Z" fill="black"/>
<path d="M118.372 43.6889C120.577 43.6889 122.356 42.0358 122.356 39.8632C122.356 37.6906 120.577 36.0138 118.372 36.0138H106.75C104.52 36.0138 102.765 37.6906 102.765 39.8632C102.765 42.0358 104.52 43.6889 106.75 43.6889H118.372ZM107.485 41.1621C106.655 41.1621 106.015 40.6425 106.015 39.8632C106.015 39.0839 106.655 38.5643 107.485 38.5643H117.66C118.49 38.5643 119.131 39.0839 119.131 39.8632C119.131 40.6425 118.49 41.1621 117.66 41.1621H107.485ZM123.376 48.0106V45.3892H101.745V48.0106H123.376ZM118.87 56.9609V57.6458H122.119V49.8054H103.002V57.6458L118.87 56.9609ZM106.252 52.2378H118.87V54.4577L106.252 54.9772V52.2378Z" fill="black"/>
<path d="M132.175 47.8925C135.543 47.8925 138.318 46.1686 138.318 42.7915V41.044C138.318 37.6669 135.543 35.9194 132.175 35.9194C128.807 35.9194 126.032 37.6669 126.032 41.044V42.7915C126.032 46.1686 128.807 47.8925 132.175 47.8925ZM145.671 48.6246V43.193H148.517V40.3355H145.671V35.943H142.35V48.6246H145.671ZM132.199 45.342C130.491 45.342 129.211 44.4919 129.211 42.886V40.9495C129.211 39.3436 130.491 38.4699 132.199 38.4699C133.883 38.4699 135.188 39.3436 135.188 40.9495V42.886C135.188 44.4919 133.883 45.342 132.199 45.342ZM145.671 57.8819V49.4984H126.886V52.2614H142.279V57.8819H145.671Z" fill="black"/>
<path d="M165.732 45.2476V43.8542H167.012C168.981 43.8542 170.309 42.7207 170.309 41.044C170.309 40.4063 170.048 39.8632 169.787 39.5562H171.329V37.171H165.826V35.4235H162.459V37.171H156.956V39.5562H158.474C158.237 39.8396 157.976 40.3827 157.976 41.044C157.976 42.7207 159.257 43.8542 161.225 43.8542H162.553V45.4129L156.292 45.6726V48.0814L172.183 47.3966V44.9642L165.732 45.2476ZM176.5 35.943H173.179V48.3648H176.5V43.4528H179.346V40.548H176.5V35.943ZM160.846 40.5244C160.846 39.9577 161.368 39.4381 162.15 39.4381H166.135C166.941 39.4381 167.463 39.9577 167.463 40.5244C167.463 41.1857 166.965 41.6107 166.159 41.6107H162.15C161.368 41.6107 160.846 41.1857 160.846 40.5244ZM176.5 54.2687V49.1441H158.142V51.2459H173.179V52.2614H158.142V57.6458H176.974V55.3787H161.462V54.2687H176.5Z" fill="black"/>
<path d="M192.438 43.6653H200.502V41.1384H184.611V38.6116H200.384V36.1319H181.267V43.6653H189.189V45.8852H180.01V48.5065H201.641V45.8852H192.438V43.6653ZM184.825 50.0179C182.476 50.0179 180.911 51.8127 180.911 53.8673C180.911 55.9454 182.476 57.7166 184.825 57.7166H196.826C199.174 57.7166 200.739 55.9454 200.739 53.8673C200.739 51.8127 199.174 50.0179 196.826 50.0179H184.825ZM185.56 55.1661C184.706 55.1661 184.089 54.5757 184.089 53.82C184.089 53.0879 184.706 52.5212 185.56 52.5212H196.019C196.897 52.5212 197.537 53.0879 197.537 53.82C197.537 54.5757 196.897 55.1661 196.019 55.1661H185.56Z" fill="black"/>
<path d="M220.354 43.1694C222.56 43.1694 224.339 41.6344 224.339 39.6034C224.339 37.5489 222.56 36.0138 220.354 36.0138H208.732C206.503 36.0138 204.748 37.5489 204.748 39.6034C204.748 41.6344 206.503 43.1694 208.732 43.1694H220.354ZM209.467 40.737C208.637 40.737 207.997 40.2883 207.997 39.5798C207.997 38.9186 208.637 38.4699 209.467 38.4699H219.642C220.473 38.4699 221.113 38.9186 221.113 39.5798C221.113 40.2883 220.473 40.737 219.642 40.737H209.467ZM225.358 47.1368V44.5627H203.728V47.1368H225.358ZM224.457 57.6458V55.355H208.305V54.0798H224.101V48.6246H204.985V50.8208H220.781V52.0016H204.985V57.6458H224.457Z" fill="black"/>
<path d="M248.858 40.0521V37.5725H243.522V35.4235H240.13V37.5725H234.794V40.0521H248.858ZM254.764 47.798V43.193H257.61V40.3355H254.764V35.943H251.444V47.798H254.764ZM235.221 44.1612C235.221 46.0505 236.715 47.3966 238.565 47.3966H245.111C246.961 47.3966 248.431 46.0505 248.431 44.1612C248.431 42.2484 246.961 40.9023 245.111 40.9023H238.565C236.715 40.9023 235.221 42.2484 235.221 44.1612ZM239.347 45.1295C238.612 45.1295 238.233 44.6808 238.233 44.1612C238.233 43.6417 238.612 43.193 239.347 43.193H244.352C245.087 43.193 245.467 43.6417 245.467 44.1612C245.467 44.6808 245.087 45.1295 244.352 45.1295H239.347ZM255.238 57.6458V55.4023H239.537V54.1743H254.764V48.6718H236.217V50.9153H251.444V52.0961H236.217V57.6458H255.238Z" fill="black"/>
<path d="M266.239 46.0505C271.172 45.9796 274.777 43.7362 276.2 41.2093C277.576 43.7362 281.252 45.9796 286.162 46.0505V43.2166C281.395 43.1221 277.884 40.0285 277.884 37.2891V36.2972H274.516V37.2891C274.516 40.0285 271.03 43.1221 266.239 43.2166V46.0505ZM277.884 57.8819V51.1278H287.016V48.2467H265.385V51.1278H274.516V57.8819H277.884Z" fill="black"/>
<path d="M303.329 47.2313C306.887 47.2313 309.78 45.5309 309.78 42.2248V40.9495C309.78 37.6433 306.887 35.9194 303.329 35.9194C299.771 35.9194 296.878 37.6433 296.878 40.9495V42.2248C296.878 45.5309 299.771 47.2313 303.329 47.2313ZM317.228 47.7744V35.943H313.86V47.7744H317.228ZM303.353 44.728C301.527 44.728 300.175 43.9015 300.175 42.3901V40.8078C300.175 39.2964 301.527 38.4226 303.353 38.4226C305.132 38.4226 306.507 39.2964 306.507 40.8078V42.3901C306.507 43.9015 305.132 44.728 303.353 44.728ZM307.67 58C310.089 57.4568 311.939 56.0871 312.721 54.5285C313.575 56.158 315.662 57.4332 318.39 57.6458V54.8355C315.544 54.4577 314.239 52.5684 314.239 50.5138V48.8371H311.132V50.5611C311.109 52.6629 309.591 54.5285 307.67 55.1425C305.891 54.5285 304.325 52.7337 304.325 50.6555V49.0733H301.195V50.6555C301.195 52.6865 299.771 54.5049 297.068 54.8827V57.6458C299.914 57.4332 302.001 56.158 302.807 54.5049C303.543 56.0635 305.321 57.4332 307.67 58Z" fill="black"/>
<path d="M330.107 44.6808C330.368 42.9805 330.51 41.0912 330.51 38.9658V36.8168H320.477V39.7215H327.45C327.474 46.4283 325.885 52.1906 320.359 53.9617V57.0081C324.652 55.9454 327.948 53.1824 329.514 47.5619H333.261V57.6458H336.226V35.943H333.261V44.6808H330.107ZM338.194 57.6458H341.183V35.943H338.194V57.6458Z" fill="black"/>
<path d="M370.968 51.8835V44.6572H373.814V41.7524H370.968V35.943H367.648V51.8835H370.968ZM363.544 47.7272V36.3917H351.424V47.7272H363.544ZM354.674 39.0839H360.319V45.0114H354.674V39.0839ZM371.442 57.6458V54.9064H355.86V49.9234H352.515V57.6458H371.442Z" fill="black"/>
<path d="M394.971 43.2166V40.7606H379.08V38.5643H394.852V36.1319H375.735V43.2166H394.971ZM396.109 47.3493V44.7989H374.478V47.3493H396.109ZM391.579 57.0318V57.6458H394.852V48.5774H391.579V50.5138H379.008V48.5774H375.735V57.6458L391.579 57.0318ZM379.008 52.9699H391.579V54.5994L379.008 55.0244V52.9699Z" fill="black"/>
<path d="M418.997 57.6458V35.943H415.629V57.6458H418.997ZM413.186 55.6384V52.6392L402.726 53.4894V36.6987H399.335V56.772L413.186 55.6384Z" fill="black"/>
<path d="M441.458 57.6458V47.4202H444.968V44.421H441.458V35.943H438.137V57.6458H441.458ZM436.074 55.6384V52.7573L426.183 53.6075V39.627H435.006V36.8168H422.863V56.772L436.074 55.6384Z" fill="black"/>
<path d="M449 56.8665V53.7492H445.869V56.8665H449Z" fill="black"/>
</svg>
